<svg id="99189956037_technicalMordantEarth" class="record-detail__icon" viewBox="-1 0 52 62" xmlns="http://www.w3.org/2000/svg"><defs><clipPath id="pot"><path d="M34.9927 3.31021C34.0377 1.87791 29.0583 0.923096 24.4199 0.923096C19.7814 0.923096 16.0844 2.00071 14.3927 3.31021C8.73112 4.94709 5.1841 8.56187 4.63841 11.5628C4.09271 14.5638 0 46.0055 0 48.7337C0 51.4618 4.50198 61.6923 25.3066 61.6923C46.1112 61.6923 49.9311 51.3254 49.9993 48.7337C50.0675 46.142 45.0198 10.7444 45.0198 10.7444C44.2695 5.76553 35.6748 3.37842 34.9927 3.31021Z"/></clipPath><clipPath id="spray"><path transform="translate(5 0)" d="M37.0579 14.6557C35.9063 13.9672 34.7548 13.377 33.4986 12.7869C33.3939 12.7869 33.2893 12.6885 33.2893 12.5902C32.3471 11.0164 31.3003 9.44262 30.0441 7.96721C29.8347 7.67213 29.5207 7.37705 29.3113 7.18033C29.1019 6.98361 28.7879 6.88525 28.4738 6.78689C28.3691 6.78689 28.3691 6.78689 28.2645 6.78689C26.3802 6.78689 24.4959 6.78689 22.6116 6.78689L22.7163 6.68852C22.8209 6.39344 22.9256 6.09836 22.9256 5.80328C22.9256 4.13115 22.9256 2.36066 22.9256 0.688525C22.9256 0.295082 22.7163 0.0983607 22.2975 0C21.9835 0 21.7741 0 21.4601 0C20.9366 0.0983607 20.5179 0 19.9945 0H17.6915C17.5868 0 17.4821 0 17.3774 0C16.5399 0.0983607 15.5978 0.0983607 14.7603 0.196721C14.4463 0.196721 14.2369 0.491803 14.1322 0.688525C14.1322 0.885246 14.1322 0.983607 14.1322 1.18033C14.1322 2.85246 14.1322 4.52459 14.1322 6.19672C14.1322 6.29508 14.1322 6.39344 14.1322 6.4918C14.1322 6.68852 14.2369 6.78689 14.4463 6.88525C12.6667 6.88525 10.9917 6.88525 9.21212 6.88525C8.68871 6.88525 8.26997 7.08197 7.95592 7.37705C6.28099 9.2459 4.92011 11.3115 3.76859 13.4754C3.66391 13.5738 3.55923 13.6721 3.45455 13.7705C2.61708 14.2623 1.67493 14.8525 0.732782 15.3443C0.209366 15.541 0 16.0328 0 16.5246C0 16.623 0 16.7213 0 16.7213C0 28.4262 0 43.9672 0 55.6721C0 55.6721 5.65289 60 19.0523 60C32.4518 60 38 55.7705 38 55.7705V15.7377C37.8953 15.1475 37.4766 14.8525 37.0579 14.6557Z"/></clipPath></defs><g fill="#171314" clip-path="url(#pot)"><rect height="100%" width="100%" fill="#4B4849"/><g transform="translate(-1 , -1), scale(.6 .6)"><g stroke-width="0"><path d="M75.3 68c1.5-1.1 3.5-2.9 3.9-4.8l-3.7-.6c-.8-.1-1.7-.4-2 .4a5 5 0 0 0-.6 2.4c.1 1 1.7 2 2.4 2.6zM79.5 60.1l-2.2-2.3c-.6-.6-1.2-.6-2-.3-1.2.4-1.3 1.4-1.4 2.6 0 .5-.1.9.3 1.2.6.4 1.8.4 2.5.5.8.1 2.1.5 2.9.1 1-.5.5-1.3-.1-1.8zM83.2 38.2c-.3 1-1.8 4.3-.5 5.2.5.3 1.5 0 2.1-.1.8-.2 1.7-.4 2.5-.8 1.2-.6.8-1.8.6-2.9-.2-1.2-1-1.3-2.1-1.7-.9-.3-2.3-.9-2.6.3zM81.3 36.8c-.7-.3-2.1.5-2.2 1.2-.1.5.4 1.1.6 1.5l1.1 1.9.9-2.7c.2-.6.5-1.5-.4-1.9zM83.3 45.4c-.5.2-1 0-1.4.7-.2.4 0 1.2 0 1.7.1 1 0 2 .3 2.9.2.9.6 1.6 1.3 2.2.6.5 1.7 1.1 2.4.7.5-.3.7-1 1-1.5l1.1-2c.6-1 1.4-2 .5-3-1.4-1.4-3-2.9-5.2-1.7zM83.8 55.2c-.8-.4-1.8-1.3-2.7-1.4-.8-.1-1.4.7-1.9 1.2-.4.4-1.1 1-1 1.7.1.7.9 1.3 1.4 1.8l1.3 1.1c.6.4.8.4 1.5.1.8-.3 2.1-.6 2.6-1.3.9-1.5.2-2.5-1.2-3.2zM46.7 78.8l2.5-.4h1.9c.6 0 1.4.1 1.7-.5.4-.8.2-2.2.3-3.1.1-.8.3-1.6.2-2.4-.1-.7-.5-1.1-1.1-1.5-.8-.7-2.4-2.5-3.6-2-.6.3-1.2 1-1.7 1.4L45 72c-1.3 1.2-1.3 2.1-.7 3.7.5 1.1.8 3.4 2.4 3.1zM47.6 82.6c.2.6.5 1.4 1.2 1.7.7.3 1.6-.1 2.3-.3 1-.3 2.3-.7 2.8-1.7.3-.5.3-1.6 0-2.1s-1-.5-1.5-.5l-3.7.1c-.5 0-1.4 0-1.6.6-.3.7.3 1.7.5 2.2zM55.7 78.1c.8.2 3.1.5 3.5-.4.3-.6.1-1.5.2-2.2.2-.8.5-1.8-.1-2.4-.6-.6-1.5-.8-2.2-1.1-.6-.3-1.4-.7-1.7.2-.4.9-.3 2.4-.3 3.4-.1.8-.5 2.2.6 2.5zM62.4 71.3c.5-.8.7-1.7.3-2.5-.4-.9-1.4-1.5-2.1-2.2-.6-.8-1.1-1.4-2.2-1.1-1.2.4-2.5.9-3.7 1.5-.6.3-2 .7-1.3 1.6.3.4 1 .6 1.4.8l1.6.8 3.3 1.6c.4.2 1.2.8 1.6.6l1.1-1.1zM78.1 38.8c-.7-.9-2.3-.3-3.2-.1-.7.1-2.2.2-2.5 1-.2.6.3 1.8.6 2.4.3.5.7.9 1.2 1.1.8.3 1.7.4 2.6.4.8 0 1.9.2 2.7-.2 1.8-.8-.7-3.7-1.4-4.6zM21.1 65c.6.2 1.1.3 1.6-.1.4-.3.8-1.2.7-1.7-.1-.6-.9-1.1-1.3-1.5l-1.9-1.8c-.5.6-.8.9-.8 1.7v2c.1.9.9 1.1 1.7 1.4zM70.6 63.5c1.5.1 1.8-4.4 1.8-5.2 0-1.2-.4-1.8-1.2-2.6l-1.4-1.4c-.4-.4-.9-1.1-1.5-1.3-.8-.4-1.9.3-1.8 1.2.1 1.1.6 2.3.9 3.4l1.1 3.7c.4.8.8 2 2.1 2.2zM67.4 71.1c.6-.4 1.7-.6 1.7-1.5s-.8-1.7-1.3-2.3a7.7 7.7 0 0 0-4.5-3c-.6-.2-1.4-.4-1.6.4-.2.8.7 1.8 1.2 2.4l2 2.4c.7.7 1.6 1 2.5 1.6zM57.4 82.4c.9.1 1.7.4 2.6.6.7.2 1.2 0 1.5-.8.7-1.6-1.3-2.5-2.6-2.5-.8 0-2.6-.4-3 .4-.6 1.4.3 2.2 1.5 2.3zM70.6 67.5c-.5.7-.3 1.8.6 2.1.7.3 2.4 0 2.9-.7.6-.7-.4-1.5-.9-1.9-.4-.3-.9-.9-1.3-.8-.4.2-1.1 1-1.3 1.3zM80.1 50.1c-.7-.2.1-2.7-.9-3.3-.5-.3-1.3-.2-1.9-.3l-2.6-.3c-.9-.1-1.9-.3-2.8-.2-.8.1-1.7.5-2.5.8-1.3.5-2.7.7-1.7 2.2l3.5 4.6c1 1.3 2.2 2.9 4.1 2.4a7.5 7.5 0 0 0 3.2-2.4c.4-.4.9-.8 1.1-1.4.3-.7.3-1.4.5-2.1zM85.2 26.1c.5.2.9.8 1.4.7.5 0 .7-.5.8-.9.4-1 1.2-3.2 0-3.9-1.3-.7-2.1.5-2.5 1.5-.5 1.1-1.3 2 .3 2.6zM78.7 35c-1.4-1.1-2.7-2.5-4.5-2.8-2-.4-2.2 1.3-2.3 2.9 0 .8-.2 1.7.3 2.4.6.9 1.7.4 2.6.2l3.5-1c.9-.4 1.3-.9.4-1.7zM82.6 35.8c.4-.8.9-1.7 1.1-2.5.1-.4.1-.5-.3-.8-.3-.3-.8-.4-1.1-.6l-2.6-1.3c-.6-.3-1.3-.7-1.9-.4-.5.3-.8 1.1-.7 1.7.1.8 1 1.3 1.6 1.8.3.2 3.5 3 3.9 2.1zM83.8 35.6c.1.8 1.1 1 1.8.7.7-.3 1.3-1.8.9-2.3-.5-.6-1.3-1.2-1.9-.6-.5.6-.9 1.5-.8 2.2zM89 40.3c.2.8.5 1.2 1.4 1.1l.6-.1c.3-.2.2-.3.1-.8l-.3-2.2c-1.5.2-2.3.3-1.8 2zM72.3 75.4c.2.3.8.2 1.1.2l1.8.2c.8.1 1.9.4 2.6.1.7-.3 1-1 1.2-1.7.3-.8.1-1.1-.6-1.4-.9-.4-1.5-1.1-2.3-1.6-.8-.5-1.7-.4-2.7-.3-1.1.1-1.1.5-1.2 1.5-.1 1.1-.6 2.1.1 3zM44.2 69.2c1-.7.6-2.9.2-3.9-.5-1.1-1.7-1.1-2.7-.9-.7.1-1.5.1-1.6.9-.1.4-.2 1.5.1 1.8.2.3.6.2.9.3.4.1.8.3 1.1.6.4.3 1.4 1.5 2 1.2zM88.3 45.1a18 18 0 0 0 3.7 2.4l-.7-5.4c-1.3.3-5.3 1.1-3 3zM81.8 71.6l1.1-3 .6-1.6c.1-.6 0-.7-.5-1-.6-.4-1.7-1.4-2.4-1.2-.8.3-1.6 1.7-2.2 2.4-.5.6-1.8 1.6-1.9 2.4-.1.8.9 1.5 1.5 1.8 1 .7 3.2 1.9 3.8.2zM87.8 60.4c-1.7-.6-3.8-.7-5 .9-1.4 1.7.5 2.3 1.8 3 1.1.6 2 1.1 3 .1.9-1.1 2.3-3.2.2-4zM90.1 48.7c-1.1 1.4-1.9 3.2-2.8 4.7-.3.6-.5.9 0 1.5.5.5 1.4.9 2.1.7.8-.3 1.6-1.2 2.2-1.8l.9-.8c.4-.5.2-.8.1-1.4l-.2-1.5-.1-.7c.1-.3-.1-.5-.4-.5-.5-.5-1.3-.8-1.8-.2zM86.2 58.3c-.2.9.9 1.1 1.5 1.1.5.1 1.1.1 1.5-.3.4-.4.2-.9.1-1.4a2 2 0 0 0-1.9-1.3c-1.2.1-1 1-1.2 1.9zM10 74.2c1.3 1.2 3.5 3.1 5.5 2.7 1.2-.2 3.5-2 2.9-3.4-.4-1-2-1.3-2.9-1.7-.9-.4-1.9-1-2.9-.9-1 .2-3.8 2.1-2.6 3.3zM31 63.9c-.6 0-1 .5-1.5.9.4.5.7.9 1.3 1.2.4.2 1.1.6 1.6.5.9-.2.8-1.9.9-2.6H31zM33 47.3c-.6.3-1.4.5-2 .9-.6.4-.6.7-.4 1.4.2.9.6 3.1 2 2.6 1-.4 1.6-2.6 1.9-3.5.3-1.2-.4-1.8-1.5-1.4zM33.9 43.2l-3.1-.5c-.7-.1-1.6-.2-2.2.4-1.2 1.1-.9 2.6.3 3.4 1.3.9 3 .6 4.3-.1.9-.5 2.5-2.9.7-3.2zM29.2 59.4c-.8.9.3 2 .9 2.7.6.5 1.4.8 2.2.9.7.1 1.7.1 2.1-.5.3-.4.3-1.1.5-1.6l.5-2-3.9-.6c-1.3-.3-1.6.3-2.3 1.1zM30.8 37.8l-.4 2.5c-.1.5 0 .9.5 1.1 1.1.7 3.3.7 3.8-.7.3-.7 0-1.5-.2-2.2-.2-.7-.3-1.6-1.1-1.9-.4-.1-1.1-.1-1.6 0-.7.1-1 .5-1 1.2zM24.4 50.7l-3.1 1.4c-.7.3-1.5.6-1.5 1.5a2 2 0 0 0 1.1 1.7c.8.4 2-.2 2.8-.4.8-.2 2.7-.5 2.8-1.5.2-1.1-1-3.2-2.1-2.7zM42.4 69.2l-1.6-.7c-.7-.3-.9-.3-1.5.1-.5.3-.6.4-.7 1.1 0 .4 0 1.4.3 1.8.3.3 1.1.2 1.4.3a3 3 0 0 0 1.9-.2c.2-.1 1.2-.7 1.2-.9-.1-.5-.8-1.4-1-1.5zM21.2 45.4c.7.9 2.5 5 4.1 3.4.6-.6.6-1.9.7-2.7l.4-3.5c-.7 0-1.3.2-2 .1s-1.1-.3-1.7.1c-.9.4-2.2 1.5-1.5 2.6zM25.7 55.3c-1.2.4-.6 1.4-.2 2.2.3.5.7 1.5 1.5 1.5s1.6-.9 1.9-1.5c.5-1 .5-2.3.1-3.4l-3.3 1.2zM13.3 69.6c.8.6 1.2.1 1.8-.5.6-.7 1.1-1.3 1.4-2.2.5-1.4-.6-1.7-1.7-2-1.1-.3-5-.7-4 1.5.2.4.7 1.4 1.2 1.6.5.2 1.3-.3 1.8-.6-.6.7-1.5 1.4-.5 2.2zM11.1 62c-.5 1-.6 1.6.8 1.8 1.1.1 2.2-.1 3.3.2.5.1 1.5.9 2.1.6.6-.3.7-1.4.8-1.9.1-.6.5-1.8-.1-2.3-.6-.4-1.7.2-2.3.2-.8 0-1.8-.7-2.6-.5-.8.2-1.7 1.4-2 1.9zM26.5 66.4c-.3.4-.8.5-1.2.9-.4.4-.7 1-.7 1.6-.1 1.1.2 2.2.3 3.3l3.1-1.8c.8-.4 2.2-1 2.5-1.9.3-1-.7-1.5-1.5-1.9-.9-.5-1.7-1.1-2.5-.2zM19.5 56.3c-.2-.5-.4-1.3-1.1-1.5-.7-.2-1.5.3-2.2.4-.7.1-1.8 0-2.4.4-.5.3-.5 1-.5 1.6 0 .5 0 1.2.4 1.5.5.5 1.6.6 2.2.7 2.1.2 4.4-.8 3.6-3.1zM66.5 50.6l-1.7-2.3c-.5-.7-.9-.8-1.8-.6-1.2.3-1.9 1.3-2.1 2.5-.2 1.5 1.2 1.9 2.4 2.2.3.1.9.5 1.2.5.3 0 .9-.5 1.1-.7.3-.3 1.2-1 .9-1.6zM21.3 73.3c-1.1-.1-2.3 1.3-1.8 2.4.3.5.9.6 1.4.8.6.2 1.4.6 2.1.6 1 0 1.8-1.3 1.5-2.2-.3-1.2-2.3-1.3-3.2-1.6zM18.5 71.7l.1-.3 2.9.7c.6.2 1.2.3 1.6-.4.8-1.4-.3-3.5-1-4.7-.6-.9-2.4-1.7-3.3-1-.6.5-1.1 1.3-1.5 1.9-.5.9-1.2 1.6-1.8 2.4a6 6 0 0 0 3 1.4zM27 47.6c0 1.2 0 2.8.6 3.9.7 1.4 1.7.5 2.3-.4.2-.3.4-.5.4-.8 0-.3-.3-.7-.5-.9l-.9-1.7c-.2-.4-.5-1-1.1-1-.5 0-.8.5-.8.9zM23.3 86.2c-.6.1-2 .8-2 1.4 0 .5.8 1.2 1.2 1.4.8.4 1.3-.3 1.9-.8.4-.3.4-.2.2-.6a3 3 0 0 0-.5-.7c-.1-.1-.5-.8-.8-.7zM26.9 83.1c1.9-.3 3.2-1.4 2.3-3.4-.3-.6-.5-1-.6-1.6 0-.5 0-.8-.3-1.2-.4-.5-1.5-1.2-2.1-1.1-1 .1-1.1 2-1.2 2.8-.3 1.1-.6 2-.5 3.1.1 1.6.9 1.7 2.4 1.4zM18.1 77.7c-.7.8-1.7.9-1.5 2.2.2 1.4.8 2.4 1.8 3.4l1.3 1.7c.2.3.5.9 1 .9.4.1 1-.5 1.4-.6.8-.4 1.1-.8 1.5-1.5-.6-.2-.3-.9-.3-1.4l.1-1.5c.1-.8.3-1.5-.5-2-.8-.4-1.8-.5-2.6-.9-.7-.4-1.5-1-2.2-.3zM37.5 70.6c0-.6.1-1.5-.5-1.9-.5-.3-1.3-.1-1.9-.3-.7-.2-3.4-1.8-2.9.2.3 1.3 2.4 2.3 3.4 2.9 1.2.7 2 .5 1.9-.9zM40.5 76.8c.6.5 3 1.4 2.8-.1-.1-.7-.6-1.5-.8-2.1-.2-.5-.3-1-.7-1.4-.7-.6-2.2-.8-3-.3-1.5 1.1.9 3.2 1.7 3.9zM15.3 83c-.7.4-1.7 1-2.2 1.6-.6.7-.2 1.8 0 2.6.3 1.5.9 3.2 2.7 2.4.9-.4 4-2.1 3.5-3.3-.4-.8-1.4-1.7-2-2.4-.5-.5-1.2-1.3-2-.9zM39 65.9c0-.4.1-1-.2-1.3-.5-.4-1.6-.4-2.2-.4-1.6-.2-2.5-.3-2.7 1.5-.2 1.7 1.3 1.8 2.6 1.8 1.4-.1 2.4.1 2.5-1.6zM8.8 75.3c-.6-.7-2.7-1.5-3.7-1.1-.5.1-.6.7-.8 1.1l-.8 1.5c-.2.6.2 1.1.6 1.6.5.6.9.7 1.5.2 1.1-.9 2.4-2.1 3.2-3.3zM9.2 60.8c-.6-.5-1.9-1.6-2.8-1.5-.7.1-1.9 1.2-1.5 1.9.2.5 1.2.7 1.6.9l1.8.8c.6.2.7-.1 1-.6.2-.3.4-.6.4-.9l-.5-.6zM11.2 46.7c1.1.8 2.6 1.2 3.7.2.6-.5 1.4-1.8.7-2.4-.4-.4-1.3-.5-1.9-.6-.6-.1-1.3-.6-1.9-.3-.4.2-.8 1-.9 1.4-.2.4-.2 1.3.3 1.7zM18.7 44.8c-.9.4-1.4.5-1.8 1.4-.3.7-.7 1.5-.5 2.3.3 1.2 2.2 3.7 3.6 3.1l1.8-1c.7-.4 1.1-.8.7-1.6-.4-.9-1.1-1.7-1.7-2.5a4.4 4.4 0 0 0-2.1-1.7zM11.7 48.6l1 3.2c.2.7.3 1.7.7 2.3.2.4.5.5 1 .5.9-.1 2-.2 2.7-.6 1.4-.7-.1-2.8-.8-3.5-1.1-1.3-2.9-1.6-4.6-1.9zM6.6 73.3c.5.1 1 .1 1.4-.3.3-.4.5-1.1.2-1.5-.3-.5-1.2-.7-1.7-1l-2.3-1.2c-.7 1.7.6 3.6 2.4 4zM7.7 70.1c1 .2 1.7.4 2.3-.5.7-1 .3-1.6-.2-2.7-.4-.9-.7-1.8-1.5-2.5-.6-.5-1.7-1.3-2.6-1.1-1 .2-3 2.3-2.6 3.3.1.4.7.7 1 1l1 1c.8.7 1.6 1.3 2.6 1.5zM5 55.5l-.3-1-.7 5.4c1.9-1.9 1.9-2 1-4.4zM68 62.8l-.8-2.5c-.2-.5-.1-.6-.5-.6l-1.1.3a8.2 8.2 0 0 0-3.6 2.4l3.9 1.7c.5.3 1 .6 1.5.2.4-.2.7-1 .6-1.5zM90.5 58.4c.1.5.9.7 1.3.7.3 0 1.4 0 1.6-.3.3-.3-.1-1.8-.2-2.3l-.4-2.7c-.8.7-1.9 1.3-2.4 2.2-.5.8-.1 1.6.1 2.4zM90.4 60.6c.3.9.4 1.5 1.2 2.1.8.6 1.7.8 2.7 1l-.5-4-3.4.9zM69.7 74c0-.6.6-1.7.2-2.3-.4-.6-1.6.1-2.1.2s-1 0-1.5-.2c-.3-.1-.6-.4-1-.4-.7-.1-1.2.5-1.1 1.2.1.5.7 1.2 1 1.6.4.5.8 1 1.5 1.1l1.1.1c.3 0 .7.2 1 .1.7-.1.9-.8.9-1.4zM85.6 88.3c.9-.8.6-1.3-.2-2l-2.7-2.7c-.3-.3-.7-.9-1.2-1-.3-.1-.3-.1-.7.1l-.8.4c-.6.3-1.9.5-2.2 1.2-.3.8.6 1.7 1.1 2.2.7.8 1.6 1.5 2.5 2.2.5.4 1.2 1.1 2 1 .8-.1 1.6-.9 2.2-1.4zM68.9 64.2c-.6.8-1.4 1.3-.5 2.2.9.9 1.7.1 2.6-.3l-2.1-1.9zM91 71.2c-.6-.6-1.9 1.9-2.1 2.5-.5 1 .1 1.9 1.2 2.1 1 .2 1.9-1.6 2.2-2.4.5-1.1-.6-1.5-1.3-2.2zM89.7 68.1c.4.4.9.9 1.5.5.3-.2.6-1 .8-1.3l.7-1.3c.3-.5.5-.7.1-1.2l-.8-.7c-.5-.3-1.2-1-1.9-.8-.6.2-1.1 1-1.6 1.4-.3.3-.8.7-.8 1.1-.1 1 1.5 1.9 2 2.3zM69.2 86.6c0-.9.4-2.3 0-3.2-.4-.9-1.9-1-2.8-1.2-1-.2-1.8-.4-2.6.3a4 4 0 0 0-1.3 2.6c-.1.6-.1 1.9.4 2.4s1.4.2 2 .1l2.5-.1c.7.1 1.7.2 1.8-.9zM87.4 74c.7-.3 1-1.2 1.3-1.8.4-.7 1.3-1.5.8-2.2-.6-.8-1.7-1.6-2.4-2.3-.6-.5-1.4-1.6-2.1-.8-.6.6-.9 2-1.2 2.8-.3.7-1.1 2.1-.8 2.8.2.7 1.3.7 1.8.9.8.2 1.8.9 2.6.6zM81.4 74.3c-.9-.2-2.1 1.8-2.4 2.5-.3.7-.1.9.4 1.4l2.6 2.5c1.2-1.7 2.7-3.3 3.4-5.3-1.3-.5-2.6-.9-4-1.1zM57.9 29c-.4-.1-1.2-.1-1.5.3-.2.4.1.8.3 1.2.6.9 1.3 2 2.5 1.6 1.1-.4 1.2-1 .8-2.1-.3-1-1.1-1.1-2.1-1zM60.5 32.8c-.7 0-1.4.3-1.4 1.1 0 .7.7 2.2 1.3 2.6.8.5 1.5-.5 1.5-1.2a3.7 3.7 0 0 0-1.4-2.5zM67.3 31.1c-.6-.5-1.2-1.4-2-1.6-.9-.2-1.9.4-2.6.7-.3.1-1 .3-1.2.6-.2.3.1.8.3 1.1.4 1 .7 2.1 1.2 3 1.6 2.7 5.5-2.9 4.3-3.8zM46.4 17.1c-.7.3-1.8.8-1.6 1.7.1.6 1 1.6 1.5 1.8.7.2 1.4-1 1.4-1.7 0-.5-.6-2.1-1.3-1.8zM68.1 27.8c-.8-.5-1.5-1.1-2.3-.2a3 3 0 0 0-.5.7c-.3.2-.2.4.1.5l.4.3 2.1 1.6c.6-1 1.4-2.1.2-2.9zM27.4 14.4c1 1.1 1.8.9 2.8-.1.2-.2.7-.6.7-1 0-.3-.4-1.1-.5-1.4l-.5-1.2c-.3-.7-.4-1.6-1.2-1.2-.8.3-1.6.8-2.3 1.3-.6.4-1 .8-.6 1.6.4.7 1.1 1.5 1.6 2zM32.5 12.6c1.5-1.4-1.1-2.6-2.1-3.4-.3.9 0 1.7.5 2.5.4.7.8 1.7 1.6.9zM69 33.7c1 .4 1.8.4 2.2-.8.2-.7.3-1.1-.4-1.4-.4-.2-1.1-.5-1.5-.5-.5 0-.4 0-.6.5-.1.3-.3.5-.3.8-.3.8-.1 1.1.6 1.4zM88.4 27.5c.2.3.6.4.9.5l-.4-3.2c-.2.7-.9 2-.5 2.7zM83.8 17.9c-.9 1.4 1 1.8 2 2.1.5.2 1.4.7 2 .5.7-.2.3-1.1.1-1.6-.3-.9-.9-2.9-2-2.9-1 0-1.6 1.1-2.1 1.9zM82.9 26.3c-1.1-.7-2.3-1.1-3.3-1.9-.6-.5-1.3-1.4-2.3-1-.5.2-.8.7-1.2 1-.3.3-.8.5-1 .8-.6.9.3 1.8.9 2.3.7.6 1.6 1 2.5 1.4.6.3 2.2 1.3 2.8 1.2.4-.1 1.1-.8 1.4-1.1.4-.3.7-.7.9-1.2.6-.7 0-1.1-.7-1.5zM71.9 26.2c-.7.3-1.1.8-1.4 1.5-.2.5-.8 1.2-.8 1.7 0 1.1 3.2 1.3 4 1.4 1.4.1 2.6-1.5 1.8-2.8-.8-1.1-2.2-2.3-3.6-1.8zM80.6 23.7c.8.6 1.8 1.4 2.6.4.5-.6 1.1-1.6 1-2.4-.1-.8-1.4-2-2.2-2-1.2-.1-2.6 1.5-3.5 2.1l2.1 1.9zM10.3 40.4c.6-.5.7-1.3.9-2 .1-.5.6-1.2.5-1.8-.1-.6-.7-.6-1.2-.7l-2.8-.4c-.7-.1-.6 0-.6.6l-.2 1.5-.2 1.1c0 .6.1.4.6.6.9.5 2 1.9 3 1.1zM20.1 37.8c.1 1 1.4 1.6 2.1 2.2.8.6 1.6 1.3 2.6 1.4 1.7.1 3.2-1.2 2.4-3-.4-.9-1.7-1.6-2.5-2-.3-.2-.8-.6-1.3-.6s-1.4.6-1.9.8c.5-.8 1.2-1.5.4-2.2l-.6-.5c-.3-.4-.2-.3-.1-.8.2-.7.3-1.1 0-1.8-.4-1-1-2.1-1.8-2.8-.6-.5-2.3-1.7-3.1-1.1-.5.3-.6 1.4-.8 1.9l-.8 2.6c-.4 1.6.5 1.5 1.8 1.4.9-.1 3 .2 3.7 1 .7.9-.2 2.5-.1 3.5zM24.3 16.5c1 0 2-.3 3-.5a7.2 7.2 0 0 0-2.5-3.2c-.4.7-2.6 3.8-.5 3.7zM14.8 24.4c1.1.8 2.1-1.2 2.5-2 .3-.6.8-1.4.3-2-.3-.3-.8-.4-1.1-.5l-.8-.2c-.2.1-.5 1.1-.6 1.4-.7 1.3-1.7 2.3-.3 3.3zM26.8 16.9c-.9.5.1 1.5.4 2.1.4.9 1 1.5 2.1 1.4.5 0 1-.2 1-.7 0-.5-.7-1.3-1-1.7-.6-.9-1.3-1.8-2.5-1.1zM51.2 33.8c-.7-.3-1.3-.7-1.9-1.2-.5-.4-1-1.3-1.6-1.6-1-.6-2.2.5-1.6 1.5.4.7 1 1.3 1.6 1.9.4.5.9 1.2 1.6 1.5.7.3 1.1-.2 1.6-.7l.8-.7c.1-.1-.3-.6-.5-.7z"/><path d="M14.3 35.9l2.4 1.1c.4.2 1.2.7 1.6.5.4-.2.9-1.6 1-2 .2-.6.1-1-.5-1.3-1.1-.4-2.7-.2-3.9-.2-.4 0-1-.1-1.2.3-.4.6.1 1.4.6 1.6zM13.6 42.5c2 .8 4.6 1.8 6.6.7.6-.3 2-1.1 1.8-1.9-.1-.4-.9-.8-1.2-1l-1.5-1c-.9-.5-1.9-1.4-2.9-1.6-.9-.2-1.5.3-2.1.9-.6.6-1.4 1.6-1.6 2.4-.4.9.2 1.3.9 1.5zM12.6 34.1c-.3-.7-1.4-1.4-2.1-1.5-.8-.1-.7.8-.7 1.4.2 1.9 3.2 1.1 2.8.1zM41 28.2c0 .1.1.2 0 0zM43.9 30.5c.7-.4 1.1-.7 1.9-.9.5-.1.9-.4 1.1-.9.2-.5.1-.8-.3-1.1l-1.3-.8-.6.2a1 1 0 0 1-.7-.3c-.4-.3-.9-.8-1.5-.7-1.1.1-1.2 1.5-1.3 2.2l1.4 2.1c.3.6.7.6 1.3.2zM28 29.4c.9.2 1.8.6 2.6 0 1-.7 1.2-2.4 1.3-3.6.1-1 .1-3.9-1.1-4.3-.3-.1-2.2-.1-2.4.2-.3.5.3.8.6.9-.7.8-1.4 1.5-1.8 2.5l-1.1 2.5c-.5 1.3.9 1.5 1.9 1.8z"/><path d="M36.2 31.4c.5.3 1.1.5 1.5.9l.8 1c.3.3.7.2 1 .5.3.4.5 1.3.7 1.7.3.8.6 2.8 1.5 3.2.5.3 1.1-.1 1.6-.2l2-.7c.8-.3 2.4-.6 2-1.8-.2-.5-.6-1-1-1.4l-1.2-1.8c-.7-1.1-1.4-.9-2.5-.6-1.4.4-2.8.1-4.1-.5.6-.3 1.3-.4 1.9-.4.4 0 .9 0 1.1-.5.2-.4 0-.8-.1-1.2-.2-.6-.2-1.3-.8-1.6-.9-.4-2.5.8-3.3 1.3-.6.5-2.5 1.4-1.1 2.1zM39.4 26.6c.5-.5.7-1 .2-1.5-.6-.5-1.4-1.2-2.2-1.4-.9-.2-2 .3-2.8.6-1 .4-1.4.8-1.6 1.9-.1.8-.4 2-.2 2.7.2.7.9 1.5 1.7 1.2l1.1-.8 1.3-.8 2.5-1.9zM32.4 35.1c2.1.6 2.8-1.1 3.8-2.6-1-.4-3.1-2-3.9-.6-.3.7-1.1 2.9.1 3.2zM42.8 19.1l-2.2 1.7c-.5.4-1.8 1-2 1.7-.2.6.6 1 1.1 1.2.6.3 1 .3 1.4-.3l.3-.9.1-1c.1-.2 1.1-.3 1.4-.4l1-.3c1.3-.7.1-2.7-1.1-1.7zM67.1 96.1c2 .3 1.2-3 1.2-4.1 0-.7.2-2-.4-2.6-.5-.5-1.8-.3-2.5-.3-1 0-2.1-.1-3.2 0-.7.1-1 .4-1.1 1-.3 2-.3 4.2-.4 6.2 2.2-.9 4.3-.5 6.4-.2zM40.9 86l2.3-.9c.7-.2 1.6-.4 2.2-.8 1.2-.7-.2-2.5-.6-3.3-.3-.6-.6-1.5-1.1-1.9-.5-.4-1-.2-1.6-.2-1.4 0-2.2-1.4-3-2.3-.6-.8-1.7-2.2-2.6-.9-.4.5-.5 1.2-.7 1.8-.2.7-.5 1.6-.5 2.3 0 1.4 1.6 2.9 2.3 4 .9 1.1 1.6 3 3.3 2.2zM33.8 81.8c-.4-1.8-3.5-.7-3.8.7-.2.8.6 1 1.2.8.5-.1 2.8-.7 2.6-1.5zM32.6 87.5c.3 1.3.8 1.9 2.2 1.6.8-.2 2.2-.5 2.7-1.1.6-.8-.4-1.7-.9-2.2-.7-.8-1.7-2.9-3-2.3-.6.2-1.4.6-1.6 1.3-.1.7.4 1.9.6 2.7zM60.2 100.5c.3-.2.8-.3.8-.8.1-.4-.3-1-.5-1.3-.5-.7-1.5-1.5-2.5-1.5-1.2 0-1.2 1.2-.7 2 .5 1 1.8 1.6 2.9 1.6zM57.7 88.7c1.2-.1 2.3 0 2.5-1.4.2-1.1.6-3-.6-3.7-.7-.4-1.7-.4-2.5-.3-.7 0-2.3 0-2.6.9-.3.8 1 2.4 1.3 3.1.4.8.8 1.8 1.9 1.4zM57.1 93.3c-.3 0-.2 1.7.1 2 .3.3.9.4 1.3.4.5.1 1.1.1 1.4-.4.3-.6.2-1.7.3-2.4 0-.6.3-1.7 0-2.3-.4-.6-1.1-.4-1.6-.4-.6 0-1.3 0-1.6.6-.3.6.1 1.8.1 2.5zM31.8 88.3c-.2-.9-.2-2-.6-2.8l-.5-.6c-.4-.3-.5-.3-1-.2-1.6.2-3 .4-4.5 1 .3.7.6 1.8 1.1 2.4.6.6 1.6.6 2.3.8.9.2 3.6 1.2 3.2-.6zM2.5 76.7c.7-1.2 1.9-3.1-.2-3.4l-.5 3.8c.3 0 .6-.2.7-.4zM8.5 46.6l-2.7-.9-.6 4.8c1.3-.6 2.8-1.1 4-1.9 1.2-.8.3-1.4-.7-2zM3.2 84.7c.9.1 2.6.5 2.6-.8 0-1.5-1.3-3.2-2.4-4-.4-.3-.8-.5-1.2-.3-.8.3-.7 1.2-.7 1.9-.1.8-.5 2-.3 2.8-.1.3-.1.4.3.4l.7.1 1-.1zM7.7 88.8c-.2-.7.6-1.7-.3-2.2-.8-.5-2.4-.4-3.3-.5-.8-.1-2.4-.6-3 .1-.3.4-.8 1.7-.6 2.2.2.6.9 1.4 1.2 1.9.4.6 1 1.1 1.8 1.1.9 0 2.1-.4 3-.7 1-.4 1.4-1 1.2-1.9zM16.1 101.4c.8.3 1.8-.1 2.6-.3.8-.2 1.6-.2 2.1-.9.5-.9-.1-1.9-.4-2.7-.3-.7-.5-2.1-1.4-2.1-.8 0-1.8.5-2.5.7a7 7 0 0 0-2.3 1.5c-.7.7-.3 1.2.2 1.9.4.7.9 1.6 1.7 1.9zM10.8 95.9c.5.5 1.3 1.3 2.1 1.1.7-.1 1.3-1.1 1.8-1.5 1.3-.9 2.9-1.1 4.3-1.9-.5-.7-1-1.8-1.7-2.3-.8-.6-1.9.4-2.6.9l-3 1.8c-.8.4-1.9 1-.9 1.9zM30.9 91.7c.6-.7.3-1.2-.4-1.4l-2.9-.8-1.3-.4c-.5-.2-.5-.2-.9.1-.5.4-.9.8-.7 1.5.3 1.1 1.8 1.7 2.8 1.9 1.2.2 2.5 0 3.4-.9zM44 119.1c-.2-1.1-2.5-.9-2.8 0-.4.9.5.9 1.1.9.3 0 1.2.2 1.4.1.2-.2.3-.8.3-1zM68.9 102.4c.7.1 1.8.3 2.2-.4.4-.8.1-2.5-.3-3.2-.8-1.2-2.8-1-4.1-1l-5.4-.4 1.1 2.4c.3.6.5 1.6 1 2 .6.4 1.6.3 2.3.3l3.2.3zM30.9 18.9c.4.7.9 1.6 1.8 1.4 1-.2 2.1-1.1 2.9-1.7 1-.7 1.6-1.6 2.3-2.5.5-.6 2.4-1.8 2.1-2.7-.2-.8-3-.8-3.7-.9-.9-.1-2.6-.4-1.8 1.1l1.2 1.8c.1.2 1.2 1.4.5 1.4-.2 0-1.1-1-1.3-1.2l-1.4-1.9c-1 .8-2.3 1.6-3 2.7-.6.9-.1 1.7.4 2.5zM47 110.6c-1.9-.5-5.1-.4-5.5-2.9-.1-.4 0-1.1-.2-1.5-.2-.3-.2-.3-.5-.2-.2 0-.5.2-.6.4-.2.4.2.9.2 1.3 0 .5-.3.8-.7 1.1-.4.3-.8.4-.9.9-.2.6.1 1.5.1 2.1 0 .5 0 1 .4 1.4.4.5 1.1.6 1.6 1 .8.7.6 2.3 1.9 2.4 1.1.1 2.8-.2 3.8-.7 1.7-.9 3-4.6.4-5.3zM69 106.1c-.1-1-.1-2.4-1.2-2.7-1.2-.4-3.7-.4-3.7 1.2.1 1.6.6 3.6 2.5 3.9.7.1 1.6-.1 2.1-.6s.3-1.2.3-1.8zM93.5 74.8c-.5.8-1.1 1.7-.3 2.5.9.9 2.1 1.6 3.1 2.3l-.3-2.4c-.1-.8 0-2-.4-2.7-.1-.3-.8-.8-1.2-.7-.4.1-.7.7-.9 1zM55.1 27.5c-.1 0 .1.1 0 0zM54.3 16.3c.2-.5-.1-1.5-.4-1.9-.4-.5-1-.4-1.4 0-1 .9.1 2.6.6 3.5.3-.6.9-1 1.2-1.6zM55.1 27.6c-1.2-.6-2.4-1.3-3.7-1.8-.6-.3-1.8-.3-1.5.8.3.9 1.8 1 2.6 1.2 1 .3 1.9.7 2.3 1.7.7-.5.6-1.3.3-1.9z"/><path d="M58.5 26.7c0-.9.6-2.2 0-3-.5-.7-1.6-.7-2.3-.9-.6-.2-1.5-.8-2.2-.7-.6.1-.9 1-1.2 1.5-.3.5-.9 1.3-.5 1.8.4.6 1.5.6 2.1 1 .4.3.4.6.7 1 .2.2.1.3.6.3l.8.1c.9 0 2 .1 2-1.1zM80.3 17.2c.5.3 1.1 1.1 1.7 1.1.6 0 1-.9 1.3-1.3l.9-1.9.5-1.2c0-.2-.7-.6-.8-.8-.1-.1-.7-.7-.9-.7-.2 0-.8.8-1 .9L80.2 15c-.3.3-1 .8-1 1.3 0 .4.7.7 1.1.9zM48.5 30.6l2 1.7c.5.4 1.1 1.1 1.8 1 .7-.1.9-.9 1.3-1.5l1.2-2.3-2.8-1c-.7-.2-1.6-.8-2.3-.8-1.1.1-2.1 2.1-1.2 2.9z"/><path d="M54.8 29.5c-.1 0 0 .1 0 0zM40.4 17.9c.5.5 1.2 1 1.9.6l.9-.9c.2-.5 0-.4-.4-.8l-.8-.6c-.4-.3-1.1-1.1-1.5-1-.3.1-.8.7-.9 1-.4.7.3 1.2.8 1.7zM36.1 11.7c-.1-.6-.2-2.7-.9-2.6l-.7.4-.8.4c-.5.4-.3 1.4.2 1.7.7.4 1.5-.1 2.2.1z"/><path d="M46.6 14.5c-.2-1.1-2.3-1.2-3.1-1.3-.7-.1-1.2-.2-1.8.2-.6.5-.8.9-.3 1.5l1.3 1.7c.2.3.4.6.7.6.3 0 .7-.3 1-.4 1.2-.5 2.4-.9 2.2-2.3zM43.3 17.2c0 .1 0 .1 0 0zM48 20.8l-2.7.9c-.8.2-1.6.3-2.2.9-.4.4-1 1.5-.8 2.1.1.5.9.8 1.4 1l2.7 1c.6.3 1.2.6 1.7-.1 1.2-1.5-.4-2.8-1.3-3.8 1.5-.2 1.5-.2 1.2-2zM51.3 20.2c-.5 0-1.5.3-1.9.6-.5.3-.6.8-.7 1.3-.1.8-.2 1.5.6 2 .3.2 1.2.6 1.5.5.5-.1 1.1-1.5 1.4-2 .7-1.3.9-2.6-.9-2.4zM45 12.9c.5.1.7 0 .9-.5.3-.6-.1-.9-.4-1.4-.5-.5-1.5-2-2.4-1.6-.6.2-1.3 1.7-1.1 2.3.2.9 2.3 1 3 1.2zM39.5 7.3l2 .7c.5.2 1.2.5 1.7.3.2-.1.3 0 .3-.3 0-.2-.3-.3-.4-.5L42 6.4c-.6-.7-1.4-.9-2.3-.7-.9.3-1.2 1.2-.2 1.6zM87.3 104.1c-.7.7-1.2 1.5-.8 2.5.5 1.2 1.4 2.2 2 3.3a25 25 0 0 0 4.4-4.2l-3.1-1.5c-.8-.6-1.6-1-2.5-.1zM33.9 117.7c.1-1.7-1.1-1.2-2.3-1.5-.5-.1-1.1-.4-1.6-.1-.7.3-1 1.3-1.2 2l3.5.7c.4.1 1.3.4 1.5.1.2-.2 0-.9.1-1.2zM24.5 57.3c-.7-1.1-1.5-1.3-2.8-.9-1.2.4-1 2-.5 2.8.5.8 1.6 2.2 2.6 2.2.8 0 1.5-.9 1.6-1.7.2-.8-.5-1.6-.9-2.4zM21.8 9.7c-.4 1.2.8 1.3 1.7 1.5.5.1.9.1 1.3-.4l.7-1.4c.6-1.1.6-2-.7-2.4-.6-.2-1.5.3-2 .6-.6.5-.7 1.3-1 2.1zM73.2 24.6l3.2-2.5c.7-.6 2.2-1.5 1.9-2.6-.3-1.1-1.7-1.5-2.6-1.9-.4-.2-1.4-1-1.8-.9-.4 0-1 .8-1.4 1-.8.3-1.7.3-2.1 1.2-.4.8-.2 1.8-.3 2.7-.1 1-.3 2.2.5 3 .8.6 1.8.5 2.6 0zM78.4 11.4c.2.6.9 2.2 1.6 2.3.8.1 1.9-1.4 2.4-1.8l-1.7-1.2c-.4-.3-1.3-1-1.8-1-1-.1-.7 1.1-.5 1.7zM73.8 13.3c.4.3 1.1.2 1.5.3 0 .4-.3.9-.1 1.3.2.4 1.1.7 1.5.9.6.3.9.7 1.5.2.4-.3.5-.8.6-1.2 0-.7-.5-2.6-1.4-2.6-.3 0-.6.3-.8.5l-1.2.8 1.2-1.7c.3-.3.7-.8.7-1.2 0-.9-1.3-1.2-2-1.4-.4-.1-1-.3-1.4-.1-.4.2-.9 1-1.2 1.4-.6 1.2.3 2 1.1 2.8zM76 8.7l.5-.2-3.3-1.4c.7 1 1.9 1.8 2.8 1.6zM32.9 3.4c.8-.4 1 .3 1.6.6.7.5 1.8.7 2.7 1a4.8 4.8 0 0 0-.2-2.4c-.2-.5-.1-.4-.6-.4-1.2.1-2.5.7-3.6 1.1l.1.1zM69.3 8.2c.4.6 1.2 2.6 2.1 2.4.7-.1 1.3-1.3 1.4-1.9.1-.5-.1-.7-.3-1.1-.4-.7-.6-1-1.3-1.2-.7-.2-1.1-.2-1.7.4-.4.4-.5.8-.2 1.4zM32.6 9.7c.8-.2 1.4-.7 2.2-1.1.7-.3 2-.5 2.5-1 .6-.8-.1-1.6-.8-1.9l-2.6-.9c-1.2-.5-2.2-.3-3 .8-.3.4-1 1.3-.9 1.9.1.4 1.1.9 1.4 1.2l1.2 1zM61.1 53.4c-1-.6-2.1-1.3-3.2-1.6-1-.3-1.6.6-2.5 1-.8.3-1.3.4-1.5 1.3-.1.6-.3 1.9-.2 2.4.2.8 1.6 1.1 2.2 1.3.8.3 1.9.9 2.7.5.8-.4 1.3-1.8 1.8-2.6.3-.3 1.5-1.8.7-2.3zM62.3 61.1c.6-.7 1.3-1.2 2.1-1.6.7-.4 1.8-.6 2.2-1.3.3-.4.1-.7-.1-1.2l-.3-1.1c-.2-.6-.6-1.5-1.2-1.7-1.4-.3-2.8 2.5-3.3 3.5-.5.9-1 1.6-.7 2.6.2.4.9 1.4 1.3.8zM53.2 47.7zM56.9 59.8c0 1-.6 3.3.3 3.9.8.5 2 0 2.3-.8.3-.7.1-1.8-.4-2.5-.4-.6-1.5-.5-2.2-.6zM48 51.5c.2-1-2.4-2-3-2.3l-.6-.3c-.2-.3-.4-.2-.6.1l-.7.8c-.4.4-.9 1-1 1.6-.2 1.2 2 1.2 2.7 1.3.6 0 1.8.3 2.3.1.5-.2.7-.8.9-1.3zM38.3 56.7c-.4-.3-1.9 2.5-2 2.8-.4.8-.8 1.8-.9 2.7-.2 1.5 2 1.2 2.9 1.2.4 0 1.2.1 1.5-.2.4-.3.2-.9.2-1.4l-.4-2.9c-.1-1-.4-1.5-1.3-2.2zM50.1 64.4c.7.6 1.2 1.9 2.3 1.5.9-.3 2.2-1.2 2.9-1.8l.9-1.1c.2-.5-.1-1.2-.2-1.8-.2-.8-.2-2-1-2.5-.5-.3-1.7-.6-2.3-.5-.5.1-1.6 1.5-2 .8-.4-.5.6-1.2.2-1.7-.2-.2-.7-.1-.9-.2-.7-.2-1.1-.1-1.8.1.1.3.1.8.3 1 .2.2.7.2.9.4.4.4.2 1-.1 1.4-.4.7-.9 1.4-.7 2.3.1.9.9 1.5 1.5 2.1zM42.4 48.3l-2.9-2.4c-.5-.4-1.7-1.7-2.5-1.5-.7.2-.7 1.8-.8 2.4-.1 1-.5 2.3-.3 3.3.2.9 1 1.5 1.5 2.2.4.6.4 1.6 1.4 1.3.4-.1.9-1 1.2-1.3l1.2-1.4c.3-.5 2-1.9 1.2-2.6zM52.8 43.8c-.6-.1-1.7.6-1.8 1.1-.2.7.7 1.6 1.1 2 .2.1.8.8 1 .7.2-.1.7-1.4.8-1.6.4-.8-.1-2-1.1-2.2zM10.9 59.1c1.8-2.1.9-5 .5-7.4-.1-.7-.4-3.2-1.6-2.3-1 .7-1.7 1.3-2.9 1.8-1.1.4-1.7.7-1.4 2 .2 1 .5 2 .9 2.9.5 1.2 3 4.8 4.5 3zM59.3 49.8c.4-.5.9-1.6.8-2.2-.1-.6-.7-.8-1.3-1l-2.3-.8c-.6-.2-1.1-.3-1.6.2l-.6.8-.9.8c-.2.3-.3.3.1.7.3.3.9.4 1.2.6l2.5 1c.7.2 1.5.7 2.1-.1zM6.7 79.1c-.9.9.1 1.8.3 2.8.1.5.1 1.2.3 1.7.2.4.8.8 1.2 1 1 .5 2 .3 2.9-.4 1-.7 2.1-1.6 3-2.5.4-.4.7-.7.6-1.2 0-.4-.3-1-.5-1.4-.5-1-1.2-1.2-2.1-1.7-.8-.4-1.9-1.7-2.8-1.2-.5.2-.9.8-1.2 1.2l-1.7 1.7zM9 87.4c-.2 1 .7.9 1.4 1 .7.1 1.6.7 1.9-.2.3-.8-.3-2.1-1.2-2.2-.6-.1-1.9.8-2.1 1.4zM23.1 31.9c-.4.9-.7 1.7.1 2.4a3 3 0 0 0 1.5.7c.3.2.4.1.5-.2l.3-.7.6-1.4c.2-.4.6-1 .6-1.4.3-.3.2-.4-.1-.5l-.5-.3-1.4-.5c-.9.1-1.3 1.2-1.6 1.9zM9.5 45.9c.4-.8 1.7-2.5.9-3.4a5 5 0 0 0-1.6-.9l-2.3-1.1-.3 2.1c-.1.4-.4 1.7-.2 1.9.3.3 1.1.4 1.5.6l2 .8zM27.4 36.3c.7.3 1.9.9 2.6.6.8-.4.7-1.6.8-2.3.2-1.2 1-3.1-.8-3.3-.5 0-1.3-.1-1.8.1s-.7 1-.9 1.4c-.3.7-1 1.5-1 2.3-.1.6.6.9 1.1 1.2zM55.1 51.9l1.2-1.2c-1.4-.9-3.7-2.3-5-.6-.6.8-.2 1.3.7 1.6.8.1 2.4.8 3.1.2zM40.8 44.3c.5.4 1.1 1.1 1.7.9.7-.2 1.3-1 1.8-1.4.6-.4 1.6-.8 1.3-1.7-.1-.4-.5-1.6-.9-1.9-.6-.3-1.9.1-2.6.2-.8.1-1.7.1-2.4.3-.8.2-1 .8-.8 1.5.4 1.1 1.1 1.4 1.9 2.1zM49 44.6c-.4-.5-.9-1.3-1.7-1.3-.7 0-1.6.9-2.1 1.4-.5.4-1.9 1.1-1.8 1.9 0 .7 1.2 1.3 1.7 1.6.6.4 1.3 1.1 2 1.1l1.1-.1c.3-.1.7-.9.9-1.1 1-1.4.9-2.2-.1-3.5zM48.3 49.3s0-.1 0 0c-.1 0-.1 0 0 0zM35.7 36.7c0 1.3.3 2.5 1.6 2.9.8.2 3.5.6 3.3-.8-.1-.9-.8-1.8-1.1-2.6-.3-.7-.6-1.6-1.2-2.1-1.4-1.3-2.5 1.6-2.6 2.6zM25.9 61.6c-.7 1.1 0 1.5 1 2.1 1.2.7 1.6.3 2.7-.2-.6-.9-1.1-2-1.9-2.7-.9-.8-1.4.1-1.8.8zM23.4 67.1c.7.5 3-1.8 3.5-2.2-.8-.9-1.8-1.6-2.8-.5-.4.6-1.5 2.1-.7 2.7zM34.3 57.9c1.2.1 3-1.5 2.1-2.7-.3-.4-1-.6-1.4-.8-.7-.4-1.6-.6-2.4-.7-.7-.1-1.8.1-2.1.8-.2.5-.1 1.3-.1 1.9v.6c-.1.3.1.4.4.3l.7.1 2.8.5zM50.3 50.4c.4-.4 2.2-3.1.6-3.1-.5 0-.9.7-1.2 1.1-.4.5-.8.9-1.4.9.3.5 1.3 1.9 2 1.1zM45.9 68.2c1.7-.8 3.5-1.9 1.8-3.7-.4-.4-.7-.8-1.2-.8-.6-.1-1.1.1-1.3.7-.4.9.4 2.8.7 3.8zM47.3 60.3c.3-.7.3-1-.4-1.3l-3-1c-.6-.2-2-1-2.7-.8-.7.2-.3 1.5-.2 1.9.2 1 .2 2.1.5 3.1.3.8 1 .9 1.8.8 1.5-.1 3.4-1.2 4-2.7zM50 56.4l2.1.3c.6.1.7.2.8-.5l.2-1.2c.1-.5.3-1.4-.2-1.9-.4-.4-1.5-.5-2-.7-1.4-.3-2.1 0-2.1 1.5-.1 1.2-.2 2.3 1.2 2.5zM48.9 42.4c-.3.8 1.3 1.8 1.9 1.5.4-.2 1.1-.8 1.1-1.2 0-.7-1.2-1.5-1.6-2-.5.5-1.2 1-1.4 1.7zM47.8 38.5c-.8.3-1.9.8-1.6 1.8.2.7.7 1.7 1.5 1.4.5-.1.9-.6 1.3-.9.5-.4 1-.6.9-1.3a1.6 1.6 0 0 0-2.1-1zM32.4 77.5c-.5-.3-2-1-2.6-.5-.7.6 0 1.8.3 2.3.6.9 1.4 1 2.4.4 1.2-.5.9-1.6-.1-2.2zM41.5 56.1l3 1.2c.6.2 1.6.9 2.2.2.5-.6.7-3-.1-3.6-.5-.3-1.4-.2-1.9-.2a6 6 0 0 1-2.7-.5c-1.8-.9-2 2.1-.5 2.9zM62.6 73.6c-1.1-.1-1.5 0-1.8 1-.3 1.3-.6 3.1.6 4 .7.5 1.2-.1 1.6-.7l1.4-1.9c.4-.6.4-1 0-1.6-.5-.6-1-1-1.8-.8zM23.6 99.9c1 .6 2.2-2.9 2.5-3.5l-2.3.4c-.5.1-1.4.1-1.8.5-1.1 1.1.9 2.2 1.6 2.6zM22.9 96l1.5-.2c.4 0 .8.1 1.3-.1.3-.2.6-.4.7-.7.3-.5.4-.7.1-1.1-.8-.9-1.9-1.6-2.7-2.4-.6-.6-1.7-2.1-2.6-2.2-.5 0-.9.4-1.2.7-.3.2-.8.4-1 .8-.3.8.7 1.9 1.1 2.5.4.8.7 1.9 1.3 2.6.3.5.9.3 1.5.1zM33.7 75.7c.4-.8 1.1-1.9 1.2-2.8.1-.4.1-.3-.3-.7l-.5-.4-1.2-1c-.7-.6-1.3-1.1-2.3-.8-1.1.4-2.1 1-3.1 1.6-.5.3-2.1.8-2 1.5.1.7 2 1.1 2.5 1.3l3.2 1.2c.6.1 2.1 1 2.5.1zM7.6 98.5c-1 .4-1.7.6-1.8 1.8-.1 1.1.3 1.8 1.5 2 .4.1.8.2 1.1-.1.4-.3.4-.9.3-1.3-.1-.3-.4-2.8-1.1-2.4zM49.4 95.9c-.2.9-.7 2.3-.3 3.2.3.8 1.4.9 2.2.7.9-.2 1.6-1.4 1.2-2.3-.4-.9-2.3-1.3-3.1-1.6zM9.4 94.4l2.7-1.9c.8-.5 1.7-1 .9-1.9-.7-.9-3.5-2.2-4.3-1-.4.7-.5 1.1-1.4 1.5l-1.1.4c-.1.2.1 1.1.2 1.3.3 1.8 1.4 2.8 3 1.6zM55.9 94.6c.1-.6.4-1.3.3-2 0-.8-.5-1.7-.7-2.4l-1.1-2.4c-.3-.6-.6-1.5-1.3-1.6-.7-.1-1.7.3-2.3.5l-2.7.7c-.9.2-3.5.6-3.8 1.6-.2.5.3 1.2.4 1.7.2.7.5 1.3.9 1.9 1 1.2 2.8 1.6 4.2 2.1 1.4.5 2.9 1.4 4.4 1.5 1.2.3 1.6-.5 1.7-1.6zM72.2 81.8c1.4.2 2.8.3 4.2.2.7-.1 2.5-.1 2.8-.9.3-.8-1.2-1.9-1.6-2.4-1-1-2-1.4-3.3-1.5l-2-.1c-.5 0-1.1-.2-1.6 0-1 .4-.6 1.7-.6 2.5 0 .5-.1 1.3.3 1.7.3.4 1.2.4 1.8.5zM26.5 107.2c-.4-.7-.8-1.5-1-2.3l-.1-1.3c0-.4.3-.8.2-1.2-.1-.6-.8-1-1.3-.5-.4.4-.2 1-.2 1.5.1.5.2 1.1-.1 1.5-.3.3-.4.2-.4.6 0 .3.4.8.5 1.1.3.6.8 1.8 1.6 1.8.7 0 1.1-.6.8-1.2zM66.9 39.8c.2-.2.2-.9.1-1.1-.2-.5-.6-.6-1.1-.8-.6-.3-1.8-1-1.9.1-.1.4.2.9.2 1.3V41c0 1.2.1 2.3.5 3.4.2.4.4 1.3.9 1.4.5.1 1.6-.7 1.8-1.1.2-.4.1-.2-.1-.5l-.5-.5-.7-1.1c-.3-1.2.2-2.1.8-2.8zM67.7 44.3s0 .1 0 0zM70.6 36.2c0-1.2-1.4-1.8-2.5-1.9-.8-.1-2.5 1.1-2.4 2.1.1.9 2.3 1.4 3 1.5.5.1 1.2.4 1.6 0 .6-.4.3-1.1.3-1.7zM63 80.2c.2.7 1.4.3 1.8.3.7 0 1.3.2 2 .3 1.2.2 1.2-.5 1.2-1.5 0-.7.2-1.6-.2-2.2a2 2 0 0 0-1.8-.7c-.8.1-1.2 1-1.7 1.5s-1.5 1.4-1.3 2.3zM87 28.1c-1.2-.6-1.7.6-1.9 1.6-.2 1 .1 1.8.8 2.5l1.5 1.1.8.5-.4.8c-.5.9-1.4 2.1-.1 2.7.5.2 1.1.3 1.7.3.3 0 .7 0 1-.2.4-.3.3-.3.2-.8l-.1-.9-.6-.4a2 2 0 0 1-.5-1c-.1-.5.1-1 .2-1.5a4 4 0 0 0 .1-2.2c0-.3 0-.8-.2-1.1-.2-.4 0-.3-.4-.5l-2.1-.9z"/><path d="M71.1 43.6c.5-.1 1-.1 1.1-.7.1-.7-.5-1.7-.8-2.4-.2-.7-.3-1.1-1.1-1.3-.5-.1-1.3-.2-1.8 0-1 .3-1.7 2.2-1.6 3.1.1.5.4.9.6 1.3.2.6.1.6.8.5 1 0 1.9-.4 2.8-.5zM57.2 33.2c.9-.8-1-2.4-1.5-3-.4.7-2 2.5-1.2 3.2.6.5 2.1.3 2.7-.2zM8.7 33.9l-.8-3.8-.5 3.8c-.1.4-.2.5.1.6l.6.1c.4 0 .7-.2.6-.7zM20.2 20.9c-2.3-.3-2 3.4-1.2 4.7.6 1 1.5 1.2 2.6 1.5 1.2.2 2.1.9 2.9-.5.6-1.2 1.3-2.5 1.6-3.8.1-.6.2-1.3.1-1.9-.2-.9-.7-1.4-1-2.1-.2-.4-.1-.9-.5-1.2-.5-.5-1.7-.7-2.3-.9-.7-.2-1-.4-1.4.2-.5.6-.7 1.3-.8 2.1l-.1.6.7.1h1.4l1.1-.4c.3-.1.9-.6.9 0 0 .5-1.2 1.1-1.6 1.3-.8.3-1.6.4-2.4.3zM63.1 39.7c-.2-1.5-1.3-1.5-2.5-1l-4.2 1.8c-.7.3-2.8.8-2.6 1.8.1.9 1.3 1.9 2 2.3.6.3 1.2.3 1.8.5l2 .7c.8.3 2.2 1 3.1.6.8-.4.7-1.4.6-2.1-.1-.7-.3-1.5-.2-2.3v-2.3zM32.6 21c-.2 1.2-.4 3.2 1.4 2.7 1.1-.3 2.2-1 3.1-1.6l1.5-.9c.5-.3 1.3-.7 1.7-1.2.3-.5.1-.9-.3-1.3-.3-.4-.9-1.1-1.4-1.2-.6-.1-1 .4-1.4.7l-1.5 1.2c-.9.7-2.1 1.2-1.5 2.4.1.1.4.6.3.8-.2.4-.5-.1-.6-.2L32.6 21zM52.2 35.7c-.6.7-1.7.9-2.3 1.6-.4.5 0 .9.3 1.4.5.7 1.3 2.1 2.3 2.2 1 .1 2.5-1.1 3.4-1.5.9-.5 2.4-1 3-1.9.3-.5.1-.4-.1-.9l-.4-.8c-.2-.3-.5-1-.9-1.1-.4-.1-.9.2-1.3.3-.6.1-.8.1-1.4-.1-1.2-.5-1.9 0-2.6.8zM65 11.4l-.3 1.6c.1.4.7.8 1 1l3.7 1.9c1.1.6 2.2.5 3.3-.2 1-.6.7-1.2 0-2-.8-.9-1.6-1.7-2.3-2.7-.6-.8-.9-2.3-2-2.5-2.1-.3-3.2 1.2-3.4 2.9zM58.2 8.7c-.3 1.1-.8 2.5 0 3.5.4.5.9.8 1.4 1.1.5.3 1.7 1.2 2.3 1 .7-.3.7-1.7.8-2.3.2-.9.6-2.1.3-3-.3-1-1.1-1.3-2.1-1.2-.6.1-2.5.3-2.7.9zM58.6 2.3c.9.2 1.3.4 2.1 0l-5.1-.8c.8.7 2 .5 3 .8zM62.9 6.9c.5.7 1.2.5 1.9.3.6-.2 1.4-.2 2-.5.5-.3.8-.7.9-1.3.2-.7-.4-.8-.9-1.2-1.3-.7-3.1-1.5-4.5-1.7-.6-.1-.4.1-.5.7l.1 1.3c.1.9.5 1.7 1 2.4z"/><path d="M54.4 7.8c.9.8 1.7 1.7 2.9 2l.3-2.9.2-1.4c.1-.5-.1-.7.5-.7 0 1.1-.1 2.2 1.3 2 .4 0 1.2 0 1.5-.3.3-.2.2-.3.1-.7-.1-.7-.2-1.6-.6-2.2-.5-.8-1.5-.6-2.2-.3-1 .4-1.8.1-2.8-.2-.9-.3-1.4-.2-2.1.5-.4.5-1.1 1.1-.9 1.8.3.8 1.3 1.9 1.8 2.4zM49.4 8.5c.2.4.3 1.1.8 1.2.6.1 1.6-.8 1.9-1.2.4-.4.9-.8.8-1.4-.1-.4-.6-.9-1-1.2-.8-.7-1.8-1.2-2.8-.6-1.1.7-.1 2.3.3 3.2zM49.4 3.5c.5 2.8 3.8-1.6 4.5-2.2L50 1c-.6 0-.9.2-.9.9l.3 1.6zM46.7 4.9c.8.9 1.5 0 2-.6-.7-.3-.4-1.9-.5-2.6-.1-.4-.1-.5-.4-.7h-1.3c-.6.2-.9 1.2-.9 1.8.1.8.6 1.5 1.1 2.1zM90.5 90c-.7.9-1 1.7-.3 2.7l2.5 3.1c.5.6 1.4 2.4 2.4 2.3.9 0 1.9-1.7 2.4-2.3.6-.7.5-1.1.4-2l-.1-1.5-.1-.9-.9-.3c-1.2-.5-2.5-.9-3.7-1.5-1.1-.5-1.8-.7-2.6.4zM84.5 108c-1.1 1-2.4 2.1-3.3 3.4-.5.8 0 1.1.6 1.6.1.1.6.6.8.6l1.1-.6c.7-.4 1.3-.7 1.9-1.2l.8-.5c.4-.2.7-.4.7-.7a7 7 0 0 0-1.4-2.1c-.1-.3-.7-.9-1.2-.5zM96.9 89.7l.7.3-.3-2.7c-.6.7-1.7 1.8-.4 2.4zM90.6 103.2c.8.5 1.7 1.2 2.7.7l1.3-1.1c.6-.6.6-1.1.1-1.7l-1.8-2c-.4-.4-.3-.6-.8-.3l-.9 1c-.6.8-2 2.6-.6 3.4zM65.8 117.8c.2-1.3 0-2.7.6-3.9.3-.6 1-1 .7-1.7-.2-.6-.8-1-1.2-1.4-.5-.5-1-1.3-1.8-1.3-.6 0-1.4.4-2 .6a8.4 8.4 0 0 0-3.4 2.5l-1.5 1.8c-.4.5-1.1 1.1-1.3 1.8-.3 1.2.7 2.3 1.6 3 .5.4 1 .7 1.6.7l2.7-.3c.9-.1 1.6-.2 2.4-.7.4-.2 1.5-.6 1.6-1.1zM76.6 111.1l-1.3 2.8c-.4.9-.5 1.4.4 2 .4.3.6.5 1.1.4l1.6-.6 3.1-1.3c-1.6-1.4-3.3-2.3-4.9-3.3zM49.7 109.8c0 .1 0 0 0 0zM56.3 109.9c-.7-.7-1.5-1.6-2.6-1.5-1.3.1-2.7 1-4 1.4.4 1.1.7 2.8 1.7 3.5a5 5 0 0 0 2.9.7c1.2-.1 1.8-1.1 2.4-2.1.7-.9.4-1.3-.4-2zM74.6 110.3c-1.7-.6-3.5-1.4-5.3-.8-2.2.6-.3 2.3.5 3.4.9 1.1 1.9 2.8 3.6 1.8.7-.4.9-1.4 1.2-2.2.3-.7 1-1.9 0-2.2zM69.6 115c-.7-.3-1.6 0-2.1.5-.7.7-.4 2.3-.4 3.2 1.4-.2 2.7-.6 4-.9-.1-.8-.6-2.4-1.5-2.8z"/><path d="M52.6 108c.7-.2 1-.5.6-1.3-.3-.6-.7-.8-1.3-.3-.7.5-1.3 1.2-1.9 1.8-.2.2-.8.7-.8.9 0 .2.4.5.5.7.6-1.1 1.8-1.5 2.9-1.8zM96.3 100l.2.2 1.1-2.8c-.6.7-2 1.6-1.3 2.6zM49.7 107.3c.9-1.1 2.1-1.9 3.1-2.7.8-.6 1.7-1.8.8-2.7-1-.9-2.9-1-4.2-1.3-.7-.2-2.6-.1-3.1.8-.3.4-.2 1-.5 1.5l-1 1c-1 .6-1.7 1.3-1.4 2.6.2 1.3 1.8 1.5 2.8 1.7 1.4.3 2.5.4 3.5-.9zM54.7 101c.8.1 1.7-1 1.8-1.7.2-1.1-.7-2-1.7-2-2.1.2-2.3 3.5-.1 3.7zM43.5 101l-2 .7c-.5.2-1.4.4-1.8.8-.8.8.4 2 1.2 2.1 1 .1 2.1-.6 2.8-1.4.4-.6 1.2-2.6-.2-2.2zM79.2 103.3c-.3-.3-.5-.6-.9-.8-.4-.2-1.1-.2-1.5-.2-.7 0-1.9-.2-2.5.2-.6.4-.5 1.4-.6 2-.1.9-.4 2.1-.2 3 .3 1.4 2.3 1.7 3.2.8 1.3-1.2 1.9-3.3 2.5-5zM62.6 104.2c-.2-.6-.3-1.5-.8-2-.5-.4-1.3-.4-1.9-.5-.9-.1-2.1-.6-2.8.1-.4.3-.6.9-.8 1.3l-1 1.8c-.8 1.3.6 2.1 1.4 3 .5.5 1 1.2 1.6 1.6.5.4.9.3 1.5 0l2-.9c.5-.2 1.2-.4 1.5-.8.3-.4.2-.9 0-1.4l-.7-2.2zM78 96.7c-1 .4-1.9.9-3 1.2-.8.2-1.3.5-1.2 1.4.2 2.1 2 1.6 3.6 1.6 1.1 0 2.3 0 2.5-1.3.1-1.2-.1-3.7-1.9-2.9zM82.9 91.6c-1.6-1.7-4.4-2.6-5.5-4.7-.6-1-.8-1.8-2.1-1.9l-2.2-.3c-.5-.1-1-.2-1.3.4-.2.5-.1 1.4-.1 2v2.6l.2 4.5c0 .7-.1 1.6.5 2 .6.5 1.8.4 2.4.4.9 0 1.7-.5 2.4-.9l2.4-1.2c1.1-.6 4.6-1.6 3.3-2.9zM69.7 103.6c.1 1.2 0 2.4.2 3.6.2 1 1.2 1.3 2.1.7.7-.5 1.1-2.3.8-3.1-.4-1.2-2-1-3.1-1.2zM48 96.8c.5-1.4-1.1-1.8-2.1-2.2a4 4 0 0 0-3.5.1c-.8.4-2 .2-2.6.8-.9.8-.2 2.6 0 3.6.1.7.1 1.7 1 1.7 1.3-.1 2.7-.9 3.9-1.3.8-.2 2.1-.2 2.8-.8.5-.4.4-1.3.5-1.9zM41.1 89.3c-.5-.8-.9-.8-1.7-.3-.8.5-2 1-2.6 1.7-.6.7-.1 1.4.2 2.2.4.9.5 1.4 1.6 1.4s2.4-.4 3-1.4c.6-1.1.1-2.5-.5-3.6zM31.4 112.7c-1.7.8-3.3.5-5.1.5.3.5.5 1.1 1 1.4.5.3.8.1 1.3.1.6 0 1 .4 1.6.5.6.2 1.3.3 2 .3h1c.5-.1.3-.2.3-.7 0-.6 0-1.3-.3-1.8-.4-1-1.1-.6-1.8-.3zM26.4 104.7c.1.5.1 1.2.3 1.6.2.5.7.7 1 1.1l1.5-4.9c-.6-.2-2-.8-2.6-.3-.6.6-.3 1.9-.2 2.5zM29.1 112.5c.9-.2 3.6-.5 3.6-1.8 0-1.4-3-1.7-4-1.9-1.2-.2-2.7.3-2.4 1.8.3 1.3 1.6 1.8 2.8 1.9zM31.8 98.5c.3-1.1 1-2 .3-3.1-.5-.7-1.5-1.6-2.5-1.6-1.2 0-1.8 1.3-2.2 2.2l-1.5 3c-.6 1.9 2 1.6 3.2 1.6.6 0 1.4.1 1.9-.3.5-.3.6-1.2.8-1.8zM34.3 102.7c.8.3 2.9-.2 3.4-.9.4-.6 0-2-.1-2.7-.1-1-.3-2.1-.7-3-.3-.5-.4-.6-1-.4a2 2 0 0 0-1 .6c-.6.5-.9 1.2-1.2 2-.4 1.4-1.3 3.7.6 4.4zM36 93.3c0-1.3-.7-2.6-2.2-2.5-.9.1-2.5 1-2.2 2.1.2.7 1.4 1.8 2.1 1.9.7.1 2.3-.8 2.3-1.5zM27.8 115.8c-.5-.6-1.1-1.3-1.9-1.2-.4 0-.8.2-1.1.4l-.5.4c-.2.4-.2.3 0 .7.3.5.5.9 1 1.1l1.5.4.7.2c.3-.1.3-.3.4-.6.1-.4.2-1-.1-1.4zM85.5 94l-1.7 1c-.4.2-1 .3-1.4.7-.8.7-.1 2.1 0 2.9.1 1 .3 2 1.3 2.5s2.4.1 3.5.3l1.3.4c.5.1.4.1.6-.4l.5-.9c.5-.8 1.8-2.3 1.4-3.3-.2-.5-.7-1-1.1-1.4-.4-.5-.8-1.1-1.3-1.5-.8-.9-2.1-.9-3.1-.3zM91.5 78.5l-3.6-1.8c-.5-.2-.9-.6-1.4-.4-.5.1-.8.6-1.1 1-.7 1-1.6 2-2.2 3.1-.8 1.2.5 2.1 1.3 2.9.8.8 1.7 2.2 2.7 2.5 1 .3 1.7-.1 2.1-1 .6-1.1 1-2.3 1.5-3.4.5-.7 1.8-2.3.7-2.9zM81.5 102.4c-.9-.7-1.3.4-1.3 1.1l.2 1.3c-.1.5-.7 1.2-1 1.7-.5.8-1.6 1.9-1.7 2.9-.1.8 1.2 1.5 1.8 1.7 1 .4 1.3-.8 1.8-1.5a10 10 0 0 1 2.3-2.3c1-.8 1-1.4.2-2.4a14 14 0 0 0-2.3-2.5zm-1.2 2.4c.1-.2.1-.1 0 0zM93.8 66.5c-.3.9-.7 1.6-1.1 2.4-.2.3-.5.7-.4 1.1.1.4.6.7.9.9.6.5 1.4 1.2 2.2 1.5l-.9-6.7c-.4.1-.6.4-.7.8zM90.9 86.5c-.6 1.2 2.8 2.4 3.5 1.9.7-.5 1.3-1.8 1.8-2.5.3-.5.7-.8.7-1.4l-.2-1.5c-.1-.6-.1-.8-.5-1.2l-1.3-1-.7-.6c-.3-.1-.3 0-.5.2l-.8 1.2c-.8 1.5-1.1 3.3-2 4.9zM12.4 16.1C13 15 14 14.4 15 13.8c1-.5 2.4-1 1.4-2.3a26.1 26.1 0 0 0-4.7 4.7c.2 0 .7.1.7-.1zM18.8 18.8c.3-.6.9-1.7.9-2.4 0-.5-.4-1.1-.7-1.4l-1.1-1.2c-.7-.4-1.3.4-1.8.7-.7.5-3.5 1.9-2.4 3 .3.3 1 .4 1.4.6l1.6.6c.4.2 1.7.9 2.1.1zM11.4 21.7c.6.7 1.3 1.5 2 .5.5-.7 1.5-2.5.7-3.1-.5-.4-1.4-.7-2-.9-.3-.1-.7-.4-1-.4l-.3-.2-.4.7c-.3.6-.9 1.3-.6 1.9.3.5 1.2 1 1.6 1.5zM9.5 30.7l1.3.7 1.5.7c.3-.1.6-1 .7-1.2l.4-1.6c.2-.9.9-2.1.8-3-.1-.8-1-1.4-1.5-1.9a3 3 0 0 0-2.2-.7l-1.2.3c-.6.3-.6.4-.7 1-.2 1.1-.4 2 0 3.1.2.6.3 2.3.9 2.6zM22.8 116.4l1.1.4-.6-.9-.5.5zM14 100.9l-2-1.8c-.5-.4-1.3-1.2-2-1-1.4.4-.3 2.9-.4 3.9 0 .5-.2 1 0 1.5.2.7 1.1.9 1.8.7.8-.2 1.4-1 2.1-1.4.6-.5 1.4-1.1.5-1.9zM12.9 105.2c-.4 1-.4 2.1 0 3.2.2.6.7 1.6 1.6 1.1 1.6-.8-.8-3.7-1.6-4.3zM8.4 106.5c-.6.1-1.3.1-1.7.6l1.7 1.5 1.2-1.6c-.4-.2-.8-.6-1.2-.5zM18.2 110.6c-.9 0-3.6-.6-3.9.6-.1.2 0 .5 0 .8.1.5.1.6.5.9.7.6 1.8.9 2.6 1.3l.7.3c.3.3.4.2.5-.1.3-.2.5-.8.7-1.1.3-.5.6-1.1.7-1.6.3-1-1-1.1-1.8-1.1zM8.5 104c-.8-.6-1.4-.8-2.4-1.1-1-.2-1.9-.5-2.8-1 .8-.4 1.9.2 2-1.1.1-1.5-1.3-.9-2.2-1.2l3-1.4c.3-.2 1-.4 1.2-.8.1-.3-.4-.9-.8-1.1-1.2-.7-3.3.4-3.8 1.6-.3.8-.9 1.8-.8 2.6.1.9 1.1 2 1.6 2.8l1.1 1.4.8.9c.2.1.6-.1.8-.1.5-.1 1.1-.1 1.5-.4.4-.2.5-.7.8-1.1zM24.3 111.2c-.6-.2-1.3-.1-2-.1-.5 0-.8-.1-1.2.3l-.5 1.5c0 .7.5 1 1 1.4l.7.6c.5.4.5.3 1-.1s1.1-.7 1.5-1.2c1-1 .8-2.1-.5-2.4zM24.8 109.1c-.8-1-1.4-2.2-2.4-3.2-.4-.5-1-.7-1.5-1.2-.4-.4-.7-1.1.1-.9l1 .4.7.3.2-.4c.3-.5.5-1.2.5-1.8 0-.9-.5-1.3-1.4-1.2l-1.5.6-.6.3c-.2.2 0 .1-.1.5-.2.5-.2.6-.7.8l-1.8.6c-.6.2-1.5.5-2 .9-.5.5-.2.9.1 1.4.5.9.8 2.7 1.7 3.3.6.4 1.7.4 2.4.4l2.9.3c.9.2 3.7.6 2.4-1.1zM3.1 96.1c-.2 0 .1.1 0 0zM1.3 98.7L3 96.1c-1-.3-1.5-1-2.5-.2-.5.4-.3.7-.2 1.3.3.7.5 1 1 1.5zM.4 90l-.2 2 .6-.3c.4 0 .4-.2.2-.5 0-.3-.4-.9-.6-1.2zM50.3 114.6c-1.1-.1-1.8 1.6-1.3 2.5.3.6 1.4 1.8 2.2 1.8.9-.1 1.9-1.7 2-2.4.4-1.5-1.9-1.9-2.9-1.9zM5.5 94.4c-.2-2.5-2.1-1.9-3.9-1.5l.7 1.6.5 1c.2.4.1.5.6.5 1 0 2.2-.5 2.1-1.6zM37.2 112.5c0-.8.3-2.2-.4-2.8-.5-.4-1.8-.3-2.3 0-.6.4-.6 1.5-.2 2 .4.8 2.1.7 2.9.8zM34.8 108.9c1.3-.7 3.4-1.3 4.3-2.6.8-1.1-.2-2.7-1.5-2.8-1.3-.1-2.1.4-2.6 1.6-.4 1-2 3.3-.2 3.8zM38.3 118.5c-1-.1-2.7-.5-3 .8l5.1.6c-.3-1.3-1.1-1.3-2.1-1.4zM48.7 119c-.7-.3-1.9-.7-2.6-.5-.9.2-1.2.7-1.5 1.6l5.4.1c-.1-.6-.8-.9-1.3-1.2zM33.9 104.2l-2.1-1.5c-.5-.3-.6-.5-1.2-.1a2 2 0 0 0-.6.4c-.5.6-.7 1.6-.9 2.3-.2.6-.3 1.3.1 1.9.6.7 2.7 1.6 3.5.8.5-.4 1.9-3.3 1.2-3.8zM13.1 111.3c-.5-1.3-.9-3.7-2.8-3-.3.1-.9.4-1 .7-.1.3.6.6.9.9a22 22 0 0 0 3.2 2.1l-.3-.7zM21.8 115.7c-.2-.5-.8-.9-1.3-1.1-.7-.3-1-.1-1.5.4l2.7 1.1.1-.4zM35.5 113.3c-.5-.2-.7.7-.7 1 0 .7.2 1.8.6 2.5.6 1 2.5.8 3.6.9.5.1 1.3.2 1.6-.3.4-.6-.5-1.6-.9-1.9a7.8 7.8 0 0 0-4.2-2.2zM68.3 23.8c-.8.1-1.2 1.2-1.2 1.9s1.1 1.3 1.7 1.4c.7.2.8 0 1.1-.6.3-.4.5-.8.3-1.3-.3-.5-1.2-1.5-1.9-1.4zM67.4 20.2c.5.7 1.3.8 1.8.1.3-.5.3-1.1.3-1.7 0-1.9-2.1-2.5-3.5-3.3-.7-.4-1.6-1.2-2.3-.6-.3.2-.4.5-.5.9l-.2.6c0 .3.2.3.5.4 1.6.9 2.9 2.1 3.9 3.6zM60.3 27.7c.5 1.8 2.5.5 3.5-.1.8-.5 3-2.4 2.3-3.5-.3-.6-1.4-.6-2-.8-1-.2-2-.7-3-.7-.4 0-.3-.1-.5.2l-.3.7a7 7 0 0 0 0 4.2zM54.3 8.9c-.8.5-2.6 1.2-3 2.2-.3.8.2 2.3 1.1 2.2l2.2-.6c.6-.2 1.3-.3 1.7-.9.4-.6.3-.7-.2-1.2l-1.8-1.7zM60.4 15.3c-.8-.6-2-1.6-2.9-1.9-.7-.2-2.2.3-2.5 1-.3.7.4 1.6.2 2.4-.2.9-1.5 1.3-1.2 2.3.2.9 1.5 1.3 2.3 1.7l1.8.8c.3.1.5.3.8.2l.6-.5c.8-.7 1-2.1 1.3-3.1.1-1 .6-2.1-.4-2.9zM67.1 21.4a9 9 0 0 0-2.8-3.3c-.5-.3-1.3-.9-1.9-.5-.5.4-.6 1.4-.7 2l-.2 1.3c-.1.8-.2.7.6 1l2.5.7c.5.1 1.5.6 2.1.3.5-.2.7-1 .4-1.5zM50.1 14.8c-1.1.1-2.4-.5-2.3 1.2 0 .9.2 3.7 1.5 3.8.6 0 1.8-.3 2.2-.6.4-.3.1-.9 0-1.4-.1-1.1.2-3.2-1.4-3zM27.7 7c.9-.1 1-.1 1.7-.8L31.1 4c-.8.4-1.7.8-2.4 1.3l-.9.5c-.3.4-.1.9-.1 1.2zM22.4 15.6l1.6-3.4c-.9-.2-1.7-.4-2.6-.3-.6 0-2.2.2-2.5.8-.6 1 2.8 2.5 3.5 2.9zM17.4 11c.6.6 1.7.5 2.4.2 1.1-.5 1.3-1.7 1.5-2.8-1.4.7-2.8 1.5-4 2.5l.1.1zM48.2 11c-.7.3-2 .9-1.2 1.8.5.5 2.2.9 2.8.5.8-.4.8-1.6.3-2.2-.5-.7-1.3-.4-1.9-.1zM50.5 12.6s0-.1 0 0z"/><path d="M50.5 12.7v-.1c-.1 0-.1.1 0 .1zM44.6 7.9c-.6.9.6 1.5 1.1 2 .4.5.7 1 1.4.9.5-.1 1.2-.5 1.6-.9.4-.4.5-.3.3-.8l-.5-1c-.2-.4-.5-1.3-.9-1.5-.7-.5-2.6.7-3 1.3zM37.7 2.3c0 .6.2 2 .6 2.5.4.4.9.4 1.4.3A8 8 0 0 0 44 3c.3-.3.8-.7.6-1.2-.3-.8-1.3-.5-1.9-.5l-2.7.3-1.4.2c-.3 0-.9-.1-.9.5zM44.2 6.7l2-1c-.3-.6-.7-1.9-1.4-2.2-.3-.2-.7.3-1 .5l-1 .6c-.4.4-.8.7-.4 1.4.3.7 1.1 1.1 1.8.7zM36.8 9c-.9 1.3.6 2.7 1.7 3.1.6.2 1.7.6 2.2.1.5-.5.7-1.7.9-2.3.9-2.5-3.8-2.3-4.8-.9z"/></g></g></g><defs><linearGradient id="gradient_#4B4849_#171314" y1="100%" x1="0%" x2="0%" y2="0%"><stop offset="0%" style="stop-color: rgb(23, 19, 20); stop-opacity: 1;"/><stop offset="100%" style="stop-color: rgb(75, 72, 73); stop-opacity: 1;"/></linearGradient></defs></svg>