<svg id="99189956044_technicalArmageddonDust" class="record-detail__icon" viewBox="-1 0 52 62" xmlns="http://www.w3.org/2000/svg"><defs><clipPath id="pot"><path d="M34.9927 3.31021C34.0377 1.87791 29.0583 0.923096 24.4199 0.923096C19.7814 0.923096 16.0844 2.00071 14.3927 3.31021C8.73112 4.94709 5.1841 8.56187 4.63841 11.5628C4.09271 14.5638 0 46.0055 0 48.7337C0 51.4618 4.50198 61.6923 25.3066 61.6923C46.1112 61.6923 49.9311 51.3254 49.9993 48.7337C50.0675 46.142 45.0198 10.7444 45.0198 10.7444C44.2695 5.76553 35.6748 3.37842 34.9927 3.31021Z"/></clipPath><clipPath id="spray"><path transform="translate(5 0)" d="M37.0579 14.6557C35.9063 13.9672 34.7548 13.377 33.4986 12.7869C33.3939 12.7869 33.2893 12.6885 33.2893 12.5902C32.3471 11.0164 31.3003 9.44262 30.0441 7.96721C29.8347 7.67213 29.5207 7.37705 29.3113 7.18033C29.1019 6.98361 28.7879 6.88525 28.4738 6.78689C28.3691 6.78689 28.3691 6.78689 28.2645 6.78689C26.3802 6.78689 24.4959 6.78689 22.6116 6.78689L22.7163 6.68852C22.8209 6.39344 22.9256 6.09836 22.9256 5.80328C22.9256 4.13115 22.9256 2.36066 22.9256 0.688525C22.9256 0.295082 22.7163 0.0983607 22.2975 0C21.9835 0 21.7741 0 21.4601 0C20.9366 0.0983607 20.5179 0 19.9945 0H17.6915C17.5868 0 17.4821 0 17.3774 0C16.5399 0.0983607 15.5978 0.0983607 14.7603 0.196721C14.4463 0.196721 14.2369 0.491803 14.1322 0.688525C14.1322 0.885246 14.1322 0.983607 14.1322 1.18033C14.1322 2.85246 14.1322 4.52459 14.1322 6.19672C14.1322 6.29508 14.1322 6.39344 14.1322 6.4918C14.1322 6.68852 14.2369 6.78689 14.4463 6.88525C12.6667 6.88525 10.9917 6.88525 9.21212 6.88525C8.68871 6.88525 8.26997 7.08197 7.95592 7.37705C6.28099 9.2459 4.92011 11.3115 3.76859 13.4754C3.66391 13.5738 3.55923 13.6721 3.45455 13.7705C2.61708 14.2623 1.67493 14.8525 0.732782 15.3443C0.209366 15.541 0 16.0328 0 16.5246C0 16.623 0 16.7213 0 16.7213C0 28.4262 0 43.9672 0 55.6721C0 55.6721 5.65289 60 19.0523 60C32.4518 60 38 55.7705 38 55.7705V15.7377C37.8953 15.1475 37.4766 14.8525 37.0579 14.6557Z"/></clipPath></defs><g fill="#E8D36F" clip-path="url(#pot)"><rect height="100%" width="100%" fill="#D2AD00"/><g transform="translate(-1 , -1), scale(.6 .6)"><g stroke-width="0"><path d="M80.3 110.2c.4-.4.1-.1 0 0zM85.5 107.5c-1-.3-.3 1.9-1.5 1.5 1.7-4.9-5.1-2.7-6.4-4.5.3.2-1-1.6-.7-2.1.6-.9.9 0 1.1-.2-.6.4 2.1.3 2 .3 2.5-1.2-.2-1.6.5-3 .1-.2 2-.6 2.3-.9-1-.7-2-.9-3.1-.6 4.6-3.1-6-.8-.6.1-.4.1-4 2-4 2-2.6-.2-.7-2.3-2.5-3-.3-.1-1.5 1.8-1.5 1.8-.5 2.6.5 1.5 2.4 3-.5-.3.7 3.3 1.1 3.7-.5 0-.7.2-.8.6.4 1.1 2.3-.8 3.1 0 .4.4-1.7 1.3-.8 2.4.2.3 3.5.4 4.1 1.5.6-.9.5-1.7-.4-2.4 2.6.4.5 3.3 2.6 3.6 1.3.2 5.1-3.3 3.1-3.8zm-7.3-.2c.1 0 .2.2 0 0zM29 93.8c.9-.9 1.7-3.9 3.5-2.4.3-.2.7-.3 1-.5.2-.7-4.5-1.5-4.7-1.4-1.4.6-2.9 4.2-3.5 5.4-4.4 7.9-2.4-1.8-4-1.8-3.3-.1-.4 14.5 4 11 .7-.6.3-2 1.1-2.6.9-.7 1.5 1.7 2.8.2 1.8-2.2-6-1.6-5.7-1.3-.4-.6 3.5-2.6 3.9-3.1 1.7-2 0-2.1.5-4.1.2.3.6.5 1.1.6zm-3 2.4s.1 0 .1-.2c0 .2-.1.2-.1.2zM21.2 111.9c-2.4 2.8 3.4 4.3 4.8 2.7-.6.9.5 1.7 1.5 1 .1-.1 1.6 0 2.2-1.6 1.6-4.1-1.2-.6-2.5-1.2.5.2 1.7-1.5 1.9-1.7-.1 0-.5.1-.8.2 2.8-2.4.5-6.4-2.7-4.8-2.2 1-2.4 4.3-4.4 5.4zm5.9-3.9c.3 0 .2 0 0 0zm.4 1.3c0 .2.1.2.1.2 0 .1-.1 0-.1-.2zM66.5 105.1c.1-.2-.1-.3 0 0zM68.4 107.1c-.1 0-1.8-1.7-2-2.1-.1.2-.5.4-1.6.7.2 0-.9-1.4-1.3-2.1.2-.1.4-.3.6-.4-.7-1.4-1.8 3.3-1.9 3.3-1.1.4-3.2-1.1-3.2-2 0-1.1 2.2-1.5 2.1-2.4-.1-.6-4-1.4-4.5-1.2.5-.2.6 7.3-.1 6.5 1 1.1 2.1-.2 2.1-.3.1.1 3.4 4 2.9 4 1.3.1 3.4-3 3.9-3.4 0 4.3 6.5 3 3-.6zM20 90.1c1.6-2.8-1.5-5.5-1.6-2.5-2.4-.2-1.3 2.4-2.5 2.8-1.9.7-1.5-2.4-3.1-2.4.5-.5 1.7.1 2-.5.6-1.1-1.5-1.2-1.5-1.9.1-.9.6-2.3 1.8-3-1.6 1.1-3.2.7-3.8 3.1-.1.6 0 4.1 1.4 2.5-1 1.2-.2 5 1 5.8.8.6 1.1-.7 2 .1.5-.2.6-.5.1-.8 1.5-.8 3.7-2.2 4.2-3.2zM55 83.7c-.5 1.4-3.4.9-3.8 2-.7 1.9 3.4 2.2 3.3 2.8.2-.6-.4-.7.7-1.1-.1 0 1.1-2.1 1.1-2.3.4 1.1 3.3.5 1.5-.7.4-2.6-2-4-4.2-2.8.4.6.9 1.3 1.4 2.1zM62.2 94.9c-2.4 1.5-.9 2.2-.8 4.9 0 .7 5-2.9 4.8-4.4-.1-1.7-2.8-1.2-4-.5zM90.4 92.8c-2.8-1.4-4.2 3.6-3.4 5.5.3.7 3.3 2.4 3.3.8 0-.7-2-1.4-2-1.3.1-2.1 7.9-2.1 2.1-5z"/><path d="M17.9 101c.2-.2-2.8-2.1-3.2-2.1-.3.1-1.2 6 .8 6.1 1.2.1 4.5-3.8 3.9-5.1-.1-.5-1.5 1.1-1.5 1.1zM83.1 96c-.9-.1.1 4.1 2.2 1.4 1.1-1.4-.1-7.3-2.4-7.1-1.8.2-.8 1.8-.3 3.1 0 .4 1.6 3.7.5 2.6zM35 95.4c-1.2 1.2 1.4 3.9 3.4 4.9-.5-.2-1-.2-1.5.1-1.4 1.1 4.1 1.2 2.6.3.5.1 1.4.2 1.8-.2.2.8.5.8 1 0-.3-.4-.6-.5-.8-.3.5-2-3.3-2.7-4.1-3.4-1.3-1 1.1-3.3-2.4-1.4zM31.2 82.5c-3.7-1.1-2.2 2.9-1 1.5-.5.6-2.6 4.4-1 4.6 3 .3 6.9-4.6 2-6.1zm-.9 1.5zM47.6 112.1c-.2-1.2-1.1-.4-1.6-.4.1 0 1-2.3.9-2.7 2.6 1.2 1.8-2.6-1.4.1-1.4 1.1-1.2 4-3.6 3.9 0 0 2.6 1.8 3.1 1.6-.2 0 2.5-2.7 2.6-2.5z"/><path d="M47.3 95.6c3.7-5-8.7.2-5.7 1.4-2.3.3-.2 1.4 1.1 1.2.7 0 4.2-2 4.6-2.6zM72.9 107.8c1.1-.1-1.3-3.9-2-3.9-2.3-.1-.7 2.5.7 3.4-.4-.2-.8-.3-1.3-.3-.4.5 2 4.7 2.3 4.9.3.1 6.3-.2 6.2-.1.9-1-3-2.9-5.9-4zM72.2 112s0-.1 0 0c0-.1 0-.1 0 0zM47.3 102.4c.1.1 3.1-1.7 3.2-2 .2-.5-1-3.9-1.4-3.7-.4.2-.1 1.1-.9 1.4.3-.1-.1.9-.2 1-.4.3-1.5-.9-1.8-.6-.7.9-.3 3.4 1.1 3.9zM3.7 91.4c2.1-.5-1.1 3.2-1.1 3.5C5 97.1 8 91.7 5.8 90c-1.6-1.2-4.5.8-4.8 2.5-.9 4.7 2.7-1.1 2.7-1.1z"/><path d="M11.2 88.5c-.4-.5-2.9.8-4.2-.5 2 1.9 4.6-1.3 3.2-3.1-1.5-2-3.7 2.7-3.4 3-2.4-1.9-.7 2-.5 2.4.1.2 2.1 3.3 2 3.4.5-.2.6-.6.4-1.1 2.4 1.6 3.5-2.9 2.5-4.1zM10.8 23.7s4.9 2.1 4.9 2.2c1-.6-2.3-5.1-2.3-5-.7-.2-3.9 1.2-3.9 1.1.1.4 1 1.4 1.3 1.7zM33.4 60.2c-.3.5 1.1 7 1.6 7.3 3.3-3.3-1.3-7.8-1.6-7.3zM71.3 88.2c-.6-.2-2.5 1.9-2.6 2.4-.4 2.5.6-.3 1.5 1.3 0 0-4 3.1.2 1.6 2.3-.8 3.7-4.2.9-5.3zM23.5 91.4c.2-3.3-.6-2-3.2-1.7-1.1 1.4 2.9 7.1 3.2 1.7zM65.8 115.3c2.1-1.5-2.9-4.6-4-2-1.4 3.2 5.4 3.4 5.5 2.1-.3-.6-.7-.6-1.5-.1zM16.8 98.7c1.5-1.6-.8-3.2-2-3.4-1.5-.2-4.4.9-2.5 2.6-.1 0 4.6.7 4.5.8zM52.6 113.6c.4 0 .8-.2 1.1-.5-.3-.1-.7-.2-1-.2.2.1.1.3 0 .4-.1-1.3-.6-3.6-1.9-4.3-2.4-1.4-1 1-.9 1.2 0-.1.7.6.7.8.1.4-.6 1.1-.4 1.5.2.6 1.3 4.2 2.4 1.1zM86.5 68.8c-.5-1.7-1.4-4.3-2.6-1.3-1.4 3.4 2.5 3.5 2.6 1.3zM60.6 90.9c.5.3-3.8 1-3.1.7-2.1 1-1.6 2.8.6 2.8 1.3 0 4.5-2.2 2.5-3.5zM48 104.6c5.3-.3.4-.5-.3-1.8-1.6-1.5-5.4 2.1.3 1.8zM92.2 91.9c0-.3 2 2.9 1.6 2.5 1.6 1.4 3.9-1.6 2.8-2.9-.6-.7-4.5-1.1-4.4.4zM19.2 48.5c.4 0-3 4-3 3.9.2 1.2 3.7.6 4.2 0 .4-.5-.2-3.9-1.2-3.9zM11.8 104.3c-.9-1.3-6.7-2-5.8-.7.5.8 5.8 3.2 5.8.7zM34.9 95.4c-.8-4.8-8.2-1.5-4.8 1-.3-.3 4.5-1.2 4.8-1zM66.6 86.7c1-3.8-4.1-2.2-2.2-.1-1.5-.1 1.3 3.3 2.2.1zM21.7 103.9c-.5-4.3-3.3.3-2.9 2 .7 2.7 3.2.4 2.9-2zM94.4 97c-1.5.1-5.4 3.8-2.7 4.6 1.4.4 5-4.8 2.7-4.6zM15.3 35.4c.2 3.2 2.8 2.6 3.1.3.4-2.2-3.4-2.7-3.1-.3zM12.7 61.8c.1-1.1-3.6-3.1-4.2-2.1-.8 1.3 3.5 5.3 4.2 2.1z"/><path d="M51.1 116.6c.4.4 5.5 3.4 5.3 1.1-.1-.9-4.7-4.6-5.3-1.1zM17.3 71.1c-1.1-2.6-3.9-.2-4.3 1.7.7.7 5.1.2 4.3-1.7zM58.4 56.8c-2 2 .8 2 2.8 1.2-1.6 2.8 3.8.2 1-.6 3.4-2.9-4.3-.7-3.8-.6zM26.9 76.5c.1-.7-.1-1.1-.7-1.4-3.3-.5-1 11.9.7 1.4zM30.4 28.3c.1-.2-2.8-1.7-3.1-1.7-1.5 3.3 1.4 4.2 3.1 1.7zM11.2 99.2c1 .9.9 1.5-.1 1.8-.8.2-.9.7-.4 1.3.7.3 1.8.1 2.3-.6 1.5-1.8-1.4-3.9-1.8-2.5zM40.2 108.1c-.6-1.2-4.1-.2-3.8 1.1.8 3.1 3.3-.5 3.8-1.1zM69.2 30.9c.2 2.1 3.8 2.3 4.3.2-.5-1.8-4.3-.3-4.3-.2zM24.6 64.7c.1.5-3.6 2.8.4 2.8 3.2-1.3-.1-1.3-.4-2.8zM38.2 36.1c-.5-3.2-2.1.3-2.5.5.2-.1 1.1 3.7 2.5-.5zM10.8 39.9c-2.8 1.1-.2 2.1-.1 2.9 0-.1 4-2.7.1-2.9zM69.6 105.9zM34.1 110.9c.3.2-2.3 1.2-2.6 2-.3 1.3 2.7-1.4 2.9-1.6 1.5 1.9 3.9 1.5 2-.5-.6-.7-3.6-1.3-2.3.1zM83 103.9c.7.6 3.2-2.8 3.2-3.5-1.6-1.4-4.6 2.2-3.2 3.5zM65.6 60s2.9 2.8 3.1-.6c-2.6-2.6-.7.2-3.1.6zM39.2 114.1c-1.6 1.2 3.9 3.7 3.6.4-.1-1-3.2-.7-3.6-.4zM57.4 31.7c-3.5-7.2-1.5 6.4 0 0zM16.4 109c.5 0 1.9 3.3 3 .2-1.4-2.7-2.1-.2-3-.2zM22.4 52.7c-.1.6-3.4 2.8-.6 3 3.2-.1.6-3.2.6-3zM62.6 75.7c-.4 5.1 6.1-.2 0 0zM16.8 105.4c-1.1.1-2.4.7-2.4 1.8 2.4 2.4 5.1-2 2.4-1.8zM80.7 30.9c1.5 1.6 2.3-.8 3.3-1.4-.7.5-3-1.7-3.3 1.4zM11.1 59c.2-.2-.3-2.2-.6-2.6-1.5-1.7-3.3 2.8.6 2.6zM13.5 77.8c5.4-4.7-5.8-2.4 0 0zM29.2 68.1c-.6.2 1.9 3.5 2-.1-.4-2.1-1.3-.1-2 .1zM9.7 106.1c-3.2-.2 0 3.1 1.5 3 2.3-.1-.6-3-1.5-3zM41.7 113.1c3.3-2.9-5.6-3.1 0 0zM24.3 48.6c.9 0 1.4-.4 1.8-1.2 0-.4-2.3-1.2-2.6-1.1-1.5.4-.4 2.4.8 2.3zM67.6 38.9c1.5 1.4 1-2.3.9-2.6.1.8-2.3-.6-.9 2.6zM34 54c-.2.4 2.9 3.3 3.8.8-.7-.6-3.2-2.1-3.8-.8zM50.9 22.3c-.1-.1-.5-.5 0 0-5.3-5.2-.5 5.9 0 0zM67.7 82c0 3.5 2-.8 2-.8.2-.1-1.4-2-2 .8zM47.1 113c-4.1 1.3 2.1 4.3 2.2 2.7.1-.2-1.9-2.8-2.2-2.7zM34.9 107c-3-2.6-3.7 3.6-1.2.7.6.1.8-.3 1.2-.7zM21.6 71.5c.1 1 1.6.7 2.1.6 3.4-2.5-2.2-2.4-2.1-.6zM83.2 87.5c0 .1 0 .1 0 0zM83.2 87.5c-.4-.1 0 0 0 0zM84.8 87.7l-.3-.3c.8.7-.3-.2 0 0-1.5-.9-1.2 1.7.3 2.3 1.8.7.5-1.5 0-2zM51.3 79.8c.3-2.3-1.9-.9-2.4-2.6-2.3.6 2.3 3.6 2.4 2.6zM33.4 102.6c1.5-.4 2.1-4.8.7-4.2-.4.2-1.5 4.2-.7 4.2z"/><path d="M50.4 75.7c.3 6.1 6.3-2.9 0 0zM57.9 22.5c-5.1 4.5 2.9.3 0 0zM7.3 81.8c4 3.4 3.8-6 0 0zM85.4 104.3c-2.2 2.1.1-.5-.3 1.9-.1 1.2 3.4-2.4.3-1.9zM31.6 100.3c-.7-2.9-1.1 0-1.9.1.3 0 1.7 3.1 1.9-.1zM77.7 92.1c-4.4 4.5 1.5 1.9 0 0zM57.8 99.8c-1.8-4.7-3.4 2.6 0 0zM89.2 101.3c.1-.2-3.6 2-.8 1.9 3.3-.6 1-2.2.8-1.9zM66.4 42.7c.2 0 2.3 1.8 2.2-.3-.6-2.6-2.5.3-2.2.3zM34.6 14.1c0 .3 2.3-4 .1-3.1-1 .4-1.7 3.2-.1 3.1zM20.8 82.3c-.4-1.1-1.5 2.6-.4 3.7 1.2 1 .7-3.1.4-3.7zM57.3 46.9c-2-5.1-2 6 0 0zM93.5 86.8c-.2-.2 1.9 4.8 1.9 2.1-1-3.8-1.5-1.6-1.9-2.1zM56.4 105.1c-.5-4-4.1 4.8 0 0zM92 65.6c-.3-.2 1.9 3.6 2.1 1-.6-2.6-2.2-1-2.1-1zM26.3 24c0 .1 0 .1 0 0zM23.6 24.3c-.3 1.7 2.4 2.7 2.7-.2-.3-.1-2.6-.6-2.7.2zM88.9 88c2.1-.3 1-2.9 1.2-3.2 0 0-3.4 3.1-1.2 3.2zM75.2 91.8c-.8-1.4-2.2-1.8-2 .1.2 1.1 2 1.8 2-.1zM70.9 50.6c-5.5 4 5.8 1.1 0 0zM13.3 110c-.5.6 1 1.6 1.6 1.4-.8.2 1.3-4.9-1.6-1.4zM39.9 105.2c-1-2.3-6.5-3.9-4.4-.4.6.9 4.8 3.1 4.4.6.5.8 1.8 2.9 3 1.6-.7-1.1-1.4-2.6-3-1.8zM28.2 81c5.4.5-1.8-3.5-1.3-.4.2.5.7.7 1.3.4zM29.5 107.7c3.7 3.7 1.3-6.7 0 0zM50.3 36.6c.1-.8-.2-1.3-.8-1.7-3.4 0 1 4.9.8 1.7zM14.8 46.9c-.4-1.8-1.9-.1-2.1-.1-.4 0 1.4 3.6 2.1.1zM15.9 30.7c.1 0 .1-.1 0 0zM16 30.7c-1.8 5.4 6.4-.9 0 0zM47.8.9c-.2-2-2.6.8-2.2.7-.2 0 1.8 2 2.2-.7zM90 68.8c-3.1-.2 4 6.3 0 0zM11.8 18.7c2.9 1.2-1.6-4.2-1.8-.7.5.7 1 .9 1.8.7zM47.2 117.7c.2 0 1.9 2.4 2.6.5-.8-2-2.1-.5-2.6-.5zM51.9 61.3c-4.8 1.5 5.3 2.2 0 0zM23 31c0 1 2.3 1.3 2.6.4.4-1.1-2.2-1.5-2.6-.4zM8.4 100.3c.1 0 2.1 1.2 2.6-1.2-.9-1.9-2.1 1-2.6 1.2zM16.3 95.4c2.7 3.1 3-3 0 0zM58.8 48.7c-.3 0 2.3 1.7 2-.3-.3-2.4-2 .3-2 .3zM58.9 114c-.5.6-1 1.2-1.6 1.8.2 0 4.4-.8 1.6-1.8zM63.3 64.9c.5-.4 2-1.7 1.5-2.4-.9-1.5-1.4 2.4-1.5 2.4zM19.2 44.9c-2.8-3.8-1.8 4.3 0 0zM63 15.1c.1-2.3-2.1 0-2 0-.1-.1 1.8 2.2 2 0zM12.9 59.3c2.1.4-.2-2.4-.2-2.2 0 .6-1.6 1.1.2 2.2zM91.7 89.9c-.1-.6-1.8-.6-2-.3.1-.2-.2.2-.1.1-1.8 2 2.4 1.7 2.1.2zM68.3 47.6c.2-.1 2-1.3 1-1.9-1-.5-2.4 1.9-1 1.9zM78.4 54.1c-2.7-.1.3 2.6.3 1.9-.1-.1 1.6-1.8-.3-1.9z"/><path d="M57.7 22.7c.8-.8-2.4-2.7-2.7-1.6-.5 1.5 2.1 1.5 2.7 1.6zM48.8 56.4c1.6.3.7-2.2.7-2.6-1.3-1.3-1.3 2.5-.7 2.6zM32.7 57.1c.6-.2 1.7.6 1.7-.8-.1-2.8-2.6 1.1-1.7.8zM91.9 103.7c.8-.1 1.3-.5 1.4-1.2 0-1.6-4.2.8-1.4 1.2zM76.8 86.9c.2.2 2.7-.7 2.9-.9.4-1.8-4.5-.3-2.9.9zM54.5 78.6c3.9 4.3-.2-3.2 0 0zM5.5 98.5c-.8 1 4.4 1.2 3.7-2.4.8 2.3 2 1.1 1.8-.8-.2-1.9-3.4-2.2-3.3-.5.3.2.7.4 1 .6-1 1.1-2.1 2-3.2 3.1C6.9 97.1 3.9 96 3 96.8c-1.2 1.1 2.5 1.7 2.5 1.7zM73 15.3c-.1-2.6-1.9.5-1.6.4-.4.1 1.6 2.1 1.6-.4zM83 38.1c.5 0 1.5 1.5 2.1-.1-.1-2.4-2.4.1-2.1.1zM3.9 101.9c.6-.2 1.8 1 2.2-.7-.7-2.3-2.6.8-2.2.7zM51.5 96.7c3.1-3.1-2.5-2.8 0 0zM6.5 101.4c.2-.1 1.5 1.8 1.5-.4-.1-1.9-1.6.5-1.5.4zM54.8 109.5c0 1.2 3.2.6 2.3-1-.6-.5-2.2 0-2.3 1zM50.8 9.4c.9-.4 1.2-1 .8-1.7-.7-.9-3 1.7-.8 1.7zM53.2 102.8c-.1-2.1-1.8 0-1.8 0-.7 0 2 2.4 1.8 0zM86.1 83.2c-2.9-6-.3 3.1 0 0zM76.9 26.5c2.4-.3-.5-1.9-.4-1.8 0 .1-2.5 1.9.4 1.8zM75.9 36.5c1.9 1.7 2.5-1.1 2.2-.9-.5.1-2.8-1-2.2.9zM81.7 65c-.1-.7-.4-1.1-1.1-1.3-1.9.3 1.3 4 1.1 1.3zM65 48.4c0 .7 2.1 1.4 2.3.2-.1-1.3-2.3-1.3-2.3-.2zM48.8 84.3c.7.5 1.2.3 1.5-.7-.2-1.7-2.6-.1-1.5.7zM36.1 87.1c-.2-.7-1.5-1-2.1-1.1-1.6 1.5 2.3 2.2 2.1 1.1zM86.5 46.2c2.9.1 0-1.8 0-1.8 0-.2-2.7 1.7 0 1.8zM12.1 39.4c-.1 0 2.2 1.8 1.7 0-1.3-2.2-.8.1-1.7 0zM86 61.8c.1.4 1.6-1.7-.5-1.4-2.1 1 .4 1.1.5 1.4zM80.1 88.7c-2.8-3.8 0 5.8 0 0zM67.9 39.2c-3.1-2.6 1.8 4.7 0 0zM76.8 83.9c.2-.7-.2-1.2-.7-1.6 1.2.6-1-.8-.1-.1-1.6-.8-1 3.1.8 1.7zM53.5 81.5c-1.1-3.9-1.5 1 0 0zM27.1 17.2v0zM26.3 17.9c.3-.2.5-.4.8-.6-.7-.1-1.5-1-2.3-.8-1.2.3 1.5 1.4 1.5 1.4zM27.9 61.5c.7.5 1.1.3 1.3-.6-.1-1.7-2.3-.4-1.3.6zM71 26.2c-.4-.3-.9-.6-1.3-.9-2.3.1 1.8 3 1.3.9zM87 98.9c-1.6-2.2-1.9 3.6.6.6 2.7 2.6-.5-.6-.6-.6zM47.6 29.3c1.2-.1 1-2 0-2.2-.9-.2-1.2 2 0 2.2zM33.8 97.1c.1-1.6-2.2-.9-2.3.3-.1.6 2.2.2 2.3-.3zM73 113.5c-.8.4-.9 1-.3 1.7 1.6 1.7 1.8-2.5.3-1.7zM56.6 37.7c.6-.3 1-.7 1.2-1.4.2-1.8-3.7 1.2-1.2 1.4zM17.5 17.5c-.6.4-.8.9-.5 1.5.5.6 2.5-1 .5-1.5zM86.1 40.7c1.2-1.1 1.3-2 .5-2.7-.8 0-1.8 2.8-.5 2.7zM7.8 83.5c.6-.5.1-1.2-.4-1.7-1.2 1.6-.5 3.5.4 1.7zM41.3 5.8c2.3.1-.5-2.4-.4-1.6.1.6-1.1 1.1.4 1.6zM5.6 84.2c-.1-.4-.2-.8-.2-1.2.9.4 1.3.2 1.2-.6-.9-1.8-2.8 2.1-1.6 3.1.4-.3.6-.7.6-1.3zM40 9.3c.1.5-.5 1.5.5 1.6 2.5-.5-.6-2.2-.5-1.6z"/><path d="M81.6 89.1c1.1-1.1-.9-1.8-1.8-.7.3.4 1.1 1.3 1.8.7zM33.6 114.3c.2.5.5.8 1.1.7 2.9-.4-1.1-2.6-1.1-.7zM79.1 111.4c-1.9 1.9 5.8.2 0 0zM69.6 55.6c1.8-.5-.8-1.6-1.3-1.6-.4.5.3 1.9 1.3 1.6zM13.8 35.2c.4-.3.8-.6 1.1-1-.3-2.3-2.9 1-1.1 1zM46.2 79.7c.8-.7.7-1.3-.3-1.8-.8.1-.6 1.8.3 1.8zM88.1 103.9c-.3.3-1.6 2.7-.5 2.4.9-.3 1.9-2.2.5-2.4zM55.5 23.2c-.2-1.4-1.9.5-1.8 1 .6.7 1.2.4 1.8-1zM74.7 60.3c.3-.3.6-.5.8-.8 0-1.8-3.1.8-.8.8zM18.4 82c.1-.7-.2-1-.9-1-1.4.1.6 3.3.9 1zM45.7 118c.4-.3.6-.7.6-1.3.7-2.2-2.9 1.5-.6 1.3zM54.4 92.5c-.4-.7-.9-.9-1.6-.6-.4.2.9 2.5 1.6.6zM72.4 70.3c.3.3.7.5 1 .8 1.8-.2-1-2.8-1-.8zM74.1 65c-.3-.2-.6-.4-.9-.7-2.3.4.9 2.2.9.7zM32.2 43c-.4-.2-.7-.5-1.1-.7-2.5 0 1.4 2.7 1.1.7zM24 18.9c-.6-.8-1.1-.8-1.5.1.7 1.1 1.2 1.1 1.5-.1zM39.8 6.2c-1.1-.1-.9 1.8-.5 2.2 1 .9 1.2-2.1.5-2.2zM47 34.1c.3.9.8 1 1.4.3-.2-1.2-.7-1.3-1.4-.3zM67.1 72.7c.4-.4.7-1.4-.2-1.6-1.8-.4-.5 1.3.2 1.6zM22.4 86.8c1 0 1.3-.4.9-1.1-1.1-1-1.6 1.1-.9 1.1zM59.7 97.3c-.5-.5-1-.3-1.4.5.1 1.4 1.7.4 1.4-.5zM50.1 67c-.4-.5-.7-1.1-1.1-1.6-2.3.4 1.4 2.9 1.1 1.6zM81.7 103.8c.4-.7-.4-1.4-.7-1.8-1.5.9.3 2.5.7 1.8zM77.5 18c-.1-.1-1.8-2.5-1.8-1.1 0 .3 1.4 2.4 1.8 1.1zM93.3 77.2c-1 .3-1 .9.1 1.8 1.2.1.5-1.6-.1-1.8zM18.5 111.1c-.4.3-1.6.2-1.1 1.2s2.6-1.6 1.1-1.2zM31 103.5c-.4-.8-.9-1.1-1.6-.9-1.1.5 1.4 2.2 1.6.9zM40.4 58.2c3.2-3.6-2.1.7 0 0zM55 94.5c-.3-1-.8-1.1-1.5-.3.4 1.1.9 1.2 1.5.3zM64.6 80.7c-1-1-2 1-1 1.8 1.4-.1.4-1.2 1-1.8zM57.9 111.3c-.1-.5-.5-.8-1-.9-1.2.1.6 3 1 .9zM13.4 108.4c2.8-3-4.1-.8 0 0zM87.4 77.5c.5.8 1 .6 1.4-.5-.5-1.1-1.5-.4-1.4.5zM71.9 21.7c-.4-1.4-1.8 0-1.4.7.3.5 1.4-.4 1.4-.7zM37 5.7c.8-.3.9-.8.1-1.4-1.1.4-1.1.9-.1 1.4zM81.6 43.5c.1-.3-1.7-1.5-1.8.2.4.4 1.4.6 1.8-.2zM78 21.7c.3-.3.6-.6.9-.8-.1-1.9-2.3.8-.9.8zM60 109.1c.1-.6-1.6-1.1-1.7-.3.2 1.2.8 1.2 1.7.3zM93.1 72.9c.5-.1.7-.4.6-.9.1-1.9-2.3.9-.6.9zM40.5 26.9c-.5 0-.8.2-1 .8-.2 1.6 2.5-.5 1-.8zM15.4 61.3c.2 1.1.6 1.2 1.3.3-.3-.9-.7-1-1.3-.3zM79.1 42.5c-.9-.9-1.3.1-2 .3.2-.1 1.9 1.8 2-.3zM77.1 67.4c-.2-.4-.5-.9-.7-1.3-1.4-1-.1 3.7.7 1.3zM62 93c.4.3.9.6 1.3.9.4-.6.5-1.2.1-1.8-.6-.1-1.1.3-1.4.9zM73.3 29.3c.8-.5.8-1 0-1.5-.7.5-.7 1.1 0 1.5zM25.5 21c.2 2.3 2.8-2.4 1.2-1.2.4-.7-1.5-.2-.2.2-.4.2-1 .5-1 1z"/><path d="M39.6 8.7c-.8-.8-1.9.7-1.6.8.9.5 1.5.2 1.6-.8zM59 52.2c.7-.3-.2-2.1-1-1-.2-.4-.5-.5-.9-.3 0 .4.5.7.8.5-.3.6.3 1.2 1.1.8zM58 11.6c2 0 0-1.4-.2-1.4-.8.6-.7 1 .2 1.4zM69.6 105.9zM68 106.7c.9 1 1.7.7 1.5-.8-1.1-1-1 .4-1.5.8zM53.1 32c1.1-.5 1.2-.9.2-1.4-.8.5-.9 1-.2 1.4zM65.8 75.4c.5-.2 1.5.4 1.4-.7-.7-2.1-1.8.8-1.4.7zM70.3 112.5c-.7.3-.3 1.8.5 1.7 1.1-.2.2-1.7-.5-1.7zM65.2 112.8c.4.4 1.9.8 2.4.5.6-.3-1.4-1.3-2.4-.5zM51.9 45.2c-.9.4-1 .9-.2 1.3 1.1.2 1.1-1.2.2-1.3zM52.7 65.2c-.5-1-.9-1-1.4-.1.4 1 .9 1.1 1.4.1zM43.7 73.6c-.2-1.1-.7-1.2-1.4-.3.2.8.7.9 1.4.3zM27.1 47.4c.9.8 1.6-1.4.6-1.3-.6.3-.8.7-.6 1.3zM51 106.1c-.2-.4-1.8-.5-1.6.3.7.7 1.2.6 1.6-.3zM21.9 108.4c.4.2 1.4-1.5-.1-1.8-.4.4-.7 1.5.1 1.8zM43.6 104.4c0-1.2-1.3-.4-1.6.1.4.8.9.8 1.6-.1zM18.3 21.2c.1.8 1.4 0 1.4-.5-.6-.7-1.1-.6-1.4.5zM45.8 49.2c.4 1 .9 1 1.5.1-.6-.9-1.1-.9-1.5-.1zM31.3 6.2c-.4.1-.7.4-.8.9 0 1.4 2.7-.8.8-.9zM29.3 49.9c-.7.3-.8.6-.4 1.1.9-.2 1-.6.4-1.1zM1.9 80.7c1.1-.4 1.1-.8.1-1.2-.9.4-.9.8-.1 1.2zM67.7 99.4c1.5-.8-1-1.4-.9-.5.2.4.5.6.9.5zM4.6 79.6c.3 1.4 2.1.4 1.4-.2.8.7-.3-.3 0 0-.3-.2-.7-.2-1.2.1 0-.1.3-2-.3-1.9-1.2.2-.6 1.8.1 2zM46.2 8.5c-1.5-.6-.7.9-.4 1.3.8-.3.9-.7.4-1.3zM25.7 54.6c.4.7.9.7 1.4-.1-.3-.9-.8-.9-1.4.1zM10.7 78.3c.2.3.4.5.6.8 1-.5.9-1-.2-1.5-.2.2-.3.5-.4.7zM63.4 18.4c.5-.2.8-.7.9-1.2-1.4-1.2-1.1 1.3-.9 1.2zM80.6 39.6c1-.3 1-.7.3-1.1-1.1.3-1.2.7-.3 1.1zM59.7 55.8c-2.1-3.4-.9 2.3 0 0zM19.8 13.2c.6-.4.5-.7-.2-1.1-.9.4-.9.7.2 1.1zM23.4 59.6c-1 .3-1.1.7-.2 1.1.9-.2 1-.6.2-1.1zM85.5 63.5c.2-.1.9.6 1.2 0 .3-.7-2.7-1.9-1.2 0zM43.3 15.7c2-.5-1.4-1.9-.8-.7.3.3.5.5.8.7zM59.4 89.2c-.5-.9-.8-.9-1.2.2.4.8.8.7 1.2-.2zM67.1 32.6c0-.5-.3-.8-.7-1-2-.2.8 2.7.7 1zM55.8 111.5c-.9.5-.9 1 0 1.3.8-.4.8-.9 0-1.3zM20.7 75.7c-.4-.7-.9-.6-1.3.2.4 1 .9.9 1.3-.2zM39 102.6c.3 1 .8 1.1 1.3.3-.4-.9-.8-1-1.3-.3zM70.7 62.4c-.4-.2-1.4 1.6.1 1.7.4-.3.7-1.3-.1-1.7zM73 35.1c.4.9.8 1 1.3.3-.4-1-.8-1.1-1.3-.3zM28.7 38.7c.5 1 1 .9 1.3-.2-.4-.6-.8-.5-1.3.2zM53.6 15.2c.5-.1.7-.5.6-1-.3-1.9-1.8 1-.6 1zM66.9 93.2c.5-.1.8-.5.8-1-.2-1.2-2.5.9-.8 1zM45.6 29.6c.3 1.1.7 1.3 1.4.6-.4-1-.8-1.2-1.4-.6zM57.2 59.9c.4-.4-.6-1.2-1-1-.6.3-.2 1.9 1 1zM25.7 37.3c.3-.3.6-.6.9-.8-.1-1.3-2.6.4-.9.8zM8.9 69.2c.8-.5.8-1 0-1.4-.9.5-.9 1 0 1.4zM61.7 67.3c-.8.2-.9.6-.3 1.1.6.1 1.6-.8.3-1.1zM12.2 103.5c.5.8 1 .8 1.4 0-.5-.8-1-.8-1.4 0zM35.4 67.1c-1.4 1.3 1.8 1.5 1.4.6-.4-.5-.8-.7-1.4-.6zM62.2 24.3c.5.9 1 .9 1.3 0-.5-.8-.9-.9-1.3 0zM87.5 90.4c.8-.1 1.1-.5.9-1.1-.3-.8-2.4.8-.9 1.1zM25.4 38.1c.4 1 .8 1 1.4.1-.4-.7-.9-.8-1.4-.1zM20.7 27.4c.2.7 1.5.6 1.4-.3-.7-.6-1.2-.5-1.4.3zM10.9 45.7c-1.1.4-1.2.8-.2 1.4.8-.3.8-.8.2-1.4zM52 97.8c.1-.9-1.7-.9-1.3.3.4.6.9.5 1.3-.3zM46.8 21.2c-.5-.8-.9-.6-1.4.6-.1.6 1.3.1 1.4-.6zM43.8 9.8c-.2-.9-.5-1-1-.2-.1.5.7 1.3 1 .2zM90.2 79.5l.6.6c.8-.5.7-.9-.2-1.3-.2.2-.3.4-.4.7zM2.9 73.4c.6-.6.5-1-.3-1.3-.5.6-.4 1 .3 1.3zM40.8 94c.6-.2.5-1.1.7-1.5-1.3-1.4-1.6 1.7-.7 1.5zM41.8 60.7c.6.7.9.6 1-.4-.5-.8-1.1-.2-1 .4zM87.9 84.4c.2.9.5.9 1 0-.2-.7-.5-.7-1 0zM46.6 68.2c-.1-.2-1.3-1-1 .2.9 1.1 1.3 1 1-.2zM22.2 8.7c-.3-.8-.7-.9-1.1-.2.3.8.6.9 1.1.2zM1.3 89.2c.3-.5.1-1-.5-1.4-1.1-.1.1 1.9.5 1.4zM18.5 24.2c-.1.6 1.2.6 1.2-.3-.6-.6-1-.5-1.2.3zM61.8 35.2c.9-.3 1-.7.3-1.3-.7.4-.8.8-.3 1.3zM13.4 68.7c0-.4-.2-.7-.6-.9-1.9-.2 1.3 2.5.6.9zM56.7 53c-.3-.9-.7-.9-1.2 0 .4.8.8.8 1.2 0zM60 20.1c.5-.6.4-1-.3-1.3-.8.1-.5 1.5.3 1.3zM6.2 47.1c.6-.7.5-1.1-.3-1.3-.6.6-.4 1 .3 1.3zM20.4 47.2c-.3.5 0 1.1.2 1.4.1 0 .1-.1.1-.1s.8-1.6.3-1.7c-.2.2-.4.3-.6.4zM64.6 34.2c0 .7 1.9-.5 1.9-.6-.4-.4-1.9-.3-1.9.6zM39.5 85.3c.4.7.8.7 1.3.1-.5-.8-1-.8-1.3-.1zM62.3 83.2c.3 2.2 1.4-.9 1.3-.7-.4-.3-1.4.1-1.3.7zM77.6 28.3c.4.7.8.7 1.2-.1-.4-.6-.8-.6-1.2.1zM15.1 26.7c.3.8.7.8 1.3.2-.3-.7-.8-.7-1.3-.2zM22.3 45.8c-.6-.5-1.1.1-1.6.4-.8 0 2.9.6 1.6-.4zM16.6 75.5c-.8.6-.9 1.1-.3 1.5.8-.5.9-1 .3-1.5zM33.4 22.7c-.7.3-.7.8-.2 1.3.8-.2.9-.7.2-1.3zM89.6 46.6c.5.1.7-.2.7-.7.2-.9-2.2.1-.7.7zM75.9 97.6c-.2-.7-.6-1-1.3-1-1.1 1.8 1.4 1.5 1.3 1zM13 74.2c.5-.2.6-.6.3-1.1-1.3-1.1-1.4 1.4-.3 1.1zM65.6 13.5c.9-.3.9-.7 0-1.2-.8.5-.8.8 0 1.2zM90.2 105.1c.1.6.8.8 1-.2-.4-.6-.7-.5-1 .2zM75 47.4c.5-.5.6-.8.3-1.2 1 .9.3-2.4-.2-2.2-.4.1.2 2.2.1 2-.9-.7-1.1.8-.2 1.4zM81.4 78.7c.4.6.8.6 1 0-.5-.7-.8-.7-1 0zM47.5 89.3c-.2-1-1.4.3-1 .6-.1-.1-.2.1-.2.5.4-.1.5-.3.2-.5.4.2 1.1 0 1-.6zM91.9 85.4c.7.1.9-.7 0-1-.8.3-.8.6 0 1zM21.1 110.7c-.2-.9-.6-1-1-.4.2.9.5 1 1 .4zM24.5 73.2c.3-.6.2-1-.4-1.3-.5.4-.2 2 .4 1.3zM75.3 88c.6-.5.5-.8-.2-.9-.6.5-.5.8.2.9zM65.3 17.5c.3.6.7.6 1-.1-.5-.8-.8-.7-1 .1zM22.5 78.1c.4.6.8.6 1 0-.4-.6-.8-.6-1 0zM17.9 27c-.3-.8-.7-.8-1 0 .3.5.6.5 1 0zM76.3 21.8c1-.1-.1-1.2-.4-1.2-.4.4-.5 1.3.4 1.2zM9.5 77c-.8.6.1 1.4.1 1.5.5-.6.4-1.1-.1-1.5zM40.7 107.5c-.5.3-.5.6-.1 1.1.8-.3.9-.6.1-1.1zM63.1 88.4c1.1-1.8-3.1 1-1 .8.4-.3.7-.5 1-.8-.6.7.3 1.9.7 1.4.2-.7 0-1.2-.7-1.4zM75.1 70.6c-.6.5-.5.9.2 1 .6-.5.5-.9-.2-1zM81.8 19.9c-.4-.7-.7-.7-1.1.1.3.5.7.5 1.1-.1zM71.2 63.8c-.3.3-.6 1.3.4 1.2 1.1 0-.2-1.1-.4-1.2zM17.4 29.2c.4.5.7.6 1 .1-.4-1-.7-1-1-.1zM34 20.8c.9-.1 1.1-1.3.1-1.2-.4.3-.4.7-.1 1.2zM38.5 67.5c0 .8.4.9.9.4-.1-.8-.4-.9-.9-.4zM80.5 23.4c.6.2.6-1-.1-1.1-.6.3-.6.7.1 1.1zM41.3 70.7c-.6.3-.6.6.1.9.6-.3.6-.6-.1-.9zM68.2 11.2c.7-.4.2-.8-.2-1.1-.5.6-.5.9.2 1.1zM27.1 11.8c.6-.4.6-.8 0-1-.9.5-.8.8 0 1zM61.1 117c.4-.1.6-.3.7-.6 0-1.7-2 1.2-.7.6zM28.4 65c0-.4-.2-.7-.5-.9-1.8-.2.8 2.3.5.9zM54.6 74.8c.5.7.9.6 1.2-.3-.5-.3-.9-.2-1.2.3zM22.1 38.6c.2.7.5.8.9.3-.3-.8-.6-.9-.9-.3zM29.2 30.9c-.7.4-.7.8-.1 1.1.7-.1.7-1.4.1-1.1zM59.9 67.2c-.3-.7-.7-.6-1 .4.4.4.8.3 1-.4zM1.7 95.4c2.5 2.5.9-1.8 0 0zM15.4 81c-.5.3-.7.7-.5 1.3-.4.6 2.3-1.8.5-1.3zM86.7 35c.5-.4.4-.7-.2-1-.5.3-.4.6.2 1zM70.4 34.5c-.5.3-.5.7 0 1.2.7-.4.8-.8 0-1.2zM65.9 29.1c-.4-1.1-1.2-.2-.7.6.5.5.7.3.7-.6zM86.4 102.7c.7 0 .8-.3.3-.9-.7-.2-.5.7-.3.9zM67.6 4.9c-.3-.7-.6-.7-.8-.1.2.5.5.5.8.1zM49.8 45.2c-.3-.5-.6-.5-.9 0 .4.6.7.6.9 0zM40.4 60.7c-.4.3-.4.6.1.9.6-.2.6-.5-.1-.9zM25 105.6c.3.5.7.5 1-.2-.3-.6-.6-.5-1 .2zM45.3 61.5c.5-.5.3-.7-.4-.8-.8.3-.6.6.4.8zM60.7 22.2c.5-.3.5-.6-.1-.8-.5.3-.5.6.1.8zM34.8 8.5c-.3-.5-.6-.5-.9 0 .4.6.7.6.9 0zM51.9 71.3c.5-.4.4-.6-.2-.8-.5.4-.5.6.2.8zM7.5 70.2c-.5.2-.6.5-.1.8.6-.3.7-.5.1-.8zM46.5 18.7c.3.7.6.7.9-.3-.5-.3-.9-.4-.9.3zM44.2 117.2c-.5.2-.6.5-.1.8.6-.2.7-.5.1-.8zM36.4 52.5c-.1 1 .9.4 1 .2.3-.7-1-.5-1-.2zM32.8 34.4c-.4-.5-.6-.5-.8.1.3.5.6.5.8-.1zM39 30.8c-.1-.6-.4-.6-.8.1.1.6.4.6.8-.1zM76.9 52.6c-.5-.6-.8-.6-1 0 .4.6.7.6 1 0zM41.4 53.1c.1.6.3.7.7.2 0-.6-.2-.6-.7-.2zM41.6 17.1c-.8.5-.8.7 0 .8.5-.3.5-.6 0-.8zM72 95c.3.7.6.7.8.1-.2-.6-.5-.6-.8-.1zM31.4 53.5c-.5.3-.6.6 0 .8.7-.4.7-.6 0-.8zM61.6 36.2c.2.6.4.6.8.1-.2-.5-.5-.6-.8-.1zM80.3 91.3l-.7.7c-.2.9 2.1-.8.7-.7zM37.6 66.5c-.6.2-.6.5-.1.8.6-.2.6-.5.1-.8zM41.9 91.3c-.4.1-.7.3-.7.8.9 1 1.4-.7.7-.8zM28.2 53.7c-.6.2-.6.5-.1.8.6-.1.6-.4.1-.8zM47.6 67.4c-.6.3-.5.6.2.9.7-.3.6-.6-.2-.9zM17.7 78.7c.7-.2.7-.5 0-.9-.5.3-.5.6 0 .9zM7.3 37.4c-2 1 2.2 0 0 0zM62.1 27.9c-1.7.8 1.6-.4 0 0zM14.6 27.7c-1.1.2-1.1.4 0 .7 1-.2.5-.6 0-.7zM10.7 27.9c-.3.3-.3.6.1.9.6-.3.6-.6-.1-.9zM68.3 88.8c-.5-.6-.8-.5-.9.2.4.5.7.4.9-.2zM92 88.5c-.5-.6-.8-.6-.8.1.3.5.6.5.8-.1zM80.2 69.7c.7-.3.6-.6-.1-1-.7.3-.6.6.1 1zM91.5 55.2c.7-.2.7-.4.1-.8-.5.2-.6.5-.1.8zM40 63.6c.4.6.7.6.9 0-.4-.6-.7-.6-.9 0zM15.9 39.6c-.5.2-.6.5-.1.8.7-.2.7-.5.1-.8zM96.4 87.6c-.6.1-.6.4-.2.8.7-.1.8-.4.2-.8zM24.9 86.6c-.4 0-.6.3-.6.7.8 1.1 1.3-.6.6-.7zM15.5 48.5c.5-.3.5-.6 0-.9-.6.4-.6.7 0 .9zM24.6 84.6c.8-.3.8-.6.1-.9-.2.1-1.3.7-.1.9zM5.7 68.9c-.3-.5-.6-.5-.9.1.4.5.7.5.9-.1zM28.7 52.7c.5-.3.5-.6 0-.9-.6.4-.6.7 0 .9zM75.5 20.9c.4-.4.2-1.2-.6-1-.8.3.6 1 .6 1zM63.3 48c-.2-.6-.6-.6-1-.1-.2 1 .8.3 1 .1zM49.9 20.7c.5-.4.5-.6-.1-.8-.6.3-.5.6.1.8zM55.1 41.8c1-1.6-1.9.9 0 0zM37.1 76.2c-.3-.5-.6-.5-.8.1.3.5.6.5.8-.1zM30.8 76.7c.8-.1.8-.4 0-.9-.5.3-.5.6 0 .9zM47.6 63.1c.3.5.6.5.8-.1-.4-.5-.6-.5-.8.1zM51.2 48.5c0 1.2 1.1-.1 1.1-.3-.3-.3-1.1-.5-1.1.3zM17.5 24.6c-.6.2-.6.5-.1.8.5-.2.6-.4.1-.8zM89.8 80.7c-.1-.7-.3-.6-.6.3-.2.6.5.1.6-.3zM36.3 57.8c-.2-.7-.4-.8-.7-.1-.1.7.4.6.7.1zM50.1 58.1c.7-.2.8-.6.4-1-.7.2-.8.6-.4 1zM62.4 75.9c.3.5-.9-2.3-.8-.6.1.4.4.6.8.6zM58.8 112c.4.6.7.6.9 0-.4-.6-.6-.6-.9 0zM42.4 63.4c.2.6.5.7.9.3-.3-.8-.6-.9-.9-.3zM85.6 42.3c.2.6.5.6.8.1-.1-.5-.4-.6-.8-.1zM29.8 58.2c.5.3.8.2.9-.4-.5-.4-.8-.3-.9.4zM13.6 43.6c-.3-.5-.6-.5-.9 0 .1.8.4.7.9 0zM82.3 80c-.5 0-.7.3-.7.8 1 1 1.4-.7.7-.8zM84.3 84.5c-.4.5-.3 1 .3 1.3 0 .3.3-2.4-.3-1.3zM19.1 84.4c-.4-.1-.7-.2-1.1-.3-1 1.1 1.6.5 1.1.3zM59.2 65.6c.3-1.9-.8 2 0 0zM5 74.2c-.6-.5-.9-.5-1.1.2.4.6.8.3 1.1-.2zM68.2 86.7c-.6.1-.6.4-.2.8.7-.2.8-.5.2-.8zM43.6 115.4c-.5.3-.5.5 0 .8.7-.3.7-.6 0-.8zM57.8 50.4c.4-.2.6-.7-.1-1.1-.6.3-.5.7.1 1.1zM74.8 49.4c.3.7.6.7.8 0-.2-.5-.5-.5-.8 0zM64.2 80.3c.3.3 1.1.5 1.1-.4 0-1.1-1 .3-1.1.4zM16.2 83.9c-.4.3-.4.6-.1.9.4-.2.5-.6.1-.9zM78.9 72.8c-.1-.6-.4-.6-.8-.2.2.6.4.6.8.2zM62.4 19.7c.7-.2.8-.5.2-.8-.6.2-.6.4-.2.8zM70.4 59.1c-.6-.5-.9-.4-1 .2.5.3.8.3 1-.2zM75.7 73.4c.5-.3.4-.6-.2-.8-.4.4-.4.7.2.8zM59.9 12.9c.4-.8-.6-.4-.6-.3 0 .6.2.7.6.3zM82.3 52.6c.3.7.6.7.8 0-.2-.4-.5-.4-.8 0zM51.5 91c.3-.3.3-.6.1-.9-.5.3-.5.6-.1.9zM19 92.7c1.9.4-1-.4 0 0zM49.2 3.1c-.4-.4-.8-.4-1.2 0 .4.4.8.4 1.2 0zM68.9 95.7c-.3-.1-.7-.2-1-.3-.9.9 1.1.5 1 .3zM95.6 96.3c.4 1.4 1-1.4 0 0zM68.2 102.1c-1.5 1 1.6.2 0 0zM66.3 102.9c.9 1.2.7-1.4 0 0zM28.4 105.3c.8 0-.5-1-.6-.9.2-.4-1.6-.2-1.1.2 0 0 .7.2.8.1 0 .2.3.4.9.6zM31.9 105.4c.5-.1.5-.3 0-.7-.6.2-.6.4 0 .7zM42.6 107.5l.9.9c.9-.8-.1-1.8-.9-.9zM31.5 110.5c-.2.2-.6.7-.3 1 .3.3 1.2-.5.3-1zM60.4 113.3c2.4.1-1.9-.7 0 0zM63.8 10.9c-1.7-1.1.1 1.4 0 0zM40.3 12.6c-.3-1-.9.4 0 0zM80.9 12.5c-.2-1.8-.8 1.8 0 0zM22.5 14.3c0-.5-.3-.6-.7-.1.1.6.3.6.7.1zM45.9 14.6c-1.1 1.1 1.6-.1 0 0zM11.4 16.4c2 .3-1.6-.7 0 0zM18.8 17c.1-.7-1-.5-.7-.1.3.6.5.6.7.1zM34.3 17.4c-.2-.9-.7 1.1 0 0zM51.9 18.3c1.4-.1-1.4-1.1 0 0zM68.5 22.9c-.4-2 .1 1.3 0 0zM20.2 25.8c.2.5.5.5.9.1-.4-.6-.7-.6-.9-.1zM54.7 28.1c1.5-.8-1.1-.7 0 0zM15 30.3c.2.3.5.4.9.3.2.1-1.3-1.4-.9-.3zM20.6 31.6c-.4-.6-.7-.7-.9-.1.3.4.5.5.9.1zM81 31.3c-.2-.2-1.2-.3-.9.2.4.3.7.2.9-.2zM12.3 32.8c-.5-1-.8.5 0 0zM41.5 34.7c.6 0 .7-.2.4-.7-.5 0-.7.3-.4.7zM28 36.8c-.5.2-.5.4.2.5.5-.3.4-.4-.2-.5zM9.4 39.3c0-.5-.2-.6-.7-.2 0 .6.2.6.7.2zM58.6 40c1.2-.5-1.4-.9 0 0zM35.1 43.5c-1.6-.5 0 1.3 0 0zM15 44.5c0-1.9-.7 1.9 0 0zM26.3 45.7c-.6-1.8.3 1.9 0 0zM36.1 45.6c-1.3-1.2.1 1.7 0 0zM79.8 48.5c-1.1 1.2 1.7-.2 0 0zM34.6 49c-2 .8 2-.3 0 0zM73.8 50.5c.3-1.7-1.4 1.3 0 0zM29.4 56.1c.6-1.4-1.7 1.1 0 0zM20.2 56.4c-.3-.5-.6-.5-.7.1.4.5.6.5.7-.1zM81 59.6c1.5-.8-1.2-.9 0 0zM8.8 63.5c.5-.2.5-.5.1-.9-.6.5-.6.8-.1.9zM73.6 63.5c.6 0 .7-.2.4-.8-.5.2-.6.5-.4.8zM29.4 64c-1.9.9 2-.2 0 0zM84.4 64.9c.2-.3.5-.5.7-.8.1-.1-1.2.9-.7.8zM90.1 65.2c0-2.4-.7 1.9 0 0zM14.9 65.7c-.2-2.4-.8 2 0 0zM44.6 65.8c-.8-1.5-.6 1.3 0 0zM33.4 67.2c-.9-1.5-.1 1.7 0 0zM89.8 67.4c0-.5-.3-.6-.7-.1.1.6.3.7.7.1zM70.8 70.9c-.7-1-.8.5 0 0zM6.4 71.9c-.8-1.4-.9 1.1 0 0zM19.5 72c-.6.2-.7.4-.1.6.7-.2.8-.4.1-.6zM59.6 72.3c-1.2.5 1.3 1.1 0 0zM8.3 75.4c-1.2-1-.5.9 0 0zM41.3 75.5c-1-1.2-.8.4 0 0zM69.4 78c1.3-1.3-1.1-.4 0 0zM22 81.4c.6 0 .7-.3.4-.8-.5.1-.7.4-.4.8z"/><path d="M81.7 80.8c-.3.4-.5.7-.8 1.1.4-.4 1.4-.4.8-1.1zM86.3 81.3c.5 1.6.8-1.4 0 0zM61.3 81.9c.4-1.3-1.7 1.1 0 0zM78.9 87.7c1.6-.3-1.3-1 0 0zM76.5 88.1c1.1.9-.2-.9 0 0zM51.3 88.9c1.6-.8-1.3-.5 0 0zM89.2 90.1c.2-.2.7-1 .8-1-.5-.5-1.4.3-.8 1zM79.5 81.7c-.5-.7-.5.6 0 0zM43.7 4.8c-.5-.9-.6.8 0 0zM49.3 4.5c-.4-.3-.5.8 0 0zM17.8 40.5c.9-.5-.8-.6 0 0zM34 42c-.3.8.4.5 0 0zM58.7 63.7c-.4-.3-.4.9 0 0zM47 6.8c.2.6.5-.2 0 0zM55.4 7.1c.9-.5-.8-.6 0 0zM2.3 75.9c-.4-.9-.7.5 0 0zM80 41.7c.5 1 .3-1 0 0zM83.4 43.4c.5-.2-.2-.4 0 0zM76.1 38.7c-.5.4.6.3 0 0zM10.2 38.9c.2 0 .2 0 0 0zM53 9c-.5.7.9.4 0 0zM60.3 38.3c.5.7.8-.3 0 0zM24.6 87.7c-.9-1-.7 1.1 0 0zM69.4 10.5c.6-.5-.8-.5 0 0zM70.6 69.4c-.5-.6-.5.7 0 0zM52.4 56.7c.1.5.5-.2 0 0zM13 69.8c-.7-.1-.4.6 0 0zM55 40.2c-.4-.1-.1.4 0 0zM78.2 84.1c-.5.5.8.8 0 0zM62.3 86.3c-.6.5.4.8 0 0zM26 61.7c-.2.5.6 0 0 0zM3.5 64.2c-.6.5.4.9 0 0zM37.9 82.6c.3 0 .3 0 0 0zM91.7 86.5c-.7-.5-.4.9 0 0zM11.2 71.2c-.4-.9-.7.5 0 0zM50.2 61.1c-.3-.6-.5.2 0 0zM44.6 70.6c-.6.7.9.4 0 0zM60.2 82.9c-.6-.9-.6.8 0 0zM87.7 70.9c-.7-.5-.7.4 0 0zM58.7 61c-.5-.8-.4.3 0 0zM46.1 64c.8-.5-.8-.5 0 0zM10.3 71.5c-.5-.8-.6.8 0 0zM54.4 45.9c-.5-1-.3 1 0 0zM30.5 40.5c.8-.4-.3-.6 0 0zM16.7 86.8c-.8-.4-.5.6 0 0zM45.7 84.8c-.7.5.4.5 0 0zM9 71.8c-.5-.7-.5.7 0 0zM8.9 76.9c-.5-.3-.5.9 0 0zM39.3 37.9c.1 0 .1-.1 0 0-.6 1.1 2-.2 2-.2-1.2-.1-.4-1.6-1.7-.1-.2-.3-.5-.4-.8-.3.1.2.3.4.5.6zM69.2 44.9c-.8-.2-.3.5 0 0zM68 54.3c1-1-1.1-.5 0 0zM47.2 80.6c-.5.8.5.8 0 0zM77.2 77c-.1 0-.1.1-.1.1.6-1-1.4-1-1.4-.5.1.2.9 1 1.3.6.2.4.5.5.8.3-.1-.2-.2-.4-.6-.5zM39.4 72.7c-.6-.2-.4.5 0 0zM65.6 54c-.5-.6-.8.3 0 0zM13.7 77.6c-1 .9 1.3.5 0 0zM51.3 80.7c-.5-.6-.5.7 0 0zM90.5 83.4c0-.3 0-.2 0 0zM11.5 59.6c.3-.3.3-.6-.1-.9-.1.1-.5 1.2.1.9zM30.8 64.3c.4-.8-.6-.5 0 0zM5.4 58.9c-.9.5.3.4 0 0zM13.1 81.4c.9-.5-.8-.5 0 0zM23.3 73.7c-.5-.6-.9.4 0 0zM22.1 45.2c.8-.5-.9-.6 0 0zM86 53.1c-.6-.5-.4.9 0 0zM8.2 84.1c.3-.3.3-.6-.1-.9-.1.1-.5 1.2.1.9zM94.4 83.6c-.8-.6-.8.4 0 0zM93.5 63.9c-.4-.5-.3.5 0 0zM9.2 52c-.6.5.3.8 0 0zM64.8 74.5c-.5-.6-.5.5 0 0zM76.8 51.5c-.9-.9-.7 1 0 0zM19.3 40.7c-.3-.4-.8.5 0 0zM17.7 84.4c.9-1-1.2-.5 0 0zM82.7 57.8c-.6-.5-.4.9 0 0zM74.9 42.1c.5.6.9-.4 0 0zM60 87.8c.3-.7-.4-.5 0 0zM62.2 51c.5.7.9-.3 0 0zM90 74.5c-.5.8.5.8 0 0zM48.6 90.7c-.5.5.6.5 0 0zM12.9 63.7c-.5.8.5.8 0 0zM20 36.5c-.8-.4-.5.6 0 0zM82.5 35.2c1-.7-1-.3 0 0zM12.2 93.4c-.4-.8-.6.2 0 0zM35.7 33.5c-.5-.9-.6.8 0 0zM52.5 33.2c.3-.8-.6-.5 0 0zM.7 95.4c.4-.9-.6-.5 0 0zM12 94.7c-.8.4.3.4 0 0zM30.9 30.6c-.3-.4-.4.8 0 0zM67.5 95.7c.9-1-1.1-.5 0 0zM6.1 95.8c-.5-.7-.4.7 0 0zM73.4 96.2c-.8-.2-.3.5 0 0zM9.6 29.4c.1-.1.1-.2 0-.3v.3zM16.2 28.6c.9.3.5-.5 0 0zM53.7 28.1c-.3-.1-.3-.1 0 0zM40.2 68.2c.7-.3-.2-.5 0 0zM53.9 27.1c-.7-.5-.8.5 0 0zM68.8 68.3c.2.2.1.1 0 0zM81.6 26.6c-.7-.4-.7.5 0 0zM75 99.1c-.4.3.4.9 0 0zM83 99.4c.9.2.1-.6-.1-.7-.5.3-.4.5.1.7zM32.7 26.2c-.5-.6-.8.4 0 0zM42.7 26.2c-.3-.8-.4.2 0 0zM59 100.9c.4-.7-.4-.5 0 0zM33.7 24.8c-.7-.5-.8.4 0 0zM35.4 101.8c-.4.3-.3.6.1.9.2-.1.4-1.1-.1-.9zM43.1 24.8c.3-.8-.6-.5 0 0zM67.5 68.4c-.6.8.4.8 0 0zM40.9 23.2c-.4-.9-.7.5 0 0zM38.4 22.8c-.7.5.3.9 0 0zM28.5 22.4c-.9-.4-.5.6 0 0zM23.3 105.3c-.5-.7-.9.3 0 0zM60.5 106.1c.7-.9-1.1-.6 0 0zM64.7 21c.8.4.4-.4 0 0zM34.6 106.7c1 .9.4-1.4 0 0zM62.4 20.6c-.5-.6-.8.3 0 0zM58.7 20.9c-.5-.5-.5.4 0 0zM24.8 18.7c-.4-.5-.5.5 0 0zM52.3 108.9c.5.6.9-.4 0 0zM86.1 108.6c-.4.5 1.7.8 0 0zM13 110.3c.9-1-1.2-.5 0 0zM29.8 17.4c-.2.5.5 0 0 0zM70.2 109.7c-.5.5.4.5 0 0zM53.3 110.3c.5.6.8-.3 0 0zM36.7 15.8c-.5-.6-.5.7 0 0zM21 112.2c.7-.8-1.5-.5 0 0zM56.2 14.9c-.5-.6-.8.4 0 0zM29.8 14.9c-.9-.4-.5.3 0 0zM67.9 14.7c.4-.3-.4-.8 0 0zM64.3 14.4c-.8-.5-.8.5 0 0zM73.2 112.7c-.9-.4-.5.6 0 0zM31.1 13.5c-.5-.6-.5.6 0 0zM37.1 115.3c.6 1.6.3.3 0 0zM38.4 115.5c-.7.5.3.8 0 0zM73 115.5c-.8-1-1 .9 0 0zM47.1 12.6c.7.3.4-.5 0 0zM63.9 117c-.4-.7-.6.2 0 0zM54.7 11c-.1-.1-1.3-.5-.9.1.3.4.6.4.9-.1zM85.5 55.8c-.4-.4-.4.4 0 0zM22.2 76.5c.2 0 .2 0 0 0zM47.2 76.3c-.4.4.4.4 0 0zM67.6 76.5c-.3-.3-.3.3 0 0zM71.6 76.4c-.7-.7-.5.7 0 0zM57.6 55.2c-.4.3.3.4 0 0zM37.4 54.5c.8.7.5-.6 0 0zM21 77c-.3-.4-.3.3 0 0zM20 77.8c-.4.3.3.4 0 0zM43.9 77.8c0 .2 0 .2 0 0zM49.2 53.5c.7.7.5-.6 0 0zM46.9 52.5c-.3-.4-.4.4 0 0zM6.4 52.5c-.2-.3-.3.3 0 0zM59.2 78.4c-.4-.4-.4.3 0 0zM59.9 78.5c.4-.3-.3-.3 0 0zM72.3 78.5c.3.3.5-.2 0 0z"/><path d="M76.5 51.2c.7.7.5-.6 0 0zM72.5 78.7c-.6-.5-.5.7 0 0zM44.6 51.1c-.4-.4-.4.3 0 0zM14.8 79.4c.8.8.5-.6 0 0zM34.7 51.1c-.3-.4-.4.3 0 0zM80.2 79.2c-.4.3.3.3 0 0zM55.6 50.6c.2 0 .2 0 0 0zM7.9 79.8c-.4-.4-.4.4 0 0zM76.8 49.3c-.7.7.6.5 0 0z"/><path d="M15.2 79.7c-.8-.7-.6.5 0 0zM76.5 49.6c.7-.7-.6-.5 0 0zM82.6 64.8c-.2-.1-.2-.1 0 0zM66.5 80.1c-.4.4.4.4 0 0zM78.4 80.3c-.3-.4-.4.3 0 0zM87.8 80.3c-.3-.4-.3.3 0 0zM27.3 48c0 .3.1.1 0 0zM23.7 80.6c-.4.3.4.4 0 0zM36.4 80.6c-.4.3.4.4 0 0zM52 47.9c.7.7.5-.6 0 0z"/><path d="M27.4 47.7c-.8-.7-.3.9 0 0zM46.5 81.2c-.4-.4-.4.4 0 0zM85.1 64.1c.7-.7.5-.7 0 0zM44.9 81.5c-.4.4.3.4 0 0zM64.6 67.3c.4-.4-.3-.4 0 0zM74.5 81.8c.4-.3-.3-.4 0 0zM94.3 81.5c-.4.4.3.4 0 0zM70.7 82.3c.4-.3-.3-.4 0 0zM72.8 82.2c-.4-.4-.4.3 0 0zM77.8 82.3c.4-.3-.4-.4 0 0zM80.9 81.9c-.3.5 0 0 0 0zM91.4 82.3c.1-.3.1-.3 0 0zM30 45.5c-.4-.4-.4.3 0 0zM19 83.2c.4-.3-.4-.3 0 0zM88.8 83.1c-.4-.4-.4.4 0 0zM80 43.9c-.1-.1-.2-.2-.3-.2 0 .2.1.3.3.2zM77.9 84.4c.7-.7-.7-.5 0 0zM12.1 44.1c-.3-.4-.4.3 0 0zM10.2 44.1c-.3-.4-.4.3 0 0zM75.4 43.7c.1-.2.1-.2 0 0zM43.5 43.3c.3-.4-.4-.4 0 0zM75 84.3c-.4.4.3.4 0 0zM17.1 42.8c.4-.4-.3-.4 0 0zM60.1 85c-.4-.4-.4.3 0 0zM78.9 42.3c.4.4.5-.2 0 0zM86.3 85.5c.1 0 .1 0 0 0-.2.2-.5.3-.7.4.1 1 1.2 0 .9-.3.5.4.3-.6-.2-.1zM94 85.5c-.4-.4-.4.3 0 0zM77.3 41.9c.4-.4-.3-.4 0 0zM82 41.4c.4-.4-.3-.4 0 0zM4.4 86.7c-.3.3.3.4 0 0zM35.9 40.9c.4-.3-.3-.4 0 0zM14.5 40.8c-.4-.4-.4.3 0 0zM26.5 40.1c-.4.4.4.4 0 0zM88.3 39.8c-.3-.4-.4.4 0 0zM27.6 88.7c-.3-.4-.4.4 0 0zM43.6 88.7c-.3-.3-.4.4 0 0zM89.7 88.9c.5.5.4-.6 0 0zM16.8 67.7c0 .1.1.1 0 0zM19.9 64c.4-.4-.3-.4 0 0zM55.7 89.8c0-.2 0-.2 0 0zM21.5 37.5c-.3-.4-.4.3 0 0zM18.2 63.8c-.3-.4-.4.4 0 0zM30.9 37c-.3-.4-.4.4 0 0zM55.4 90.6c-.4-.4-.4.4 0 0zM88.8 36.5c-.3-.3-.4.3 0 0zM74.7 36.5c-.4-.4-.4.4 0 0zM61.8 3c-.4.3.4.4 0 0zM40.8 91.6c-.3-.4-.4.3 0 0zM43 91.4c-.4.3.4.4 0 0zM65.6 35.9c-.4.3.3.4 0 0zM27.5 36.2c.3-.3-.4-.4 0 0zM25.1 92.2c.4-.4-.3-.4 0 0zM9.1 36.1c0-.1 0-.1 0 0zM77.4 92.4c.7-.7-.6-.5 0 0zM91.5 91.9c-.4.3.3.4 0 0zM8.8 34.2c-.3-.4-.4.3 0 0zM19.6 33.7c-.3-.4-.4.4 0 0zM57.6 5.8c0 .2 0 .2 0 0zM33.7 63.3c-.3-.3-.3.4 0 0zM6.7 93.5c-.7.7.6.5 0 0zM25.3 33.2c-.4-.4-.4.4 0 0zM43.2 93.9c-.4-.4-.4.4 0 0zM42.1 32.6c-.1.3-.1.3 0 0zM65.2 32.3c-.2-.3-.3.3 0 0zM58.5 32c.4-.4-.3-.4 0 0zM86.2 94.4c.2 0 .2 0 0 0zM34.2 7.4c-.3-.4-.4.3 0 0zM64.6 7.7c0 .2 0 .2 0 0zM67.1 8.3c-.2 0-.2 0 0 0zM58.2 95.3c-.3-.4-.4.4 0 0zM71.4 95.3c-.4-.4-.4.4 0 0zM82 95.5c.4-.4-.3-.4 0 0zM47.4 9.2c-.4-.3-.4.4 0 0zM76.1 29.9c-.4-.3-.4.4 0 0zM2 95.7c-.7-.7-.5.6 0 0zM42.2 9.7c-.2 0-.2 0 0 0zM49.6 30.1c.4-.4-.4-.4 0 0zM16.9 67.8c0 1.3 0 0 0 0zM23.4 68c-.4-.3-.4.4 0 0zM37.8 29.8c0 .2 0 .2 0 0zM38.9 96.6c.3-.3.1-.2 0 0zM66 95.9c-.7.6.4.5 0 0zM67.1 10.2c-.3-.4-.3.3 0 0zM27.5 67.9c-.4.3.3.4 0 0zM1.8 96.7c-.4-.4-.4.4 0 0zM79.7 29.3c-.4.4.4.4 0 0z"/><path d="M39.1 96.4c-1 .9 1.1.5 0 0zM24.7 29.5c-.1 0-.1 0 0 0zM14.3 29.6c.4-.3-.4-.4 0 0zM51.9 96.3c-.8.8.6.5 0 0zM69.5 96.9c-.4 0-.7.3-.7.8.6.6 1-.4.9-.6.1 0 0 0-.2-.2zM46.4 62.4c-.3-.4-.3.3 0 0zM83.1 61.5c-.3-.4-.3.3 0 0zM43.9 27.9c-.3.3.4.4 0 0zM64.8 70.4c-.4-.4-.4.4 0 0zM27.9 97.8c.1-.2.1-.2 0 0zM70.8 97.5c-.4.4.3.4 0 0zM83.7 63.1c-.2-1-.4-.1 0 0zM78.9 65.2c-.3-.4-.4.4 0 0zM74.9 98.1c-.7-.7-.5.4 0 0zM91.1 98.5c.6-.6-.5-.5 0 0zM26.2 27.6c-.3-.4-.4.3 0 0zM76.4 60.7c.4-.4-.4-.4 0 0zM10.1 65.1c0 .2 0 .2 0 0zM21 71.3c-.3-.4-.3.4 0 0zM25.1 26.8c.3-.3-.3-.4 0 0zM17.3 60.5c-.4-.4-.4.4 0 0zM47.9 26.2c-.4-.4-.4.3 0 0zM8.6 26.3c.4-.3-.3-.4 0 0zM51.6 99.6c-.3-.4-.4.3 0 0zM2.7 100c-.3-.4-.4.4 0 0zM47.2 65.5c-.4.4.4.4 0 0zM50.7 25.7c-.4-.4-.4.4 0 0zM53.8 72c.4-.4-.3-.4 0 0zM82.7 62.9c-.4-.4-.4.3 0 0zM57.4 59.7c-.5.6.9.4 0 0zM81.3 25.2c-.4-.4-.4.4 0 0zM83.4 65.8c.4-.3-.2-.3 0 0zM65.5 101.5s0 .1 0 0c0-.9.4-2.5-.6-2.4.6 0-2.1 2.1-2.2 1.9-.8 3.2 4.7 2 2.8.5zM83 24.1c-.4.4.3.4 0 0zM70 102.4c-.4-.4-.4.3 0 0zM71.2 102.2c-.4.4.4.4 0 0zM73 24.3c.2 0 .2 0 0 0zM51.9 24.4c0-.2 0-.2 0 0zM71.9 59.6c-.4-.4-.4.3 0 0zM43.9 103c.4-.3-.3-.4 0 0zM89.6 72.1c-.4.4.3.4 0 0zM14.2 103.3c.2 0 .2 0 0 0zM67.6 23.8c-.3-.3-.4.3 0 0zM61.3 24c.4-.4-.3-.4 0 0zM26.3 24.1c.2-.5 0-.1 0 0zM18.6 104.2c.7-.8-.6-.5 0 0zM20.6 23.4c-.4-.4-.4.3 0 0zM87.8 104.2c.7-.7-.5-.6 0 0zM20.4 62.7c-.4.4.4.4 0 0zM84.4 23c.4-.3-.4-.4 0 0zM29.8 59.7c.4-.3-.3-.4 0 0zM67.4 72.3c-.7.8.6.6 0 0zM89.6 104.4c.4-.3-.4-.4 0 0zM78.3 22.3c-.4.3.3.3 0 0zM76.5 59.1c-.3-.4-.3.3 0 0zM43.6 69c-.3-.4-.3.3 0 0zM29.7 104.7c.2 0 .2 0 0 0zM52.1 69c-.4-.4-.4.3 0 0zM61.5 104.7c-.3-.3-.4.3 0 0zM37.5 59.1c-.3-.4-.4.4 0 0zM44.1 105.7c-.3-.4-.4.3 0 0zM22.9 106.1c-.3-.3-.4.4 0 0zM24.3 21.9c-.3-.3-.4.4 0 0zM32.8 73.2c-.3-.4-.4.4 0 0zM44.4 21.2c.4-.4-.4-.4 0 0zM72.6 20.4c-.4.3.4.4 0 0zM19 107c0 .2 0 .2 0 0zM43.5 107.2c.7.6.6-.6 0 0zM51.5 107.2c.3-.3-.4-.3 0 0zM45.4 20.4c-.4.3.3.3 0 0zM24.7 20.5c-.1 0-.1 0 0 0zM14.7 107.4c-.4-.3-.5.2 0 0zM38.9 20.1c-.3-.4-.4.3 0 0zM21.5 20.1c-.3-.4-.3.2 0 0zM88.2 107.4c-.4.3.3.4 0 0zM20 108.4c.7-.7-.6-.5 0 0zM20.1 19.6c-.3-.4-.4.3 0 0z"/><path d="M20.3 108.1c-.4.5.2.6 0 0zM43.9 108.1c-.6.6.2.5 0 0zM13.4 19.7c0-.2 0-.2 0 0zM76.1 19.1c-.4-.4-.4.4 0 0zM11.2 74.2c-.4-.4-.4.3 0 0zM62.3 18.3c.4-.3-.4-.4 0 0zM43.5 109.3c-.4.3.3.4 0 0zM84.1 17.7c-.4-.4-.4.4 0 0zM54.4 17.7c-.3-.4-.3.4 0 0zM81.7 74.2c-.3-.4-.4.3 0 0zM84.1 58.2c-.3-.4-.4.3 0 0zM31.4 110.7c.2-.2.1-.3 0 0zM64.1 15.8c.2 0 .2 0 0 0zM83.5 62.5c.7.7.5-.6 0 0zM59 74.8c.4-.4-.4-.4 0 0zM32.7 75.5c.8-.8-.6-.5 0 0zM49.9 112.6c-.4-.4-.5.1 0 0zM77.5 57.2c-.4-.4-.4.4 0 0zM38.8 113.3c0-.2 0-.2 0 0zM58 113.4c.4-.4-.3-.4 0 0zM74.5 113.4c.4-.4-.3-.4 0 0zM36.8 14l-.2.2c.1 0 .2-.1.2-.2zM76.1 113.7c-.4-.4-.4.3 0 0zM84.4 56.6c-.3.3.3.3 0 0zM61.2 13.5c.2 0 .2 0 0 0zM57.7 114.6c-.3-.4-.4.4 0 0z"/><path d="M33.1 75.1c-.8.8.5.6 0 0zM67 56.6c-.3.3.3.3 0 0zM58.1 57.1c.7-.7-.5-.5 0 0zM39.4 11.6c-.3-.4-.4.3 0 0zM71.3 76.1c.7.7.5-.4 0 0zM34.6 117.3c.5-.4-.2-.4 0 0zM51.4 116.8c-.3-.2-.8.7 0 0zM34.9 117.1c-.7.6.7.4 0 0zM37.4 11.4c-.4.4.3.4 0 0zM51.4 117c-.7.8.6.5 0 0zM17.1 56.1c-.4.4.4.4 0 0zM54.4 10.7c.7.7.5-.5 0 0zM59.5 117.8c-.4.3.3.3 0 0zM33.8 107.8z"/></g></g></g><defs><linearGradient id="gradient_#D2AD00_#E8D36F" y1="100%" x1="0%" x2="0%" y2="0%"><stop offset="0%" style="stop-color: rgb(232, 211, 111); stop-opacity: 1;"/><stop offset="100%" style="stop-color: rgb(210, 173, 0); stop-opacity: 1;"/></linearGradient></defs></svg>