<svg id="99189956041_technicalMartianIroncrust" class="record-detail__icon" viewBox="-1 0 52 62" xmlns="http://www.w3.org/2000/svg"><defs><clipPath id="pot"><path d="M34.9927 3.31021C34.0377 1.87791 29.0583 0.923096 24.4199 0.923096C19.7814 0.923096 16.0844 2.00071 14.3927 3.31021C8.73112 4.94709 5.1841 8.56187 4.63841 11.5628C4.09271 14.5638 0 46.0055 0 48.7337C0 51.4618 4.50198 61.6923 25.3066 61.6923C46.1112 61.6923 49.9311 51.3254 49.9993 48.7337C50.0675 46.142 45.0198 10.7444 45.0198 10.7444C44.2695 5.76553 35.6748 3.37842 34.9927 3.31021Z"/></clipPath><clipPath id="spray"><path transform="translate(5 0)" d="M37.0579 14.6557C35.9063 13.9672 34.7548 13.377 33.4986 12.7869C33.3939 12.7869 33.2893 12.6885 33.2893 12.5902C32.3471 11.0164 31.3003 9.44262 30.0441 7.96721C29.8347 7.67213 29.5207 7.37705 29.3113 7.18033C29.1019 6.98361 28.7879 6.88525 28.4738 6.78689C28.3691 6.78689 28.3691 6.78689 28.2645 6.78689C26.3802 6.78689 24.4959 6.78689 22.6116 6.78689L22.7163 6.68852C22.8209 6.39344 22.9256 6.09836 22.9256 5.80328C22.9256 4.13115 22.9256 2.36066 22.9256 0.688525C22.9256 0.295082 22.7163 0.0983607 22.2975 0C21.9835 0 21.7741 0 21.4601 0C20.9366 0.0983607 20.5179 0 19.9945 0H17.6915C17.5868 0 17.4821 0 17.3774 0C16.5399 0.0983607 15.5978 0.0983607 14.7603 0.196721C14.4463 0.196721 14.2369 0.491803 14.1322 0.688525C14.1322 0.885246 14.1322 0.983607 14.1322 1.18033C14.1322 2.85246 14.1322 4.52459 14.1322 6.19672C14.1322 6.29508 14.1322 6.39344 14.1322 6.4918C14.1322 6.68852 14.2369 6.78689 14.4463 6.88525C12.6667 6.88525 10.9917 6.88525 9.21212 6.88525C8.68871 6.88525 8.26997 7.08197 7.95592 7.37705C6.28099 9.2459 4.92011 11.3115 3.76859 13.4754C3.66391 13.5738 3.55923 13.6721 3.45455 13.7705C2.61708 14.2623 1.67493 14.8525 0.732782 15.3443C0.209366 15.541 0 16.0328 0 16.5246C0 16.623 0 16.7213 0 16.7213C0 28.4262 0 43.9672 0 55.6721C0 55.6721 5.65289 60 19.0523 60C32.4518 60 38 55.7705 38 55.7705V15.7377C37.8953 15.1475 37.4766 14.8525 37.0579 14.6557Z"/></clipPath></defs><g fill="#CF705D" clip-path="url(#pot)"><rect height="100%" width="100%" fill="#9B5041"/><g transform="translate(-1 , -1), scale(.6 .6)"><g stroke-width="0"><path d="M43.1 117.8c-2.6 0-5.6.2-8.1-.5-1.5-.4-5.2-3.2-3.6-5.1-1.8-.1-1.9-.6-2.8-1.9-.6-.9-2-1.3-2.5-2.2-1.5 1.6 2.9 3.5 1.5 5.7-1.2 1.9-4.2 1.3-5.4-.1-.5-.6-.7-1.8-1.3-2.2-.6-.4-1.8.2-2.1-1.1-.3-1.9 1.9-1 2.5-2.1v.1l.3-.4c0 .8-.6 3.6 1 2.1 1.3-1.3-.9-2.3-2-2.2-.9.1-1.6.8-2.4-.2-.8-1.1.3-2 1.2-2.4 1.6-.6 4.2.5 5.3-1.4-.7.2-2.7.3-3.3-.2-1-1 .2-2.7-.7-3.9-.4 1.3-2.9 3.6-4.2 2.4-.5-.5-.4-3-.2-3.7.1-.6.2-.9.6-1.4.3-.4 1.6-.8 1.7-1.2-.9-.8-1.8.5-2.8-.1-1-.6-1.8-3.5-2.8-2.2-.6.8-.6 2.7-.2 3.4.2.5.8.6 1.1 1.1.2.5-.1 1 .1 1.4.4 1 2 2.9.4 4.2-1.1.9-1.1-1-2.1-1.4-.8-.3-1.7.2-2.5.4-1.1.2-2.3.3-3.4.1-2.4-.6-8.6-7.2-3.7-8C1 93.9-1.7 92 .9 90.6c.6-.3 1.5-.2 2.1-.3h1l1.2-.8c1.4-.1 2.4 2.2 4.1 1.6 1.2-.5.8-2 1.4-2.9.7-1.2 1.8-1.5 3-1.8 1.5-.4 4.3-1.6 1.9-3.3-2.7-1.9-1.4 2.1-3.5 1.6-.9-.2-.8-1.7-1.6-1.7-.8-.1-1.6 1.4-2.3 1.7-1 .5-2.3.4-3.1-.4-.8-.7-.5-1.9-1.4-2.4-.5-.3-1.2.1-1.7-.2-1.1-.7-.9-2-.8-3.1.3-2.4.4-5 1-7.3.3-1.1.7-2.8 1.6-3.6 1.7-1.6 2.6.9 2.5 2.5 0 .8-1.5 3.8-1.3 4.3l1.2.4c.2.2 1.1 2.4 1.8 1.9.6-.4-.5-3-.1-3.9.5-1.4 2.7-3.7 4.2-4 1.8-.4 3.5 1.6 5.2 2 1.1.3 1.9.2 2-1.3.1-1.2-.2-.9-.9-1.8-1-1.3-.8-1.4.5-2 .4-.2.9-.1 1.3-.4.4-.2.6-.8 1-.9 3.1-1.1 2.4 3.7 1.7 5 0 .3-.1 1.1.1 1.5.5-.8.2-1.9.9-2.6 1.3-1.2 2.7 0 3.6-2.1.3-.8.3-1.7.8-2.5.1-.2.8-.7.8-.9 0-1.3-1.7-1.1-2.8-1.4-.6-.2-1-.3-1.5-.7-.2-.2-.6-1.3-1-1.4-1.1-.2-1.5 1.3-2.7.5-.4-.2-.9-1.9-1.7-1-.4.4.4 2.3.3 2.9-1.2-.3-2.5.6-3.6.1-2.4-1-.2-2.4.6-3.5 1-1.4.1-2.8 2.2-2.3 1.3.4 1.5.8 2.9-.3-1.3-1.2-3-1.9-4.3-3-2.3-2.1.7-2.4 1.7-4.1.8-1.3 2.3-3.9 4-1.8.7.9.4 4.9 1.9 4.9.4-.4-.1-1.2.1-1.7a4 4 0 0 1 .8-1.6c.6-.7 1.8-1.6 2.7-1.9 1.7-.7 1.5.3 2.1 1.6.1.2.8.5.8.6.3 1 0 .7-.3 1.6-.6 2.1-1.3 4.8 1.7 4.1 1.7-.4 2.5-.4 4 .5.8.5 3 3.2 3.8 2.5-1.2-1.1-1.1-2.5-.8-4 .6-2.4 1.7-1.7 3.5-2.4s2.8-2.5 4.7-3c2.3-.7 2.8 1.3 4.9 1.3.4 0 8.5-3.9 5.9-.3-.5.8-1.9 1.1-2.1 2.1-.1 1.1.8 1.3 1.7 1 2.4-.8.9-3.4 1.8-5 .2.3.5.2.8 0l-.4-4.5c-.1-1.1.4-3.8-1.3-3.8-1.4.2-2.5 1.7-3.9 1.6-1.4-.1-2.5-1.4-1.5-2.5.7-.8 2.3-1.2 3.2-1.8 1.5-1.1 2.5-2.8 4.3-3.4-1.6.4-3.9-.9-2.9-2.8.7-1.5 2.5-.3 2.6-2.2l-.6-1.1c-.1-.5-.2-1.1-.1-1.6-.1-1-.5-1.5-.7-2.4-.6-2.4 1.9-1.8 3.6-1.2-.5-1.1.2-2.3.5-3.4.1-.4.3-.7.3-1.1 0-.7-.7-1.2-.6-1.9 0-2.2 1.9-1 2.8 0 .1-.9 0-1.9.7-2.6.5-.5 1.8-.8 2.4-1.3.9-.7 1.4-2.4 2.4-2.8 1.2-.5 2.6.6 1.8 1.9 2.6.2.3 2.2-.7 2.7-.7.3-1.2.3-1.8.9-.5.5-.5 1.3-1.1 1.7-.8.6-3.8.3-2.7 2.1.7 1.1 2.3.5 3.2.4 1.5-.3 3.5.3 4.9-.2 1.2-.4 1.3-1.9 2.4-2.3 3.2-1.1 3.1 4.3 6.3 1.8 1.2-.9 1.8-3.2 3.5-1.3.9 1 .9 2.9 1 4.2.1.9.6 3.2-.1 3.9-.9.9-1.9-.7-2.6-.3-.6.4-1.1 3.2-.7 3.7.7.8 2.5 0 3.4.8 2.2 1.8-1 2.1-1.9 2.8-.4.3-3 3.1-2.7 3.5.6 0 1.5-1.3 2.3-1.4 1.4-.2 1 .5 1.8 1 .3.2.2.2.9.4.9.2 1.2-.3 1.7.8.7 1.7-.1 3.7-.9 5.1-1.3 2.4.4.7 1.6 2.2 1.5 1.9.2 4.2-.9 5.8-1.1 1.6-2.4 3.6-3.9 1.8-.5-.6-.9-1.2-1.6-1.8l-.9-1-.3-.9-.5.1c-.5-.3-4-2.1-4.7-1.2-.3.9 1.3 2-.5 2.5-.9.2-2.5-1.5-3.3-.7-.6.6.6 1.8.3 2.7-.2.6-1.2.3-1 1.3 0 .2.8.5.9.6 1.2 1.5.8 1.6.5 3.4-.3 1.4 0 2.1 1.1 2.9 1.9 1.3 3.4 1.5 4.6-.4.1.5.5.7.6 1.1v1.4c.5 1 2.4.6 3.5 1.3.7.4 1.3 1 1.6 1.7l.6 2.2c1.1.9 2-2 2.6-2.5 1.1-1 2.8-.7 2.9 1 .1 2.6-1.9.8-2.8 1.5-1.1.9 1.8 1.8 2.3 2.1 1.1.7 2.7 2.4 2.7 3.9 0 1.9-1 1-2.1.6-1.3-.5-1.7-.6-3 .5-.5.4-2.3 2.2-1.8 3 .4.7 1.7.1 2.3.7 1 1 .6 5 0 6.2-.6 1.3-1.6 1.5-2.9 1.6-.7.1-3-.2-1.8 1 2.5-2.6 2.4 2 1.6 3.5-.7 1.3-2.4 1.7-2.5 3.1-.1 1 .9 3.5-1.4 3.5-2.3-.3-.1-2.7-.6-3.6-.4-.7-1.9-.7-2.5-1.5-.4-.5-.2-1.5-.7-1.8-.8-.6-3.7-.1-3.7.6 0 .3 1.7 2.9-.3 2.4-.5.2-1 1-1.7.7-1.3-.6.2-1.7.1-2.4-.1-3-4.3.6-5.5.1-.9-.3-1-4.3-2.2-3-.4.5.8 1.7-.5 2.2-1.2.4-1.1-1.1-2-1.1-.5.4-.8 1.5-1.5 1.6-.8 0-1.3-1-1.3-1.6 0-1 .3-.8.8-1.4.1-.1 1.1.1.8-.6-.3-.8-2.6 1.5-2.9 1.6-2.1.7-2.4-.9-1.7-2.3.4-.7 1-2.6 1.7-3 1-.5 1.8.5 2.6.8.2.2.5-1.1.3-1.4-.6-1.1-2.2-.1-2.9.2-.7.2-2.4 1.4-3 .3-.6-1.1.8-1.4 1.3-2.2-1.9-1.1-.8-2.8.8-3.4 2.5-.8 2.6-.4 2.9-3.2.1-.9.5-2.9 1.7-3.1 1.2-.1 2.8 2.4 2.4 3.3-.3.9-.8.4-1.1.8-.3.5 0 .5-.1 1.3-.1.9-1.5 3.7-.3 4.4.4.2 3.3-.7 3.7-.8 1.3-.3 3.5-1.9 2-3.4-.4.3-.1 1.2-.4 1.5.3.5-.7 1.3-1.3 1.2-2-.2-1.2-2.5-.3-3.4.5-.5 1-.9 1.7-1 .7-.1 1.8.5 2.4.1.5-.3.7-1.1 1.2-1.5.4-.3.9-.4 1.3-.8l-.2 1.9c1.2-.1-.1-3.2 1.6-4 .3-.1 2.9.1 2.9.2.2-.9-1.7-1.2-1.3-2.6.2-.7.9-.6.8-1.6-1.2 1.2-2.2 2.9-3.7 1.5-1.4-1.3 0-2.7.4-1.5.5-1.2.3-1.1-.1-2-.4-.2-.6-.5-.8-.9a2 2 0 0 1 .1-1.3c-.3-1.1.5-1.4-1.1-1.3-.8 0-1.7 1.2-2.3 1.5-1.3.9-2.9 1.3-4.2 2.3-.5.4-1 1.5-1.7 1.4-1.2-.1-.9-1.5-.6-2.2.2-.4.9-2 1.2-2.3.6-.7 1.2-.3 1.5-1.2.5-1.4-.8-3.9-2.4-3.9-1 0-1.5.9-2.3 1.3-1.1.5-2.3.5-3.3 1-2 .9-3.6 2.5-5.8 3.1.6.1 1.2-.5 1.7 0 .7.7 0 1.7-.7 1.9-2.8 1-2.1-2.5-2.7-3.8 0-.4-.4-.9-.6-1.4-.3-1.1.3-1.8.2-2.7-.1-1-1.4-3.2-2.6-3.2 1.6.6.2 2.7-.6 3.1-1.3.7-3 .7-2.8 2.7 1.8-.4 1.3 1.4 2.4 1.8 1 .5.7-.3 1.4-.8 1.2-.8 1.6-.4 1.9 1 .1.5.3 1.7.1 2.2-.8 1.4-1.6 0-2.4-.2-.9-.3-1.6 0-2.4.6-2.2 1.7-.2 3.3.2 5.3.5 2.8-.8 2.1-3 2.1s-2.6 2.3-4.7 2.8c-1.4.3-3.9-1.7-3.7 1 .1 1.4 1.7 2.2 1.7 3.7 0 1.3-.7 1.4-1.5 2 1.5-.6 1.4 1.9 1.2 2.6-.6 1.7-1.3 1.8.5 3.2 1.2 1 2.7 1.4 3 3.2.3 1.9-1 3.5-2.4 4.6 1.5.1 1.6-1.6 2.4-2.5 1.4-1.6 3.2-1.5 4.5.1.9 1.2.8 2.1 2.4 2.4 2.1.3 3.4.2 5.2 1.7 2.5 2.2 3 6.6 1.3 9.5-2.5 4.1-2.9-4.4-5.8-3.7-2.4.6 1.5 6.6.1 8.4-1 1.3-2.8 1.2-3.9 2.2-1.8 1.7-1.8.3-3.9-.5-1.8-.6-1.7.3-.4 1.1 1.5.9 3.2 0 4.6.8 1.9 1.1.8 2.2.1 3.4-.5 1.1 0 1.9-1.4 1.9zm-26.4-39zm46-46.2c1.6 0 2.9 1.4 4.5 1.3 1-.1 2.8-1.2 1.7-2.4-.5-.5-3.7-.4-4.2-.3-1.1.2-1.6 1.1-2.7 1.5l.7-.1zM38.8 80c-.3-.1-.3-.3 0-.4.2.2.2.3 0 .4z"/><path d="M34.3 3.5c0 1.7.2 3.5 1.5 4.6 1.4 1.2 3.7 1.2 5.3 2 .9.4 2.8 1.1 3.1 2.2.3 1.3-1.7 3-.4 4.3.8.8 3.2-.1 4-.6 1.3-.9 1.2-3.6 3.1-3.6.6 0 1.5.5 1.4 1.3-.1.9-.5.6-1.1.9-.8.4-2.8.9-2.7 2.3.1 1.2 2.1.6 2.4 1.7.2 1-.8.8-1.1 1.5-.3.9.6 1 .8 1.8.3 1.3-.8 1.6 1 2.2 1 .3 3.4 1.2 4.3.8 1.3-.5 1.2-2.4 1.9-3.4.5-.8 1.3-1.5 2.2-1.8.8-.3 2-.1 2.6-.6.6-.5.6-.7.5-1.5-.2-1.2-.7-.9-1.4-1.6-1.5-1.6-.9-4.5-1-6.5-.1-2.3-.7-4.3-.4-6.6.4-2.9-.7-.8-2.2-.7-.6 0-.8-.5-1.3-.4-.5.1-.9.8-1.2 1.1-.6.6-1.3 1-2.1 1.4-.5.2-1.5.8-2.2.4-1.2-.6-.2-1.9-.7-2.2-.2 0-.4.1-.4.3-1.2-.2-3.4.9-3.5 2.2-.2 1.8 2.4 1.6 3.3 2.6 2.9 3.1-4.1 5.1-4.3 2.4-.1-1.3.3-1.6-.4-2.9-.3-.6-.8-2.1-1.3-2.6-1-.8-2.6-.4-3.7-1.5-1.9-1.6-1.2-3.6-4.2-2.7-2.5.8-1.2 1.3-1.8 3.2zm17.8 12.3c-.1-.2 0-.3-.2-.4.4.1.2.3.2.4zm2.7-.9l.5.3a.5.5 0 0 1-.5-.3zm-9.6-4.6c-.1-.3-.3-.3-.6-.3.3 0 .5 0 .6.3zM39 3.2l-.2-.1.2.1zm-.2.1v-.1c0 .3.1.4.4.3-.2.1-.4 0-.4-.2zM98.1 92.4c-.3-2.4 0-5.5-.7-7.9-.3-1.1-.3-1.2-1.2-1.1-.3 0-1 .5-1.4.6l-1.7.1c-2.3.5-3.8 1.5-3.6 3.9.1 1.5.8 1.6 1.5 2.7.6.9.4 2 1.1 2.9 1.6 1.8 4.4 1.5 1.7 4.3-.8.9-2 1.1-2.9 1.8-.6.4-.9 1.5-1.4 1.8-1.6 1-2-1.8-3.7.5-.4.5-1.2 1.7-.7 2.4.1.2 2 .4 2 .1.6 4.6 4.5.3 5.9-1.4 1-1.2 2.2-2.5 2.8-3.9.5-1.1.4-2.2.8-3.3.4-1.1 1.5-2.1 1.5-3.5zm-10.7 12.1c.5-.2.3-.3.1-.4.4 0 .2.4-.1.4zM80.7 105.9c-.5 0-.4 1.4-.9 1.8-1 .9-2.5 0-3.5-.4-2.5-.8-4.7 2.1-2.5 4 1.4 1.2 5.3 2 6-.2.2-.6-.2-1.2.1-1.8.3-.5.8-.5 1.1-.9.4-.4 1.3-2.7-.3-2.5z"/><path d="M34.8 17.3c.9-.1 1.9-.2 2.7.3 1.1.8.9 2.1 1.6 3 .8.9.9.5 1.9.6 1 .1 1.4.6 2.2.9 1.2.3 1.5-.3 2.4-1 .4-.3 2-1 2.2-1.4 1.3-2.4-3-.9-3.7-1.1-2.6-.6-.2-2.5-1.5-3.8-1.1-1.2-2.9-.2-4.2-.5-2.1-.5-2.5-2.5-4.4-.2-1.2 1.4-1.8 3.2.8 3.2zm3.7-1.9l.2.1-.2-.1zM6.5 60.1c1.9-.3 3.8 1.6 5.7 1 1.7-.6 2.6-3.3 3.1-4.8.3-1 .9-4.4-1.1-3.3-.4.2-.8 1.6-1.2 2.1-.8.9-1.3 1.4-1.9 2.4-.2.3-.5 1.3-.8 1.3-.6 0-.6-.9-1-1.2-.6-.3-.7.1-1.3.1-1.1 0-1.2 0-1.9-.9-.2-.3-.4-1.4-1-1.4-1.8.1-1.4 5.2 1.4 4.7zM65.8 112c-3.2-3.7-10 3.4-7.4 4.9 1.5.9 6.1-.5 7.4-1.3.7-.4 2.3-1.6 2-2.5-.3-1-1.6-.2-2-1.1zM54.2 70.5c-1.9-.1-1.1.8-1.2 2-.1 1.1-.8 2-.3 3.1.9 2.2 4.3 2.9 4.8.3.2-1.2 0-1.3.7-2.1.5-.6 1.3-.6.9-1.6-.6-1.2-3.8-1.4-4.9-1.7zM18 41.9c.5 1.5.7 1.3 0 2.6-.3.6-1.2 1-.2 1.8.5.3 1.5.2 1.9-.2.8-.9-.2-1.4 0-2.3.5-3.1 2.7 0 3.3 1 .7 1.2 2.5 4.3 4 2.3 2.6-3.2-4.9-6.6-2.8-10.4 1.1-2.1 3.4-3.5 1.5-6.1-.7-.9-1.8-1.2-2.8-1.7l-2.8-2s-.2 1.5-.1 1.6l.7.4c.1.3 0 .6-.3.8L20 32c.1.4 0 .8-.1 1.3-.1.4-.3.6-.6.6-.1.6.5.8.5 1.3.1.8 0 .4-.4 1.2-1.1 1.9-2 2.9-1.4 5.5zm4.9-6.5c.1.4-.2 0-.3 0 .1-.2.2-.2.3 0zM25.2 18.2c1.9 1 3 3.5 5.5 2.9.5-.1 2.1-.8 2.3-1.4.3-.8-.7-1-1-1.7-.6-1 0-1.8-1.5-2.1-1-.2-2.1.4-3.1.3-.8-.1-2-1-2.7-.4-.6.7-.3 2.1.5 2.4zM39 46.6c-.1-1.8-.4-3.9-2.4-3.1-.3.1-1.8 1-1.9 1.2-.3 1 .7.5 1.2 1.2-.8.5-1.3 1.2-2.2 1.5-.7.3-1.4-.4-1.6.6-.4 2.1 2.7.2 3.3 0-.1 1.1.1 1-.4 1.8-.5.7-.8-.2-1.2.9-.4 1 .7 2.5 1.8 2.3 1-.2 1.2-1.5 1.6-2.3.7-1.4 1.9-2.5 1.8-4.1zM52.5 25.9c-.8.4-2.6-1.5-3.6-1.5-1.5 0-3.1 2.2-4.4.4 2.3-.6-1-1.9-.2-.2-1.1 0-1.3-1.3-2.1-.4-1 1.2.4 2.9 1.5 3.1 1 .2 2-.7 2.8-.1.9.7 1.5 2.9 2.4 3.9-.9-.1-1.6.4-2.4.5h-2c-1.5.3-1.6 1-.2 1.6 1 .4 2.2 0 3.2.5 1.8.9.4 1.1-.1 2.2-.6 1.1-.5 2.7.9 3 .3.1 2.9-.3 3.1-.4 1.1-1.1-1-2.5-1.4-3.3-.6-1.1 0-2.8-.6-3.8 1.1.5 1.1 2.7 2.7 2.2 1-.3 1.2-2 1.5-2.8.3-1.4 1.7-5.3-1.1-4.9zM44.5 43.1c.5.8 1.7 2.2 2.6 2.4.6.2.9.4 1.2-.3.5-1-.6-.9-.9-1.3-1-1.3-.4-3.8-2.8-4.2-2.1-.3-2.3 2.8-2 2.8.3-.1.4-.4.5-.7.5.6 1.1.7 1.4 1.3zM94.4 72.9c-2.2-.4-.4 2.8-.3 3.6.2 1.4-2.6 3.7-.4 4.8 3.4 1.7 4-8.4.7-8.4zM12.8 45.9c0-.3 1.6-.7 1.8-.9 1-.6.9-.6 1-1.7.2-2.1.2-2.3-1.7-2.7-1.7-.4-2.7-.9-3.1 1.1-.5 2.4 2.3 1.9 2 4.2zM52.7 89c1.6-1 .9 1.4 2.2 1.2 1.4-.1.6-2.1-.8-1.8.1-.3 4.3-3.6 1.1-3.1-1.3.2-.7 1.3-2.4.5-.8-.4-1.4-1.1-2.4-.8-3 .6-1.2 5.7 2.3 4zM75.5 14c1.5 1.3 2-.2 3-1.1 1.1-1 2.8-1.2 2.4-3.1-.3-1.3-2.4-3-3.7-1.8-1.4 1.4.8 1.2.7 2.2-.3 1.1-4.8 2-2.4 3.8zm.6-1.2c.4-.4 0 0 .2 0h-.2zM76.2 12.8h-.1.1zM29.8 24c-1.1-.1-3.5 2.1-3.5 3.3 0 1.3 1.1 1 1.8 1.2.8.3.9.2 1.6.7.5.4.2 1.2 1.1.8.4-.2.5-1.5.6-1.9 0-1.3-.2-3.5-1.6-4.1z"/><path d="M40.5 32.4c2.8-1.8 1.2-5.7-2.1-3.4-1.3.9-1.4 1-.8 1.8.3.4 2.5 1.9 2.9 1.6zM73.4 107c.7-.8 2.5-.7 3-1.7.7-1.4-1-2.4-2.2-2.3-1 .1-2.6 1.3-2.7 2.4-.1.6 1.2 2.8 1.9 1.6zM45.7 83.5c2.2 0 .6-2.1-.4-2.6-1.5.7-1.6 3.1.4 2.6zM18.4 109.8c-.9-.9-.4-2.6-1.2-2.8-.3-.1-2.7.8-2.7.9-.8 1 .9 2.5 1.7 3 .7.3 3.5.2 2.2-1.1zM67.6 9.1c1.3 0 .5-2.1-.4-2-1.3.1-.9 2 .4 2zM12.6 104.7c-1.1-.5-3.9-1.6-3.2 1 .6 2.3 1.6-.4 2.7.3l-.3.4c.1.1 2.5-1 .8-1.7zM43 74.2c-.1-.3 0-.6.1-.7-2.6-1-1.4 3.2-.1.7zM54.7 115.1c-.7.2-2.6 2.1-1 2.5.6.1 2.4-2.5 1-2.5zM43.7 88.2c1.2 0 .2-1.6-.6-1.6-1.3.1-.3 1.5.6 1.6zM62 11.1c.5 1.9 3.2 1.5 2.6-.2-.3-.8-2.8-.9-2.6.2zM43.6 76.2c-.9-.2-.3 1.8.2 1.9.9.1.4-1.7-.2-1.9zM38.7 83.4c1-.2 2.3-2.8 1-3.3-1.2-.5-3.6 3.3-1 3.3zM62.5 2.4c.7-.1 1.4-1.2.3-1.4-.8-.1-1.3 1.4-.3 1.4zM53.2 44.3c-.7.3-2.3 1.3-.5 1.7 1.6.4 2-2.1.5-1.7zM30.4 39.3c-.4-.4-1.4-2.7-2-2.5-.9.2.2 3-.9 3.7.3.4 1.3 0 1.5 1.1.1.6-.9.9-.1 1.5 1.1.7 1.8-.5.4-1.3.8-.7 2.1-1.4 1.1-2.5zM5.2 49.1C6.4 49 7.9 52 9 50.8c.7-.7-.3-2.4 0-2.9 0 0-2.4-.6-2.9-.5-.2.1-1.8 1.7-.9 1.7zM34.7 31.8c-1.9 1.9 6.7 3.7 4.2.7-.7-.7-3.7-1.8-4.2-.7zM35.6 24.6c0 .9 1.4 2.5 2.3 1.8 1-.8-.3-2.5-1.4-2.4l.1.1c-.6-.1-1-.1-1 .5zM79.9 14.6c-.2 1 1.1.9 1.3 0 .3-1.1-1.1-.9-1.3 0zM39.7 41.7c-.1-.9-1.8-1-1.9 0-.1 1.2 1.9 1.3 1.9 0zM31.1 33.4c-.2-1.5-.6-2.5-2.3-1.9-.6.2-2.3 1.5-2.3 2.3.1 1.6 4.6.7 4.6-.4zM18 30.5c-.2-.7-1.6-1.1-1.9 0-.4 1.2 1.9 1.2 1.9 0zM14.3 29.7c.5.8 1.7-.6 1.7-1.1 0 0-1-2.1-.7-1.9.4.1-1.1 1.2-1.1 1-.4.8-.5 1.2.1 2zM15 38.7c0 1.3 1.5 2.5 2 .7.5-1.6-2-2.1-2-.7zM56.5 34.5c3.1 1.6 1.4-4.3 1.1-4.4-1-.2-2.6 3.9-1.1 4.4zM10.5 64.8c-2.4-.6.7 3.9 1.1 1.7-.1-.5-.4-1.4-1.1-1.7zM48.3 65.3c-1.2 0-1.4 2.2.1 1.9 1.1-.3 1.2-1.9-.1-1.9zM66.2 74s0-.1 0 0zM49.3 81.6c1.4-.3 2.5-2.8.5-2.3-.8.2-2.1 2.3-.5 2.3zM86.4 96.5c.7-.3 2.4 1.3 2.9.5 1.2-1.8-4.1-2.2-4.6-2.3-.3 1.5 0 2.6 1.7 1.8z"/><path d="M49.2 77c.6 2.1 2.8 2.3 2.8-.2 0-2.1-3.1-2.1-2.8.2zM68 66.6c-.8.4-2.5-.1-2 1.6.3 1 1.6 1.2 2.5.8.6-.2 1.6-1.1 1.2-1.9-.2-.7-1.1-.2-1.7-.5zM66.5 73.6c-.9 1.1 1.3 1.5 2 .8 1.1-1.2-1.1-1.9-2-.8zM53.1 81.2c-.7-.8-2.7-.1-2.9.9-.3 1.2 1.7 2.5 2.7 2.8.9.2 2.6.3 2.7-.9.1-1-.4-.6-.8-1l-1.7-1.8zM72.9 65.2c.2-1.6-1.4-2.5-2-.7-.7 2 2 2.3 2 .7zM70.5 89.5c-1-.2-.8 1.8 0 2 1.1.1 1.4-2 0-2zM69.2 98.6c-1.1.2-2 1.9-.6 2.3 1.7.6 2.1-2.7.6-2.3zM64.1 107.4c-.1.4 2.3 1.1 2.3-.6 0-2.1-1.9-.4-2.3.6zM64.8 100.3c.1 1-.1 2.7.8 3.5.8.7 2 .5 2.3-.6.3-1.3-3.1-4.8-3.1-2.9zM80.4 97c1.3-.5 2.8-2.6.8-2.8-1.9-.2-2.6 2.8-.8 2.8zM90.5 50.9c1.4.7 1.3-2 0-1.8-.8.1-.7 1.6 0 1.8zM91 76.5c4.2 3.6 2-1.9-.3-.4.1.1.3.2.3.4zM79.8 100.9c-.7-.4-.4 1.2-.3 1.4.3.6 2 1.8 2.6.9.8-.9-1.8-1.8-2.3-2.3zM76 93.9c-.1-.9-1.6-2.1-2.1-.9-.5 1.2 2.1 2 2.1.9zM51.2 67.6c.4.9 1.4.4 2.1.6l1.4.9c1.3-.4-3.5-4.1-3.5-1.5zM60.2 62.7c-.9 1.4 6.1 3.3 4.5 0-.5-1.1-4-1.1-4.5 0zM7.7 86.4c0-1.1-2.3-1.1-1.9.2.2 1.1 1.9 1 1.9-.2zM60.6 99.5c0-2.6-3.9-2.3-3.4-.1.3 1.6 3.4 2.1 3.4.1zM16.6 67.2c0-1-1.5-1.3-1.8-.3-.4 1.2 1.5 1.6 1.8.3zM59.5 66.3c-1.6 0-1 2.1.2 1.4.6-.3.6-1.4-.2-1.4zM57.6 105.2c1.3.3 1.9-1.1 1.1-2-1.2-1.4-2.2.1-2.7 1.1l.1-.1c0 1.3 1 .9 1.5 1zM86.5 53.1c-.3 1-2.3 1.1-1.8 2.4.4 1 2.1.5 2.8.1.8-.4 2.1-1.4 2.1-2.4-.1-1.9-2.4-1.4-3.1-.1zM58.3 108.1c1.3.4 1.2-2.4-.9-1.6-1.9.7-.1 1.3.9 1.6zM70.7 102.8c-1.4 0-.2 1-.2 1s1.6-1 .2-1zM37.8 53.5c0-1.4-2.2.5-.4 1 .4-.2.5-.6.4-1zM22.6 24.5c-.4-.3-.9-.1-1.2.4-.1.3 1.2.5 1.2-.4zM31.6 52.1c1.2 0 .2-.9.2-.9 0-.2-1.3.9-.2.9zM83.6 57.4c-.9.3-.4 1.8.5 1.5.9-.3.2-1.7-.5-1.5zM31.7 36.6c.1.5.8.5 1 .5 1.3-1.3-1-1.1-1-.5zM93.5 59.3c.3-.4.4-.7 0-1.1-.4-.2-.7 1.1 0 1.1zM69.9 94.3c0 2 2.7-.2.8-1-.4.3-.8.5-.8 1zM77.2 7.6c.1-.9-1-1-1.7-1.3-.7.3 1.1 1.5 1.7 1.3zM9 89.3l-.3-.5c-.5-.2-.1.8-.1.9.3.1.4-.1.4-.4zM86.7 31.7c0 .5.8.2 1.1 0-.2-.2-1.1-.6-1.1 0zM74.2 66.7c-.4-.5-1.2-.1-.9.2.2.3.7-.1.9-.2zM42.3 44.7c0-.9-1.6-.7-1.1.1.2.2 1.1.5 1.1-.1zM48.9 55.3c-.7 0-1.6 1.1-.5 1.3.7.2 1.6-1.3.5-1.3zM90.2 61c1 0 .6-2-.3-1.8-1 .3-.6 1.8.3 1.8zM17.3 64.5c-.5.5-.3 1.3.5 1.5.5.1 0-1.4-.5-1.5zM38.8 72.9l-.1.1.1-.1zM39.4 74.7c1.1 0 .9-1.8-.2-1.7-1 .1-.6 1.4.2 1.7zM53.3 34.9c-.8 0 0 1 0 .9 0 .3 1.2-.9 0-.9zM9.3 69.4c-.7.9.7 1.1 1.2.6-.3-.4-.7-.6-1.2-.6zM42.2 78.5l-.3.3c.2.1.9 0 .3-.3.3-.1-.8-.2-1-.2.5 0-.1.8 1 .2zM13.7 51.9c.7.2.9-1.8.1-1.8-.2 0-.2.7-.3.9v-.1c0 .4-.3.9.2 1zM3.9 62.5c1.2.6.4-1 .4-.9.1-.2-1.5.9-.4.9zM3 68c.3-.3 1.8-1.9.8-2.1-1-.2-1.6 1.7-.8 2.1zM17.4 27.5c1.2.2.1-2.5-.8-2.8.7.9-.1.1 0 .7.1.8.4 1.4.8 2.1zM56.7 101c-.1-.7-1.1-.9-1.3-.2-.3.7 1.3 1.2 1.3.2zM44.4 72.8c.4-1.3-2-.6-1.5.5.3.7 1.5.1 1.5-.5zM49 68.5c.2-1-1.8-1.2-1.7-.1.1.9 1.7.9 1.7.1zM38.3 74.7c0-.5-1-1-1-.3s1 1.2 1 .3zM48 78.3c0-1-1.7-.1-1.4.6.3.9 1.4 0 1.4-.6zM63.2 92.1c.2.5 1.2-.6.6-.9-.7-.4-1.2.5-.6.9zM41.1 84.8c.9 0 .2-1.9-.7-1.3-.7.5-.1 1.5.7 1.3zM63 58.9c-.4-.4-1.4.5-1.4.9 0 .2 1.3 1.2 1.4.9.2-.4-.5-.5-.4-.9.1-.3.8-.5.4-.9zM42.4 12.7c0 .3.6.3.7 0 .2-.4-.6-.4-.7 0zM51.5 13.6c-.6-.4-.6-.2-.3.5.3-.1.4-.2.3-.5zM60.4 70.2c0 .6 1.1 1.2 1 .4 0-.2-.8-1.3-1.2-1.1-.2.3-.1.5.2.7zM67.2 93.3c.3.2.5.1.6-.3-.6.1-.1 0-.6.3zM69.4 70.8c-.2-.2-.3-.3-.6-.2-.5.5.6.2.6.2zM46.7 36.7c.1-.2 0-.3-.2-.3 0 .1-.1.3 0 .4l.2-.1zM14 26.3c-.1 0-.1-.2-.3 0 .2.4.2 0 .3 0zM7.9 45.3l-.2-.3c-.1.3-.1.4.2.3zM19.5 62l-.2-.4.2.6zM12.4 65.9c-.1-.1.1-.2-.2-.3-.1.4.1.2.2.3zM19.2 25l-.2-.2c-.1.8.1.4.2.2zM82.9 11.1c-.1.2-.4-.1-.3.3.2 0 .7-.3.3-.3zM51.8 65.7s0 .3.3 0c-.1-.4-.1 0-.3 0zM63 90.2c-.3.5-.4.5.3.7-.1-.2.2-.7-.3-.7zM89.2 75.6l-.2-.1.2.1zM23.4 26.8c-.2 0-.2-.3-.5 0 .2.2.2 0 .5 0z"/><path d="M46.9 79.3c-.7-1.4-1.7 1.3 0 0zM25.6 65.8s-.8-.6-.6 0c.1.4.5.1.6 0zM72.9 6c-.3 0-.6-.3-.3.3l.3-.3zM66.2 90.6c-.1.1-.3-.1-.2.2.1 0 .6-.2.2-.2zM61.2 61.1c.3-.6-.4-.4-.6-.2l.6.2zM21.2 62.2c-.1.2-.4 0-.2.3.3-.1.2-.3.2-.3zM18.4 28.7c.2 0 .2.2.4 0-.2-.4-.2 0-.4 0zM42.7 47.7c0 .5.6.1.7-.1-.2-.3-.7-.3-.7.1zM40.7 41.8c-.4.9 1.1 0 .7 0-.2 0-.7-.8-.7 0zM16.7 27.6c0 .1-.2.1 0 .3.4-.2 0-.2 0-.3zM18.7 23.5c-.3 0-.3-.3-.6 0 .3.3.3 0 .6 0zM27.3 35.9l-.5-.4c.1 0-.2.9.5.4zM16.5 24.6c-.1-.1-.1 0-.1.1l.1-.1zM31.4 23.7c-.2-.1-.1-.4-.4-.2l.4.2zM15.7 35.3c.1.1.1.1.2 0h-.2zM63.3 91s.1 0 0 0l.1-.1-.1.1zM56.8 117c0 .1-.1.8.4.3 0-.2-.2-.3-.4-.3zM32.5 46.8c.4-.1.5-.3.3-.6-.5.1-.6.3-.3.6zM55.1 95.3s.5.3.3-.1c-.3-.6-.3.1-.3.1zM32.5 45l-.2.3c.4.1.3.2.6-.1l-.4-.2zM54.2 41.2c-.1-.1.1-.3-.2-.2 0 .1.2.6.2.2zM33.1 32s-.5-.7-.5 0c.1.2.5.4.5 0zM16.9 22c-.1.1-.4-.1-.3.1.2.2.2 0 .3-.1zM15.2 24.8c.3-.1.3-.3.2-.5-.3-.3-.8.5-.7.7l.5-.2zM7.3 73.4h.2c-.1-.2-.2-.2-.2 0zM11.7 23c-.2 0-.2-.4-.3 0 .2.2.1 0 .3 0zM14 23.5c-.1 0-.1-.4-.3 0 .2.2.2 0 .3 0zM16.6 24.7l-.1-.1.1.1zM43 23c-.2-.1-.2-.3-.4 0 .2.2.2 0 .4 0zM29.4 113.8c-.3.3.4.8.7.7.2-.3-.4-.9-.7-.7zM76.3 21.6s0-.1 0 0z"/></g></g></g><defs><linearGradient id="gradient_#9B5041_#CF705D" y1="100%" x1="0%" x2="0%" y2="0%"><stop offset="0%" style="stop-color: rgb(207, 112, 93); stop-opacity: 1;"/><stop offset="100%" style="stop-color: rgb(155, 80, 65); stop-opacity: 1;"/></linearGradient></defs></svg>